M48
INCH
T1C0.0354
T2C0.0430
T3C0.1260
%
G90
G05
T1
X3.9602Y-3.6213
X4.0102Y-3.5213
X4.0602Y-3.6213
X4.1102Y-3.5213
T2
X3.6374Y-2.2961
X3.6374Y-2.3961
X3.6374Y-2.4961
X3.6374Y-2.5961
X3.6374Y-2.6961
X3.6374Y-2.7961
X3.6374Y-2.8961
X3.6374Y-2.9961
X3.6374Y-3.0961
X3.6374Y-3.1961
X3.6374Y-3.2961
X3.6374Y-3.3961
X4.4343Y-2.2961
X4.4343Y-2.3961
X4.4343Y-2.4961
X4.4343Y-2.5961
X4.4343Y-2.6961
X4.4343Y-2.7961
X4.4343Y-2.8961
X4.4343Y-2.9961
X4.4343Y-3.0961
X4.4343Y-3.1961
X4.4343Y-3.2961
X4.4343Y-3.3961
X3.7291Y-2.0524
X3.7291Y-2.1524
X3.7291Y-2.2524
X3.7291Y-2.3524
X3.7291Y-2.4524
X3.7291Y-2.5524
X3.7291Y-2.6524
X3.7291Y-2.7524
X3.7291Y-2.8524
X3.7291Y-2.9524
X3.7291Y-3.0524
X3.7291Y-3.1524
X4.3291Y-2.0524
X4.3291Y-2.1524
X4.3291Y-2.2524
X4.3291Y-2.3524
X4.3291Y-2.4524
X4.3291Y-2.5524
X4.3291Y-2.6524
X4.3291Y-2.7524
X4.3291Y-2.8524
X4.3291Y-2.9524
X4.3291Y-3.0524
X4.3291Y-3.1524
T3
X3.6657Y-3.9035
X3.885Y-3.8713
X4.185Y-3.8713
X4.4047Y-3.9024
T0
M30
