G04 #@! TF.GenerationSoftware,KiCad,Pcbnew,(5.1.5-0-10_14)*
G04 #@! TF.CreationDate,2021-06-11T17:19:42+03:00*
G04 #@! TF.ProjectId,Wyse-converter,57797365-2d63-46f6-9e76-65727465722e,rev?*
G04 #@! TF.SameCoordinates,Original*
G04 #@! TF.FileFunction,Legend,Bot*
G04 #@! TF.FilePolarity,Positive*
%FSLAX46Y46*%
G04 Gerber Fmt 4.6, Leading zero omitted, Abs format (unit mm)*
G04 Created by KiCad (PCBNEW (5.1.5-0-10_14)) date 2021-06-11 17:19:42*
%MOMM*%
%LPD*%
G04 APERTURE LIST*
%ADD10C,0.250000*%
%ADD11C,0.010000*%
%ADD12C,0.381000*%
%ADD13C,0.200000*%
%ADD14C,0.150000*%
G04 APERTURE END LIST*
D10*
X105964285Y-84340476D02*
X105154761Y-84340476D01*
X105059523Y-84388095D01*
X105011904Y-84435714D01*
X104964285Y-84530952D01*
X104964285Y-84673809D01*
X105011904Y-84769047D01*
X105345238Y-84340476D02*
X105297619Y-84435714D01*
X105297619Y-84626190D01*
X105345238Y-84721428D01*
X105392857Y-84769047D01*
X105488095Y-84816666D01*
X105773809Y-84816666D01*
X105869047Y-84769047D01*
X105916666Y-84721428D01*
X105964285Y-84626190D01*
X105964285Y-84435714D01*
X105916666Y-84340476D01*
X105297619Y-83864285D02*
X105964285Y-83864285D01*
X106297619Y-83864285D02*
X106250000Y-83911904D01*
X106202380Y-83864285D01*
X106250000Y-83816666D01*
X106297619Y-83864285D01*
X106202380Y-83864285D01*
X105964285Y-83530952D02*
X105964285Y-83150000D01*
X106297619Y-83388095D02*
X105440476Y-83388095D01*
X105345238Y-83340476D01*
X105297619Y-83245238D01*
X105297619Y-83150000D01*
X105297619Y-82816666D02*
X106297619Y-82816666D01*
X105297619Y-82388095D02*
X105821428Y-82388095D01*
X105916666Y-82435714D01*
X105964285Y-82530952D01*
X105964285Y-82673809D01*
X105916666Y-82769047D01*
X105869047Y-82816666D01*
X105964285Y-81483333D02*
X105297619Y-81483333D01*
X105964285Y-81911904D02*
X105440476Y-81911904D01*
X105345238Y-81864285D01*
X105297619Y-81769047D01*
X105297619Y-81626190D01*
X105345238Y-81530952D01*
X105392857Y-81483333D01*
X105297619Y-81007142D02*
X106297619Y-81007142D01*
X105916666Y-81007142D02*
X105964285Y-80911904D01*
X105964285Y-80721428D01*
X105916666Y-80626190D01*
X105869047Y-80578571D01*
X105773809Y-80530952D01*
X105488095Y-80530952D01*
X105392857Y-80578571D01*
X105345238Y-80626190D01*
X105297619Y-80721428D01*
X105297619Y-80911904D01*
X105345238Y-81007142D01*
X105392857Y-80102380D02*
X105345238Y-80054761D01*
X105297619Y-80102380D01*
X105345238Y-80150000D01*
X105392857Y-80102380D01*
X105297619Y-80102380D01*
X105345238Y-79197619D02*
X105297619Y-79292857D01*
X105297619Y-79483333D01*
X105345238Y-79578571D01*
X105392857Y-79626190D01*
X105488095Y-79673809D01*
X105773809Y-79673809D01*
X105869047Y-79626190D01*
X105916666Y-79578571D01*
X105964285Y-79483333D01*
X105964285Y-79292857D01*
X105916666Y-79197619D01*
X105297619Y-78626190D02*
X105345238Y-78721428D01*
X105392857Y-78769047D01*
X105488095Y-78816666D01*
X105773809Y-78816666D01*
X105869047Y-78769047D01*
X105916666Y-78721428D01*
X105964285Y-78626190D01*
X105964285Y-78483333D01*
X105916666Y-78388095D01*
X105869047Y-78340476D01*
X105773809Y-78292857D01*
X105488095Y-78292857D01*
X105392857Y-78340476D01*
X105345238Y-78388095D01*
X105297619Y-78483333D01*
X105297619Y-78626190D01*
X105297619Y-77864285D02*
X105964285Y-77864285D01*
X105869047Y-77864285D02*
X105916666Y-77816666D01*
X105964285Y-77721428D01*
X105964285Y-77578571D01*
X105916666Y-77483333D01*
X105821428Y-77435714D01*
X105297619Y-77435714D01*
X105821428Y-77435714D02*
X105916666Y-77388095D01*
X105964285Y-77292857D01*
X105964285Y-77150000D01*
X105916666Y-77054761D01*
X105821428Y-77007142D01*
X105297619Y-77007142D01*
X106345238Y-75816666D02*
X105059523Y-76673809D01*
X105964285Y-75483333D02*
X104964285Y-75483333D01*
X105916666Y-75483333D02*
X105964285Y-75388095D01*
X105964285Y-75197619D01*
X105916666Y-75102380D01*
X105869047Y-75054761D01*
X105773809Y-75007142D01*
X105488095Y-75007142D01*
X105392857Y-75054761D01*
X105345238Y-75102380D01*
X105297619Y-75197619D01*
X105297619Y-75388095D01*
X105345238Y-75483333D01*
X105297619Y-74435714D02*
X105345238Y-74530952D01*
X105392857Y-74578571D01*
X105488095Y-74626190D01*
X105773809Y-74626190D01*
X105869047Y-74578571D01*
X105916666Y-74530952D01*
X105964285Y-74435714D01*
X105964285Y-74292857D01*
X105916666Y-74197619D01*
X105869047Y-74150000D01*
X105773809Y-74102380D01*
X105488095Y-74102380D01*
X105392857Y-74150000D01*
X105345238Y-74197619D01*
X105297619Y-74292857D01*
X105297619Y-74435714D01*
X105297619Y-73673809D02*
X106297619Y-73673809D01*
X105297619Y-73245238D02*
X105821428Y-73245238D01*
X105916666Y-73292857D01*
X105964285Y-73388095D01*
X105964285Y-73530952D01*
X105916666Y-73626190D01*
X105869047Y-73673809D01*
X105964285Y-72769047D02*
X105107142Y-72769047D01*
X105011904Y-72816666D01*
X104964285Y-72911904D01*
X104964285Y-72959523D01*
X106297619Y-72769047D02*
X106250000Y-72816666D01*
X106202380Y-72769047D01*
X106250000Y-72721428D01*
X106297619Y-72769047D01*
X106202380Y-72769047D01*
X105297619Y-72150000D02*
X105345238Y-72245238D01*
X105392857Y-72292857D01*
X105488095Y-72340476D01*
X105773809Y-72340476D01*
X105869047Y-72292857D01*
X105916666Y-72245238D01*
X105964285Y-72150000D01*
X105964285Y-72007142D01*
X105916666Y-71911904D01*
X105869047Y-71864285D01*
X105773809Y-71816666D01*
X105488095Y-71816666D01*
X105392857Y-71864285D01*
X105345238Y-71911904D01*
X105297619Y-72007142D01*
X105297619Y-72150000D01*
X105297619Y-71245238D02*
X105345238Y-71340476D01*
X105440476Y-71388095D01*
X106297619Y-71388095D01*
X105297619Y-70435714D02*
X105821428Y-70435714D01*
X105916666Y-70483333D01*
X105964285Y-70578571D01*
X105964285Y-70769047D01*
X105916666Y-70864285D01*
X105345238Y-70435714D02*
X105297619Y-70530952D01*
X105297619Y-70769047D01*
X105345238Y-70864285D01*
X105440476Y-70911904D01*
X105535714Y-70911904D01*
X105630952Y-70864285D01*
X105678571Y-70769047D01*
X105678571Y-70530952D01*
X105726190Y-70435714D01*
X105964285Y-70054761D02*
X105297619Y-69864285D01*
X105773809Y-69673809D01*
X105297619Y-69483333D01*
X105964285Y-69292857D01*
X105297619Y-68769047D02*
X105345238Y-68864285D01*
X105392857Y-68911904D01*
X105488095Y-68959523D01*
X105773809Y-68959523D01*
X105869047Y-68911904D01*
X105916666Y-68864285D01*
X105964285Y-68769047D01*
X105964285Y-68626190D01*
X105916666Y-68530952D01*
X105869047Y-68483333D01*
X105773809Y-68435714D01*
X105488095Y-68435714D01*
X105392857Y-68483333D01*
X105345238Y-68530952D01*
X105297619Y-68626190D01*
X105297619Y-68769047D01*
X105297619Y-68007142D02*
X105964285Y-68007142D01*
X105773809Y-68007142D02*
X105869047Y-67959523D01*
X105916666Y-67911904D01*
X105964285Y-67816666D01*
X105964285Y-67721428D01*
X105297619Y-67388095D02*
X106297619Y-67388095D01*
X105678571Y-67292857D02*
X105297619Y-67007142D01*
X105964285Y-67007142D02*
X105583333Y-67388095D01*
X105345238Y-66626190D02*
X105297619Y-66530952D01*
X105297619Y-66340476D01*
X105345238Y-66245238D01*
X105440476Y-66197619D01*
X105488095Y-66197619D01*
X105583333Y-66245238D01*
X105630952Y-66340476D01*
X105630952Y-66483333D01*
X105678571Y-66578571D01*
X105773809Y-66626190D01*
X105821428Y-66626190D01*
X105916666Y-66578571D01*
X105964285Y-66483333D01*
X105964285Y-66340476D01*
X105916666Y-66245238D01*
X106345238Y-65054761D02*
X105059523Y-65911904D01*
X105964285Y-64816666D02*
X105297619Y-64626190D01*
X105773809Y-64435714D01*
X105297619Y-64245238D01*
X105964285Y-64054761D01*
X105964285Y-63769047D02*
X105297619Y-63530952D01*
X105964285Y-63292857D02*
X105297619Y-63530952D01*
X105059523Y-63626190D01*
X105011904Y-63673809D01*
X104964285Y-63769047D01*
X105345238Y-62959523D02*
X105297619Y-62864285D01*
X105297619Y-62673809D01*
X105345238Y-62578571D01*
X105440476Y-62530952D01*
X105488095Y-62530952D01*
X105583333Y-62578571D01*
X105630952Y-62673809D01*
X105630952Y-62816666D01*
X105678571Y-62911904D01*
X105773809Y-62959523D01*
X105821428Y-62959523D01*
X105916666Y-62911904D01*
X105964285Y-62816666D01*
X105964285Y-62673809D01*
X105916666Y-62578571D01*
X105345238Y-61721428D02*
X105297619Y-61816666D01*
X105297619Y-62007142D01*
X105345238Y-62102380D01*
X105440476Y-62150000D01*
X105821428Y-62150000D01*
X105916666Y-62102380D01*
X105964285Y-62007142D01*
X105964285Y-61816666D01*
X105916666Y-61721428D01*
X105821428Y-61673809D01*
X105726190Y-61673809D01*
X105630952Y-62150000D01*
X105678571Y-61245238D02*
X105678571Y-60483333D01*
X105345238Y-59578571D02*
X105297619Y-59673809D01*
X105297619Y-59864285D01*
X105345238Y-59959523D01*
X105392857Y-60007142D01*
X105488095Y-60054761D01*
X105773809Y-60054761D01*
X105869047Y-60007142D01*
X105916666Y-59959523D01*
X105964285Y-59864285D01*
X105964285Y-59673809D01*
X105916666Y-59578571D01*
X105297619Y-59007142D02*
X105345238Y-59102380D01*
X105392857Y-59150000D01*
X105488095Y-59197619D01*
X105773809Y-59197619D01*
X105869047Y-59150000D01*
X105916666Y-59102380D01*
X105964285Y-59007142D01*
X105964285Y-58864285D01*
X105916666Y-58769047D01*
X105869047Y-58721428D01*
X105773809Y-58673809D01*
X105488095Y-58673809D01*
X105392857Y-58721428D01*
X105345238Y-58769047D01*
X105297619Y-58864285D01*
X105297619Y-59007142D01*
X105964285Y-58245238D02*
X105297619Y-58245238D01*
X105869047Y-58245238D02*
X105916666Y-58197619D01*
X105964285Y-58102380D01*
X105964285Y-57959523D01*
X105916666Y-57864285D01*
X105821428Y-57816666D01*
X105297619Y-57816666D01*
X105964285Y-57435714D02*
X105297619Y-57197619D01*
X105964285Y-56959523D01*
X105345238Y-56197619D02*
X105297619Y-56292857D01*
X105297619Y-56483333D01*
X105345238Y-56578571D01*
X105440476Y-56626190D01*
X105821428Y-56626190D01*
X105916666Y-56578571D01*
X105964285Y-56483333D01*
X105964285Y-56292857D01*
X105916666Y-56197619D01*
X105821428Y-56150000D01*
X105726190Y-56150000D01*
X105630952Y-56626190D01*
X105297619Y-55721428D02*
X105964285Y-55721428D01*
X105773809Y-55721428D02*
X105869047Y-55673809D01*
X105916666Y-55626190D01*
X105964285Y-55530952D01*
X105964285Y-55435714D01*
X105964285Y-55245238D02*
X105964285Y-54864285D01*
X106297619Y-55102380D02*
X105440476Y-55102380D01*
X105345238Y-55054761D01*
X105297619Y-54959523D01*
X105297619Y-54864285D01*
X105345238Y-54150000D02*
X105297619Y-54245238D01*
X105297619Y-54435714D01*
X105345238Y-54530952D01*
X105440476Y-54578571D01*
X105821428Y-54578571D01*
X105916666Y-54530952D01*
X105964285Y-54435714D01*
X105964285Y-54245238D01*
X105916666Y-54150000D01*
X105821428Y-54102380D01*
X105726190Y-54102380D01*
X105630952Y-54578571D01*
X105297619Y-53673809D02*
X105964285Y-53673809D01*
X105773809Y-53673809D02*
X105869047Y-53626190D01*
X105916666Y-53578571D01*
X105964285Y-53483333D01*
X105964285Y-53388095D01*
D11*
G36*
X102080002Y-65889158D02*
G01*
X101903890Y-65940631D01*
X101738358Y-66027358D01*
X101601776Y-66137281D01*
X101475103Y-66284733D01*
X101386988Y-66445063D01*
X101335885Y-66622284D01*
X101320246Y-66820409D01*
X101321321Y-66865000D01*
X101327623Y-66970720D01*
X101338903Y-67050368D01*
X101358707Y-67120181D01*
X101390585Y-67196395D01*
X101396512Y-67209138D01*
X101495638Y-67373167D01*
X101625931Y-67515256D01*
X101780572Y-67630205D01*
X101952740Y-67712811D01*
X102111250Y-67754286D01*
X102197968Y-67767029D01*
X102263752Y-67771457D01*
X102328654Y-67767497D01*
X102412724Y-67755077D01*
X102424199Y-67753159D01*
X102596703Y-67703658D01*
X102760684Y-67617583D01*
X102908608Y-67500680D01*
X103032944Y-67358695D01*
X103111423Y-67228787D01*
X103149251Y-67148296D01*
X103173150Y-67082576D01*
X103186884Y-67015748D01*
X103194217Y-66931932D01*
X103197093Y-66867374D01*
X103195845Y-66810223D01*
X102933890Y-66810223D01*
X102915468Y-66963386D01*
X102864684Y-67108554D01*
X102784332Y-67239515D01*
X102677210Y-67350058D01*
X102546114Y-67433972D01*
X102424147Y-67478190D01*
X102318466Y-67491358D01*
X102194854Y-67486650D01*
X102072873Y-67465843D01*
X101989511Y-67438754D01*
X101853918Y-67358784D01*
X101742795Y-67249533D01*
X101658980Y-67118111D01*
X101605309Y-66971627D01*
X101584620Y-66817188D01*
X101599749Y-66661903D01*
X101635350Y-66551377D01*
X101699533Y-66442568D01*
X101791510Y-66338818D01*
X101899553Y-66250737D01*
X102011933Y-66188941D01*
X102051132Y-66175189D01*
X102190297Y-66150415D01*
X102336435Y-66151207D01*
X102473457Y-66176589D01*
X102549292Y-66205459D01*
X102649856Y-66268614D01*
X102747574Y-66354341D01*
X102828097Y-66448928D01*
X102862456Y-66504751D01*
X102917151Y-66655274D01*
X102933890Y-66810223D01*
X103195845Y-66810223D01*
X103193234Y-66690684D01*
X103165024Y-66538102D01*
X103109147Y-66397000D01*
X103044962Y-66287895D01*
X102923080Y-66140129D01*
X102778147Y-66024107D01*
X102615767Y-65940414D01*
X102441546Y-65889635D01*
X102261090Y-65872354D01*
X102080002Y-65889158D01*
G37*
X102080002Y-65889158D02*
X101903890Y-65940631D01*
X101738358Y-66027358D01*
X101601776Y-66137281D01*
X101475103Y-66284733D01*
X101386988Y-66445063D01*
X101335885Y-66622284D01*
X101320246Y-66820409D01*
X101321321Y-66865000D01*
X101327623Y-66970720D01*
X101338903Y-67050368D01*
X101358707Y-67120181D01*
X101390585Y-67196395D01*
X101396512Y-67209138D01*
X101495638Y-67373167D01*
X101625931Y-67515256D01*
X101780572Y-67630205D01*
X101952740Y-67712811D01*
X102111250Y-67754286D01*
X102197968Y-67767029D01*
X102263752Y-67771457D01*
X102328654Y-67767497D01*
X102412724Y-67755077D01*
X102424199Y-67753159D01*
X102596703Y-67703658D01*
X102760684Y-67617583D01*
X102908608Y-67500680D01*
X103032944Y-67358695D01*
X103111423Y-67228787D01*
X103149251Y-67148296D01*
X103173150Y-67082576D01*
X103186884Y-67015748D01*
X103194217Y-66931932D01*
X103197093Y-66867374D01*
X103195845Y-66810223D01*
X102933890Y-66810223D01*
X102915468Y-66963386D01*
X102864684Y-67108554D01*
X102784332Y-67239515D01*
X102677210Y-67350058D01*
X102546114Y-67433972D01*
X102424147Y-67478190D01*
X102318466Y-67491358D01*
X102194854Y-67486650D01*
X102072873Y-67465843D01*
X101989511Y-67438754D01*
X101853918Y-67358784D01*
X101742795Y-67249533D01*
X101658980Y-67118111D01*
X101605309Y-66971627D01*
X101584620Y-66817188D01*
X101599749Y-66661903D01*
X101635350Y-66551377D01*
X101699533Y-66442568D01*
X101791510Y-66338818D01*
X101899553Y-66250737D01*
X102011933Y-66188941D01*
X102051132Y-66175189D01*
X102190297Y-66150415D01*
X102336435Y-66151207D01*
X102473457Y-66176589D01*
X102549292Y-66205459D01*
X102649856Y-66268614D01*
X102747574Y-66354341D01*
X102828097Y-66448928D01*
X102862456Y-66504751D01*
X102917151Y-66655274D01*
X102933890Y-66810223D01*
X103195845Y-66810223D01*
X103193234Y-66690684D01*
X103165024Y-66538102D01*
X103109147Y-66397000D01*
X103044962Y-66287895D01*
X102923080Y-66140129D01*
X102778147Y-66024107D01*
X102615767Y-65940414D01*
X102441546Y-65889635D01*
X102261090Y-65872354D01*
X102080002Y-65889158D01*
G36*
X101908578Y-61064533D02*
G01*
X101606691Y-61125216D01*
X101449122Y-61173937D01*
X101302852Y-61230821D01*
X101157497Y-61297506D01*
X101024209Y-61368251D01*
X100914140Y-61437314D01*
X100864736Y-61474838D01*
X100848327Y-61488261D01*
X100833905Y-61500722D01*
X100820553Y-61515113D01*
X100807358Y-61534323D01*
X100793403Y-61561242D01*
X100777774Y-61598760D01*
X100759554Y-61649768D01*
X100737828Y-61717155D01*
X100711682Y-61803812D01*
X100680199Y-61912629D01*
X100642465Y-62046495D01*
X100597563Y-62208301D01*
X100544579Y-62400937D01*
X100482597Y-62627293D01*
X100410702Y-62890259D01*
X100374528Y-63022565D01*
X100219233Y-63598082D01*
X100077620Y-64138792D01*
X99949818Y-64644124D01*
X99835956Y-65113509D01*
X99736164Y-65546378D01*
X99650570Y-65942160D01*
X99579305Y-66300285D01*
X99522497Y-66620185D01*
X99480276Y-66901288D01*
X99463859Y-67034333D01*
X99441151Y-67303102D01*
X99435652Y-67562793D01*
X99448376Y-67819356D01*
X99480340Y-68078739D01*
X99532559Y-68346891D01*
X99606049Y-68629760D01*
X99701825Y-68933296D01*
X99820902Y-69263448D01*
X99863143Y-69373250D01*
X99921621Y-69516278D01*
X99998230Y-69692555D01*
X100090982Y-69898081D01*
X100197888Y-70128859D01*
X100316959Y-70380890D01*
X100446207Y-70650175D01*
X100583642Y-70932717D01*
X100727278Y-71224517D01*
X100875124Y-71521577D01*
X101025192Y-71819898D01*
X101175493Y-72115482D01*
X101324039Y-72404331D01*
X101468841Y-72682447D01*
X101607911Y-72945830D01*
X101739259Y-73190483D01*
X101860898Y-73412407D01*
X101958153Y-73585416D01*
X102030248Y-73711125D01*
X102085525Y-73804644D01*
X102127847Y-73870723D01*
X102161076Y-73914110D01*
X102189074Y-73939554D01*
X102215704Y-73951805D01*
X102244828Y-73955610D01*
X102259417Y-73955833D01*
X102318882Y-73944296D01*
X102359292Y-73918791D01*
X102394741Y-73870049D01*
X102447194Y-73786338D01*
X102515049Y-73670716D01*
X102596703Y-73526238D01*
X102690552Y-73355962D01*
X102794993Y-73162943D01*
X102908424Y-72950238D01*
X103029241Y-72720904D01*
X103155841Y-72477996D01*
X103286621Y-72224572D01*
X103355981Y-72088882D01*
X103054721Y-72088882D01*
X102982158Y-72223316D01*
X102948529Y-72286020D01*
X102899901Y-72377224D01*
X102841029Y-72487984D01*
X102776667Y-72609357D01*
X102719400Y-72717583D01*
X102647935Y-72852206D01*
X102571749Y-72994728D01*
X102497452Y-73132852D01*
X102431651Y-73254282D01*
X102394621Y-73321969D01*
X102260038Y-73566521D01*
X102078445Y-73237302D01*
X102001613Y-73096722D01*
X101914559Y-72935362D01*
X101826339Y-72770127D01*
X101746011Y-72617926D01*
X101720683Y-72569416D01*
X101660709Y-72454730D01*
X101604373Y-72348114D01*
X101555813Y-72257319D01*
X101519172Y-72190096D01*
X101501048Y-72158210D01*
X101481692Y-72124086D01*
X101475578Y-72106221D01*
X101485954Y-72106734D01*
X101516069Y-72127742D01*
X101569169Y-72171364D01*
X101648503Y-72239718D01*
X101714716Y-72297574D01*
X101855106Y-72419779D01*
X101968060Y-72516087D01*
X102057289Y-72589274D01*
X102126501Y-72642114D01*
X102179407Y-72677385D01*
X102219715Y-72697861D01*
X102251134Y-72706320D01*
X102261773Y-72706960D01*
X102292010Y-72700602D01*
X102333577Y-72679475D01*
X102390892Y-72640446D01*
X102468374Y-72580388D01*
X102570442Y-72496167D01*
X102627786Y-72447669D01*
X102728171Y-72362416D01*
X102821442Y-72283412D01*
X102901225Y-72216038D01*
X102961150Y-72165677D01*
X102993688Y-72138649D01*
X103054721Y-72088882D01*
X103355981Y-72088882D01*
X103419978Y-71963687D01*
X103554309Y-71698398D01*
X103688011Y-71431761D01*
X103819480Y-71166833D01*
X103947114Y-70906671D01*
X104044742Y-70705354D01*
X104167022Y-70451213D01*
X104272552Y-70230362D01*
X104363348Y-70038141D01*
X104441428Y-69869895D01*
X104508810Y-69720966D01*
X104567511Y-69586697D01*
X104619548Y-69462431D01*
X104666938Y-69343510D01*
X104711700Y-69225278D01*
X104755849Y-69103078D01*
X104801405Y-68972251D01*
X104823493Y-68907583D01*
X104925190Y-68584031D01*
X105000937Y-68284204D01*
X105051829Y-67999259D01*
X105078957Y-67720350D01*
X105082210Y-67514763D01*
X104820856Y-67514763D01*
X104817665Y-67662862D01*
X104811135Y-67750099D01*
X104788729Y-67935056D01*
X104756723Y-68124057D01*
X104714088Y-68319817D01*
X104659790Y-68525055D01*
X104592798Y-68742488D01*
X104512082Y-68974833D01*
X104416608Y-69224807D01*
X104305345Y-69495128D01*
X104177263Y-69788513D01*
X104031328Y-70107679D01*
X103866509Y-70455345D01*
X103681775Y-70834226D01*
X103506329Y-71186821D01*
X103392954Y-71412893D01*
X103027269Y-71737756D01*
X102907608Y-71843699D01*
X102784437Y-71952115D01*
X102666029Y-72055768D01*
X102560655Y-72147422D01*
X102476588Y-72219839D01*
X102460500Y-72233554D01*
X102259417Y-72404488D01*
X102121834Y-72284417D01*
X102067022Y-72236581D01*
X101986596Y-72166390D01*
X101886837Y-72079325D01*
X101774023Y-71980867D01*
X101654436Y-71876497D01*
X101571500Y-71804114D01*
X101458809Y-71705426D01*
X101355977Y-71614734D01*
X101267548Y-71536096D01*
X101198066Y-71473572D01*
X101152078Y-71431222D01*
X101134744Y-71413983D01*
X101119874Y-71388032D01*
X101089061Y-71328602D01*
X101044601Y-71240417D01*
X100988791Y-71128200D01*
X100923927Y-70996676D01*
X100852306Y-70850567D01*
X100776226Y-70694597D01*
X100697982Y-70533489D01*
X100619872Y-70371968D01*
X100544192Y-70214756D01*
X100473239Y-70066577D01*
X100409309Y-69932155D01*
X100354701Y-69816213D01*
X100311709Y-69723474D01*
X100296846Y-69690750D01*
X100137283Y-69320660D01*
X100004350Y-68977906D01*
X99896698Y-68658048D01*
X99812980Y-68356651D01*
X99751850Y-68069277D01*
X99711961Y-67791487D01*
X99707699Y-67750099D01*
X99699049Y-67612646D01*
X99698853Y-67459825D01*
X99707501Y-67289298D01*
X99725383Y-67098727D01*
X99752888Y-66885772D01*
X99790406Y-66648096D01*
X99838326Y-66383361D01*
X99897039Y-66089228D01*
X99966933Y-65763358D01*
X100048399Y-65403414D01*
X100141826Y-65007056D01*
X100215391Y-64703249D01*
X100265492Y-64501166D01*
X100320630Y-64283894D01*
X100379792Y-64055066D01*
X100441966Y-63818314D01*
X100506141Y-63577269D01*
X100571302Y-63335564D01*
X100636440Y-63096831D01*
X100700541Y-62864703D01*
X100762593Y-62642810D01*
X100821584Y-62434785D01*
X100876501Y-62244261D01*
X100926333Y-62074870D01*
X100970068Y-61930243D01*
X101006693Y-61814012D01*
X101035196Y-61729811D01*
X101054564Y-61681270D01*
X101060172Y-61671867D01*
X101095772Y-61644793D01*
X101160948Y-61606402D01*
X101246112Y-61561447D01*
X101341676Y-61514681D01*
X101438052Y-61470858D01*
X101525651Y-61434732D01*
X101572240Y-61417991D01*
X101843921Y-61349729D01*
X102129709Y-61317009D01*
X102420825Y-61319755D01*
X102708490Y-61357896D01*
X102979084Y-61429709D01*
X103056448Y-61459535D01*
X103151097Y-61501214D01*
X103251173Y-61548938D01*
X103344822Y-61596900D01*
X103420188Y-61639292D01*
X103458264Y-61664455D01*
X103471765Y-61690748D01*
X103494880Y-61754470D01*
X103526621Y-61852067D01*
X103565998Y-61979983D01*
X103612025Y-62134664D01*
X103663711Y-62312556D01*
X103720070Y-62510103D01*
X103780111Y-62723750D01*
X103842848Y-62949944D01*
X103907290Y-63185128D01*
X103972451Y-63425748D01*
X104037340Y-63668250D01*
X104100971Y-63909079D01*
X104162354Y-64144680D01*
X104220501Y-64371497D01*
X104274423Y-64585977D01*
X104304028Y-64706000D01*
X104406408Y-65130327D01*
X104496490Y-65516588D01*
X104574662Y-65867102D01*
X104641311Y-66184190D01*
X104696822Y-66470174D01*
X104741583Y-66727375D01*
X104775980Y-66958113D01*
X104800400Y-67164710D01*
X104815230Y-67349486D01*
X104820856Y-67514763D01*
X105082210Y-67514763D01*
X105083415Y-67438632D01*
X105066295Y-67145262D01*
X105054975Y-67034333D01*
X105023524Y-66796282D01*
X104978611Y-66520167D01*
X104920685Y-66207904D01*
X104850196Y-65861410D01*
X104767592Y-65482602D01*
X104673323Y-65073399D01*
X104567839Y-64635717D01*
X104451587Y-64171473D01*
X104325018Y-63682585D01*
X104188580Y-63170969D01*
X104042724Y-62638544D01*
X103934254Y-62250927D01*
X103879152Y-62055227D01*
X103833635Y-61895574D01*
X103795172Y-61767449D01*
X103761232Y-61666337D01*
X103729283Y-61587721D01*
X103696794Y-61527085D01*
X103661234Y-61479912D01*
X103620071Y-61441686D01*
X103570774Y-61407890D01*
X103510812Y-61374008D01*
X103437654Y-61335522D01*
X103414322Y-61323234D01*
X103133642Y-61198062D01*
X102836734Y-61109151D01*
X102529592Y-61056956D01*
X102218209Y-61041931D01*
X101908578Y-61064533D01*
G37*
X101908578Y-61064533D02*
X101606691Y-61125216D01*
X101449122Y-61173937D01*
X101302852Y-61230821D01*
X101157497Y-61297506D01*
X101024209Y-61368251D01*
X100914140Y-61437314D01*
X100864736Y-61474838D01*
X100848327Y-61488261D01*
X100833905Y-61500722D01*
X100820553Y-61515113D01*
X100807358Y-61534323D01*
X100793403Y-61561242D01*
X100777774Y-61598760D01*
X100759554Y-61649768D01*
X100737828Y-61717155D01*
X100711682Y-61803812D01*
X100680199Y-61912629D01*
X100642465Y-62046495D01*
X100597563Y-62208301D01*
X100544579Y-62400937D01*
X100482597Y-62627293D01*
X100410702Y-62890259D01*
X100374528Y-63022565D01*
X100219233Y-63598082D01*
X100077620Y-64138792D01*
X99949818Y-64644124D01*
X99835956Y-65113509D01*
X99736164Y-65546378D01*
X99650570Y-65942160D01*
X99579305Y-66300285D01*
X99522497Y-66620185D01*
X99480276Y-66901288D01*
X99463859Y-67034333D01*
X99441151Y-67303102D01*
X99435652Y-67562793D01*
X99448376Y-67819356D01*
X99480340Y-68078739D01*
X99532559Y-68346891D01*
X99606049Y-68629760D01*
X99701825Y-68933296D01*
X99820902Y-69263448D01*
X99863143Y-69373250D01*
X99921621Y-69516278D01*
X99998230Y-69692555D01*
X100090982Y-69898081D01*
X100197888Y-70128859D01*
X100316959Y-70380890D01*
X100446207Y-70650175D01*
X100583642Y-70932717D01*
X100727278Y-71224517D01*
X100875124Y-71521577D01*
X101025192Y-71819898D01*
X101175493Y-72115482D01*
X101324039Y-72404331D01*
X101468841Y-72682447D01*
X101607911Y-72945830D01*
X101739259Y-73190483D01*
X101860898Y-73412407D01*
X101958153Y-73585416D01*
X102030248Y-73711125D01*
X102085525Y-73804644D01*
X102127847Y-73870723D01*
X102161076Y-73914110D01*
X102189074Y-73939554D01*
X102215704Y-73951805D01*
X102244828Y-73955610D01*
X102259417Y-73955833D01*
X102318882Y-73944296D01*
X102359292Y-73918791D01*
X102394741Y-73870049D01*
X102447194Y-73786338D01*
X102515049Y-73670716D01*
X102596703Y-73526238D01*
X102690552Y-73355962D01*
X102794993Y-73162943D01*
X102908424Y-72950238D01*
X103029241Y-72720904D01*
X103155841Y-72477996D01*
X103286621Y-72224572D01*
X103355981Y-72088882D01*
X103054721Y-72088882D01*
X102982158Y-72223316D01*
X102948529Y-72286020D01*
X102899901Y-72377224D01*
X102841029Y-72487984D01*
X102776667Y-72609357D01*
X102719400Y-72717583D01*
X102647935Y-72852206D01*
X102571749Y-72994728D01*
X102497452Y-73132852D01*
X102431651Y-73254282D01*
X102394621Y-73321969D01*
X102260038Y-73566521D01*
X102078445Y-73237302D01*
X102001613Y-73096722D01*
X101914559Y-72935362D01*
X101826339Y-72770127D01*
X101746011Y-72617926D01*
X101720683Y-72569416D01*
X101660709Y-72454730D01*
X101604373Y-72348114D01*
X101555813Y-72257319D01*
X101519172Y-72190096D01*
X101501048Y-72158210D01*
X101481692Y-72124086D01*
X101475578Y-72106221D01*
X101485954Y-72106734D01*
X101516069Y-72127742D01*
X101569169Y-72171364D01*
X101648503Y-72239718D01*
X101714716Y-72297574D01*
X101855106Y-72419779D01*
X101968060Y-72516087D01*
X102057289Y-72589274D01*
X102126501Y-72642114D01*
X102179407Y-72677385D01*
X102219715Y-72697861D01*
X102251134Y-72706320D01*
X102261773Y-72706960D01*
X102292010Y-72700602D01*
X102333577Y-72679475D01*
X102390892Y-72640446D01*
X102468374Y-72580388D01*
X102570442Y-72496167D01*
X102627786Y-72447669D01*
X102728171Y-72362416D01*
X102821442Y-72283412D01*
X102901225Y-72216038D01*
X102961150Y-72165677D01*
X102993688Y-72138649D01*
X103054721Y-72088882D01*
X103355981Y-72088882D01*
X103419978Y-71963687D01*
X103554309Y-71698398D01*
X103688011Y-71431761D01*
X103819480Y-71166833D01*
X103947114Y-70906671D01*
X104044742Y-70705354D01*
X104167022Y-70451213D01*
X104272552Y-70230362D01*
X104363348Y-70038141D01*
X104441428Y-69869895D01*
X104508810Y-69720966D01*
X104567511Y-69586697D01*
X104619548Y-69462431D01*
X104666938Y-69343510D01*
X104711700Y-69225278D01*
X104755849Y-69103078D01*
X104801405Y-68972251D01*
X104823493Y-68907583D01*
X104925190Y-68584031D01*
X105000937Y-68284204D01*
X105051829Y-67999259D01*
X105078957Y-67720350D01*
X105082210Y-67514763D01*
X104820856Y-67514763D01*
X104817665Y-67662862D01*
X104811135Y-67750099D01*
X104788729Y-67935056D01*
X104756723Y-68124057D01*
X104714088Y-68319817D01*
X104659790Y-68525055D01*
X104592798Y-68742488D01*
X104512082Y-68974833D01*
X104416608Y-69224807D01*
X104305345Y-69495128D01*
X104177263Y-69788513D01*
X104031328Y-70107679D01*
X103866509Y-70455345D01*
X103681775Y-70834226D01*
X103506329Y-71186821D01*
X103392954Y-71412893D01*
X103027269Y-71737756D01*
X102907608Y-71843699D01*
X102784437Y-71952115D01*
X102666029Y-72055768D01*
X102560655Y-72147422D01*
X102476588Y-72219839D01*
X102460500Y-72233554D01*
X102259417Y-72404488D01*
X102121834Y-72284417D01*
X102067022Y-72236581D01*
X101986596Y-72166390D01*
X101886837Y-72079325D01*
X101774023Y-71980867D01*
X101654436Y-71876497D01*
X101571500Y-71804114D01*
X101458809Y-71705426D01*
X101355977Y-71614734D01*
X101267548Y-71536096D01*
X101198066Y-71473572D01*
X101152078Y-71431222D01*
X101134744Y-71413983D01*
X101119874Y-71388032D01*
X101089061Y-71328602D01*
X101044601Y-71240417D01*
X100988791Y-71128200D01*
X100923927Y-70996676D01*
X100852306Y-70850567D01*
X100776226Y-70694597D01*
X100697982Y-70533489D01*
X100619872Y-70371968D01*
X100544192Y-70214756D01*
X100473239Y-70066577D01*
X100409309Y-69932155D01*
X100354701Y-69816213D01*
X100311709Y-69723474D01*
X100296846Y-69690750D01*
X100137283Y-69320660D01*
X100004350Y-68977906D01*
X99896698Y-68658048D01*
X99812980Y-68356651D01*
X99751850Y-68069277D01*
X99711961Y-67791487D01*
X99707699Y-67750099D01*
X99699049Y-67612646D01*
X99698853Y-67459825D01*
X99707501Y-67289298D01*
X99725383Y-67098727D01*
X99752888Y-66885772D01*
X99790406Y-66648096D01*
X99838326Y-66383361D01*
X99897039Y-66089228D01*
X99966933Y-65763358D01*
X100048399Y-65403414D01*
X100141826Y-65007056D01*
X100215391Y-64703249D01*
X100265492Y-64501166D01*
X100320630Y-64283894D01*
X100379792Y-64055066D01*
X100441966Y-63818314D01*
X100506141Y-63577269D01*
X100571302Y-63335564D01*
X100636440Y-63096831D01*
X100700541Y-62864703D01*
X100762593Y-62642810D01*
X100821584Y-62434785D01*
X100876501Y-62244261D01*
X100926333Y-62074870D01*
X100970068Y-61930243D01*
X101006693Y-61814012D01*
X101035196Y-61729811D01*
X101054564Y-61681270D01*
X101060172Y-61671867D01*
X101095772Y-61644793D01*
X101160948Y-61606402D01*
X101246112Y-61561447D01*
X101341676Y-61514681D01*
X101438052Y-61470858D01*
X101525651Y-61434732D01*
X101572240Y-61417991D01*
X101843921Y-61349729D01*
X102129709Y-61317009D01*
X102420825Y-61319755D01*
X102708490Y-61357896D01*
X102979084Y-61429709D01*
X103056448Y-61459535D01*
X103151097Y-61501214D01*
X103251173Y-61548938D01*
X103344822Y-61596900D01*
X103420188Y-61639292D01*
X103458264Y-61664455D01*
X103471765Y-61690748D01*
X103494880Y-61754470D01*
X103526621Y-61852067D01*
X103565998Y-61979983D01*
X103612025Y-62134664D01*
X103663711Y-62312556D01*
X103720070Y-62510103D01*
X103780111Y-62723750D01*
X103842848Y-62949944D01*
X103907290Y-63185128D01*
X103972451Y-63425748D01*
X104037340Y-63668250D01*
X104100971Y-63909079D01*
X104162354Y-64144680D01*
X104220501Y-64371497D01*
X104274423Y-64585977D01*
X104304028Y-64706000D01*
X104406408Y-65130327D01*
X104496490Y-65516588D01*
X104574662Y-65867102D01*
X104641311Y-66184190D01*
X104696822Y-66470174D01*
X104741583Y-66727375D01*
X104775980Y-66958113D01*
X104800400Y-67164710D01*
X104815230Y-67349486D01*
X104820856Y-67514763D01*
X105082210Y-67514763D01*
X105083415Y-67438632D01*
X105066295Y-67145262D01*
X105054975Y-67034333D01*
X105023524Y-66796282D01*
X104978611Y-66520167D01*
X104920685Y-66207904D01*
X104850196Y-65861410D01*
X104767592Y-65482602D01*
X104673323Y-65073399D01*
X104567839Y-64635717D01*
X104451587Y-64171473D01*
X104325018Y-63682585D01*
X104188580Y-63170969D01*
X104042724Y-62638544D01*
X103934254Y-62250927D01*
X103879152Y-62055227D01*
X103833635Y-61895574D01*
X103795172Y-61767449D01*
X103761232Y-61666337D01*
X103729283Y-61587721D01*
X103696794Y-61527085D01*
X103661234Y-61479912D01*
X103620071Y-61441686D01*
X103570774Y-61407890D01*
X103510812Y-61374008D01*
X103437654Y-61335522D01*
X103414322Y-61323234D01*
X103133642Y-61198062D01*
X102836734Y-61109151D01*
X102529592Y-61056956D01*
X102218209Y-61041931D01*
X101908578Y-61064533D01*
D12*
X91120000Y-48250000D02*
X113900000Y-48250000D01*
X113900000Y-48250000D02*
X113900000Y-87530000D01*
X113900000Y-87530000D02*
X91120000Y-87530000D01*
X91120000Y-87530000D02*
X91120000Y-48250000D01*
X111360000Y-57050000D02*
X111360000Y-59590000D01*
X111360000Y-59590000D02*
X113900000Y-59590000D01*
X111360000Y-57050000D02*
X113900000Y-57050000D01*
D13*
X106510000Y-56290000D02*
X98510000Y-56290000D01*
X98510000Y-56290000D02*
X98510000Y-46790000D01*
X98510000Y-46790000D02*
X106510000Y-46790000D01*
X106510000Y-46790000D02*
X106510000Y-56290000D01*
D12*
X111230000Y-50860000D02*
X111230000Y-81340000D01*
X111230000Y-81340000D02*
X93450000Y-81340000D01*
X93450000Y-81340000D02*
X93450000Y-50860000D01*
X108690000Y-50860000D02*
X108690000Y-53400000D01*
X108690000Y-53400000D02*
X111230000Y-53400000D01*
D14*
G36*
X97408432Y-56739360D02*
G01*
X97408432Y-57039360D01*
X97508432Y-57039360D01*
X97508432Y-56739360D01*
X97408432Y-56739360D01*
G37*
X97408432Y-56739360D02*
X97408432Y-57039360D01*
X97508432Y-57039360D01*
X97508432Y-56739360D01*
X97408432Y-56739360D01*
G36*
X97608432Y-57139360D02*
G01*
X97608432Y-57239360D01*
X97708432Y-57239360D01*
X97708432Y-57139360D01*
X97608432Y-57139360D01*
G37*
X97608432Y-57139360D02*
X97608432Y-57239360D01*
X97708432Y-57239360D01*
X97708432Y-57139360D01*
X97608432Y-57139360D01*
G36*
X97408432Y-56739360D02*
G01*
X97408432Y-56839360D01*
X97908432Y-56839360D01*
X97908432Y-56739360D01*
X97408432Y-56739360D01*
G37*
X97408432Y-56739360D02*
X97408432Y-56839360D01*
X97908432Y-56839360D01*
X97908432Y-56739360D01*
X97408432Y-56739360D01*
G36*
X97808432Y-56739360D02*
G01*
X97808432Y-57539360D01*
X97908432Y-57539360D01*
X97908432Y-56739360D01*
X97808432Y-56739360D01*
G37*
X97808432Y-56739360D02*
X97808432Y-57539360D01*
X97908432Y-57539360D01*
X97908432Y-56739360D01*
X97808432Y-56739360D01*
G36*
X97408432Y-57339360D02*
G01*
X97408432Y-57539360D01*
X97508432Y-57539360D01*
X97508432Y-57339360D01*
X97408432Y-57339360D01*
G37*
X97408432Y-57339360D02*
X97408432Y-57539360D01*
X97508432Y-57539360D01*
X97508432Y-57339360D01*
X97408432Y-57339360D01*
D12*
X93450000Y-50860000D02*
X93450000Y-48320000D01*
X93450000Y-48320000D02*
X111230000Y-48320000D01*
X111230000Y-48320000D02*
X111230000Y-50860000D01*
X108690000Y-50860000D02*
X111230000Y-50860000D01*
D14*
X97202809Y-77472857D02*
X97088523Y-77510952D01*
X97050428Y-77549047D01*
X97012333Y-77625238D01*
X97012333Y-77739523D01*
X97050428Y-77815714D01*
X97088523Y-77853809D01*
X97164714Y-77891904D01*
X97469476Y-77891904D01*
X97469476Y-77091904D01*
X97202809Y-77091904D01*
X97126619Y-77130000D01*
X97088523Y-77168095D01*
X97050428Y-77244285D01*
X97050428Y-77320476D01*
X97088523Y-77396666D01*
X97126619Y-77434761D01*
X97202809Y-77472857D01*
X97469476Y-77472857D01*
X96707571Y-77168095D02*
X96669476Y-77130000D01*
X96593285Y-77091904D01*
X96402809Y-77091904D01*
X96326619Y-77130000D01*
X96288523Y-77168095D01*
X96250428Y-77244285D01*
X96250428Y-77320476D01*
X96288523Y-77434761D01*
X96745666Y-77891904D01*
X96250428Y-77891904D01*
X97145666Y-69852857D02*
X97412333Y-69852857D01*
X97412333Y-70271904D02*
X97412333Y-69471904D01*
X97031380Y-69471904D01*
X96802809Y-69471904D02*
X96269476Y-69471904D01*
X96612333Y-70271904D01*
X97145666Y-67312857D02*
X97412333Y-67312857D01*
X97412333Y-67731904D02*
X97412333Y-66931904D01*
X97031380Y-66931904D01*
X96383761Y-66931904D02*
X96536142Y-66931904D01*
X96612333Y-66970000D01*
X96650428Y-67008095D01*
X96726619Y-67122380D01*
X96764714Y-67274761D01*
X96764714Y-67579523D01*
X96726619Y-67655714D01*
X96688523Y-67693809D01*
X96612333Y-67731904D01*
X96459952Y-67731904D01*
X96383761Y-67693809D01*
X96345666Y-67655714D01*
X96307571Y-67579523D01*
X96307571Y-67389047D01*
X96345666Y-67312857D01*
X96383761Y-67274761D01*
X96459952Y-67236666D01*
X96612333Y-67236666D01*
X96688523Y-67274761D01*
X96726619Y-67312857D01*
X96764714Y-67389047D01*
X97145666Y-64772857D02*
X97412333Y-64772857D01*
X97412333Y-65191904D02*
X97412333Y-64391904D01*
X97031380Y-64391904D01*
X96345666Y-64391904D02*
X96726619Y-64391904D01*
X96764714Y-64772857D01*
X96726619Y-64734761D01*
X96650428Y-64696666D01*
X96459952Y-64696666D01*
X96383761Y-64734761D01*
X96345666Y-64772857D01*
X96307571Y-64849047D01*
X96307571Y-65039523D01*
X96345666Y-65115714D01*
X96383761Y-65153809D01*
X96459952Y-65191904D01*
X96650428Y-65191904D01*
X96726619Y-65153809D01*
X96764714Y-65115714D01*
X97431380Y-52491904D02*
X97698047Y-52110952D01*
X97888523Y-52491904D02*
X97888523Y-51691904D01*
X97583761Y-51691904D01*
X97507571Y-51730000D01*
X97469476Y-51768095D01*
X97431380Y-51844285D01*
X97431380Y-51958571D01*
X97469476Y-52034761D01*
X97507571Y-52072857D01*
X97583761Y-52110952D01*
X97888523Y-52110952D01*
X97126619Y-52263333D02*
X96745666Y-52263333D01*
X97202809Y-52491904D02*
X96936142Y-51691904D01*
X96669476Y-52491904D01*
X96479000Y-51691904D02*
X96288523Y-52491904D01*
X96136142Y-51920476D01*
X95983761Y-52491904D01*
X95793285Y-51691904D01*
X97488523Y-54270000D02*
X97564714Y-54231904D01*
X97679000Y-54231904D01*
X97793285Y-54270000D01*
X97869476Y-54346190D01*
X97907571Y-54422380D01*
X97945666Y-54574761D01*
X97945666Y-54689047D01*
X97907571Y-54841428D01*
X97869476Y-54917619D01*
X97793285Y-54993809D01*
X97679000Y-55031904D01*
X97602809Y-55031904D01*
X97488523Y-54993809D01*
X97450428Y-54955714D01*
X97450428Y-54689047D01*
X97602809Y-54689047D01*
X97107571Y-55031904D02*
X97107571Y-54231904D01*
X96650428Y-55031904D01*
X96650428Y-54231904D01*
X96269476Y-55031904D02*
X96269476Y-54231904D01*
X96079000Y-54231904D01*
X95964714Y-54270000D01*
X95888523Y-54346190D01*
X95850428Y-54422380D01*
X95812333Y-54574761D01*
X95812333Y-54689047D01*
X95850428Y-54841428D01*
X95888523Y-54917619D01*
X95964714Y-54993809D01*
X96079000Y-55031904D01*
X96269476Y-55031904D01*
X97140213Y-57503809D02*
X97025927Y-57541904D01*
X96835451Y-57541904D01*
X96759260Y-57503809D01*
X96721165Y-57465714D01*
X96683070Y-57389523D01*
X96683070Y-57313333D01*
X96721165Y-57237142D01*
X96759260Y-57199047D01*
X96835451Y-57160952D01*
X96987832Y-57122857D01*
X97064022Y-57084761D01*
X97102118Y-57046666D01*
X97140213Y-56970476D01*
X97140213Y-56894285D01*
X97102118Y-56818095D01*
X97064022Y-56780000D01*
X96987832Y-56741904D01*
X96797356Y-56741904D01*
X96683070Y-56780000D01*
X96454499Y-56741904D02*
X95997356Y-56741904D01*
X96225927Y-57541904D02*
X96225927Y-56741904D01*
X97945666Y-59311904D02*
X97679000Y-60111904D01*
X97412333Y-59311904D01*
X96688523Y-60035714D02*
X96726619Y-60073809D01*
X96840904Y-60111904D01*
X96917095Y-60111904D01*
X97031380Y-60073809D01*
X97107571Y-59997619D01*
X97145666Y-59921428D01*
X97183761Y-59769047D01*
X97183761Y-59654761D01*
X97145666Y-59502380D01*
X97107571Y-59426190D01*
X97031380Y-59350000D01*
X96917095Y-59311904D01*
X96840904Y-59311904D01*
X96726619Y-59350000D01*
X96688523Y-59388095D01*
X95888523Y-60035714D02*
X95926619Y-60073809D01*
X96040904Y-60111904D01*
X96117095Y-60111904D01*
X96231380Y-60073809D01*
X96307571Y-59997619D01*
X96345666Y-59921428D01*
X96383761Y-59769047D01*
X96383761Y-59654761D01*
X96345666Y-59502380D01*
X96307571Y-59426190D01*
X96231380Y-59350000D01*
X96117095Y-59311904D01*
X96040904Y-59311904D01*
X95926619Y-59350000D01*
X95888523Y-59388095D01*
X97145666Y-62232857D02*
X97412333Y-62232857D01*
X97412333Y-62651904D02*
X97412333Y-61851904D01*
X97031380Y-61851904D01*
X96383761Y-62118571D02*
X96383761Y-62651904D01*
X96574238Y-61813809D02*
X96764714Y-62385238D01*
X96269476Y-62385238D01*
X97202809Y-72392857D02*
X97088523Y-72430952D01*
X97050428Y-72469047D01*
X97012333Y-72545238D01*
X97012333Y-72659523D01*
X97050428Y-72735714D01*
X97088523Y-72773809D01*
X97164714Y-72811904D01*
X97469476Y-72811904D01*
X97469476Y-72011904D01*
X97202809Y-72011904D01*
X97126619Y-72050000D01*
X97088523Y-72088095D01*
X97050428Y-72164285D01*
X97050428Y-72240476D01*
X97088523Y-72316666D01*
X97126619Y-72354761D01*
X97202809Y-72392857D01*
X97469476Y-72392857D01*
X96250428Y-72811904D02*
X96707571Y-72811904D01*
X96479000Y-72811904D02*
X96479000Y-72011904D01*
X96555190Y-72126190D01*
X96631380Y-72202380D01*
X96707571Y-72240476D01*
X97202809Y-74932857D02*
X97088523Y-74970952D01*
X97050428Y-75009047D01*
X97012333Y-75085238D01*
X97012333Y-75199523D01*
X97050428Y-75275714D01*
X97088523Y-75313809D01*
X97164714Y-75351904D01*
X97469476Y-75351904D01*
X97469476Y-74551904D01*
X97202809Y-74551904D01*
X97126619Y-74590000D01*
X97088523Y-74628095D01*
X97050428Y-74704285D01*
X97050428Y-74780476D01*
X97088523Y-74856666D01*
X97126619Y-74894761D01*
X97202809Y-74932857D01*
X97469476Y-74932857D01*
X96745666Y-74551904D02*
X96250428Y-74551904D01*
X96517095Y-74856666D01*
X96402809Y-74856666D01*
X96326619Y-74894761D01*
X96288523Y-74932857D01*
X96250428Y-75009047D01*
X96250428Y-75199523D01*
X96288523Y-75275714D01*
X96326619Y-75313809D01*
X96402809Y-75351904D01*
X96631380Y-75351904D01*
X96707571Y-75313809D01*
X96745666Y-75275714D01*
X97202809Y-80012857D02*
X97088523Y-80050952D01*
X97050428Y-80089047D01*
X97012333Y-80165238D01*
X97012333Y-80279523D01*
X97050428Y-80355714D01*
X97088523Y-80393809D01*
X97164714Y-80431904D01*
X97469476Y-80431904D01*
X97469476Y-79631904D01*
X97202809Y-79631904D01*
X97126619Y-79670000D01*
X97088523Y-79708095D01*
X97050428Y-79784285D01*
X97050428Y-79860476D01*
X97088523Y-79936666D01*
X97126619Y-79974761D01*
X97202809Y-80012857D01*
X97469476Y-80012857D01*
X96326619Y-79631904D02*
X96479000Y-79631904D01*
X96555190Y-79670000D01*
X96593285Y-79708095D01*
X96669476Y-79822380D01*
X96707571Y-79974761D01*
X96707571Y-80279523D01*
X96669476Y-80355714D01*
X96631380Y-80393809D01*
X96555190Y-80431904D01*
X96402809Y-80431904D01*
X96326619Y-80393809D01*
X96288523Y-80355714D01*
X96250428Y-80279523D01*
X96250428Y-80089047D01*
X96288523Y-80012857D01*
X96326619Y-79974761D01*
X96402809Y-79936666D01*
X96555190Y-79936666D01*
X96631380Y-79974761D01*
X96669476Y-80012857D01*
X96707571Y-80089047D01*
X108124809Y-80012857D02*
X108010523Y-80050952D01*
X107972428Y-80089047D01*
X107934333Y-80165238D01*
X107934333Y-80279523D01*
X107972428Y-80355714D01*
X108010523Y-80393809D01*
X108086714Y-80431904D01*
X108391476Y-80431904D01*
X108391476Y-79631904D01*
X108124809Y-79631904D01*
X108048619Y-79670000D01*
X108010523Y-79708095D01*
X107972428Y-79784285D01*
X107972428Y-79860476D01*
X108010523Y-79936666D01*
X108048619Y-79974761D01*
X108124809Y-80012857D01*
X108391476Y-80012857D01*
X107210523Y-79631904D02*
X107591476Y-79631904D01*
X107629571Y-80012857D01*
X107591476Y-79974761D01*
X107515285Y-79936666D01*
X107324809Y-79936666D01*
X107248619Y-79974761D01*
X107210523Y-80012857D01*
X107172428Y-80089047D01*
X107172428Y-80279523D01*
X107210523Y-80355714D01*
X107248619Y-80393809D01*
X107324809Y-80431904D01*
X107515285Y-80431904D01*
X107591476Y-80393809D01*
X107629571Y-80355714D01*
X108124809Y-77472857D02*
X108010523Y-77510952D01*
X107972428Y-77549047D01*
X107934333Y-77625238D01*
X107934333Y-77739523D01*
X107972428Y-77815714D01*
X108010523Y-77853809D01*
X108086714Y-77891904D01*
X108391476Y-77891904D01*
X108391476Y-77091904D01*
X108124809Y-77091904D01*
X108048619Y-77130000D01*
X108010523Y-77168095D01*
X107972428Y-77244285D01*
X107972428Y-77320476D01*
X108010523Y-77396666D01*
X108048619Y-77434761D01*
X108124809Y-77472857D01*
X108391476Y-77472857D01*
X107248619Y-77358571D02*
X107248619Y-77891904D01*
X107439095Y-77053809D02*
X107629571Y-77625238D01*
X107134333Y-77625238D01*
X108353380Y-74932857D02*
X108086714Y-74932857D01*
X107972428Y-75351904D02*
X108353380Y-75351904D01*
X108353380Y-74551904D01*
X107972428Y-74551904D01*
X107286714Y-74551904D02*
X107439095Y-74551904D01*
X107515285Y-74590000D01*
X107553380Y-74628095D01*
X107629571Y-74742380D01*
X107667666Y-74894761D01*
X107667666Y-75199523D01*
X107629571Y-75275714D01*
X107591476Y-75313809D01*
X107515285Y-75351904D01*
X107362904Y-75351904D01*
X107286714Y-75313809D01*
X107248619Y-75275714D01*
X107210523Y-75199523D01*
X107210523Y-75009047D01*
X107248619Y-74932857D01*
X107286714Y-74894761D01*
X107362904Y-74856666D01*
X107515285Y-74856666D01*
X107591476Y-74894761D01*
X107629571Y-74932857D01*
X107667666Y-75009047D01*
X108391476Y-72811904D02*
X108391476Y-72011904D01*
X108201000Y-72011904D01*
X108086714Y-72050000D01*
X108010523Y-72126190D01*
X107972428Y-72202380D01*
X107934333Y-72354761D01*
X107934333Y-72469047D01*
X107972428Y-72621428D01*
X108010523Y-72697619D01*
X108086714Y-72773809D01*
X108201000Y-72811904D01*
X108391476Y-72811904D01*
X107667666Y-72011904D02*
X107134333Y-72011904D01*
X107477190Y-72811904D01*
X107934333Y-70195714D02*
X107972428Y-70233809D01*
X108086714Y-70271904D01*
X108162904Y-70271904D01*
X108277190Y-70233809D01*
X108353380Y-70157619D01*
X108391476Y-70081428D01*
X108429571Y-69929047D01*
X108429571Y-69814761D01*
X108391476Y-69662380D01*
X108353380Y-69586190D01*
X108277190Y-69510000D01*
X108162904Y-69471904D01*
X108086714Y-69471904D01*
X107972428Y-69510000D01*
X107934333Y-69548095D01*
X107248619Y-69471904D02*
X107401000Y-69471904D01*
X107477190Y-69510000D01*
X107515285Y-69548095D01*
X107591476Y-69662380D01*
X107629571Y-69814761D01*
X107629571Y-70119523D01*
X107591476Y-70195714D01*
X107553380Y-70233809D01*
X107477190Y-70271904D01*
X107324809Y-70271904D01*
X107248619Y-70233809D01*
X107210523Y-70195714D01*
X107172428Y-70119523D01*
X107172428Y-69929047D01*
X107210523Y-69852857D01*
X107248619Y-69814761D01*
X107324809Y-69776666D01*
X107477190Y-69776666D01*
X107553380Y-69814761D01*
X107591476Y-69852857D01*
X107629571Y-69929047D01*
X108391476Y-67731904D02*
X108391476Y-66931904D01*
X108201000Y-66931904D01*
X108086714Y-66970000D01*
X108010523Y-67046190D01*
X107972428Y-67122380D01*
X107934333Y-67274761D01*
X107934333Y-67389047D01*
X107972428Y-67541428D01*
X108010523Y-67617619D01*
X108086714Y-67693809D01*
X108201000Y-67731904D01*
X108391476Y-67731904D01*
X107248619Y-67198571D02*
X107248619Y-67731904D01*
X107439095Y-66893809D02*
X107629571Y-67465238D01*
X107134333Y-67465238D01*
X108410523Y-56810000D02*
X108486714Y-56771904D01*
X108601000Y-56771904D01*
X108715285Y-56810000D01*
X108791476Y-56886190D01*
X108829571Y-56962380D01*
X108867666Y-57114761D01*
X108867666Y-57229047D01*
X108829571Y-57381428D01*
X108791476Y-57457619D01*
X108715285Y-57533809D01*
X108601000Y-57571904D01*
X108524809Y-57571904D01*
X108410523Y-57533809D01*
X108372428Y-57495714D01*
X108372428Y-57229047D01*
X108524809Y-57229047D01*
X108029571Y-57571904D02*
X108029571Y-56771904D01*
X107572428Y-57571904D01*
X107572428Y-56771904D01*
X107191476Y-57571904D02*
X107191476Y-56771904D01*
X107001000Y-56771904D01*
X106886714Y-56810000D01*
X106810523Y-56886190D01*
X106772428Y-56962380D01*
X106734333Y-57114761D01*
X106734333Y-57229047D01*
X106772428Y-57381428D01*
X106810523Y-57457619D01*
X106886714Y-57533809D01*
X107001000Y-57571904D01*
X107191476Y-57571904D01*
X108410523Y-59350000D02*
X108486714Y-59311904D01*
X108601000Y-59311904D01*
X108715285Y-59350000D01*
X108791476Y-59426190D01*
X108829571Y-59502380D01*
X108867666Y-59654761D01*
X108867666Y-59769047D01*
X108829571Y-59921428D01*
X108791476Y-59997619D01*
X108715285Y-60073809D01*
X108601000Y-60111904D01*
X108524809Y-60111904D01*
X108410523Y-60073809D01*
X108372428Y-60035714D01*
X108372428Y-59769047D01*
X108524809Y-59769047D01*
X108029571Y-60111904D02*
X108029571Y-59311904D01*
X107572428Y-60111904D01*
X107572428Y-59311904D01*
X107191476Y-60111904D02*
X107191476Y-59311904D01*
X107001000Y-59311904D01*
X106886714Y-59350000D01*
X106810523Y-59426190D01*
X106772428Y-59502380D01*
X106734333Y-59654761D01*
X106734333Y-59769047D01*
X106772428Y-59921428D01*
X106810523Y-59997619D01*
X106886714Y-60073809D01*
X107001000Y-60111904D01*
X107191476Y-60111904D01*
X108391476Y-62651904D02*
X108391476Y-61851904D01*
X108201000Y-61851904D01*
X108086714Y-61890000D01*
X108010523Y-61966190D01*
X107972428Y-62042380D01*
X107934333Y-62194761D01*
X107934333Y-62309047D01*
X107972428Y-62461428D01*
X108010523Y-62537619D01*
X108086714Y-62613809D01*
X108201000Y-62651904D01*
X108391476Y-62651904D01*
X107172428Y-62651904D02*
X107629571Y-62651904D01*
X107401000Y-62651904D02*
X107401000Y-61851904D01*
X107477190Y-61966190D01*
X107553380Y-62042380D01*
X107629571Y-62080476D01*
X108391476Y-65191904D02*
X108391476Y-64391904D01*
X108201000Y-64391904D01*
X108086714Y-64430000D01*
X108010523Y-64506190D01*
X107972428Y-64582380D01*
X107934333Y-64734761D01*
X107934333Y-64849047D01*
X107972428Y-65001428D01*
X108010523Y-65077619D01*
X108086714Y-65153809D01*
X108201000Y-65191904D01*
X108391476Y-65191904D01*
X107439095Y-64391904D02*
X107362904Y-64391904D01*
X107286714Y-64430000D01*
X107248619Y-64468095D01*
X107210523Y-64544285D01*
X107172428Y-64696666D01*
X107172428Y-64887142D01*
X107210523Y-65039523D01*
X107248619Y-65115714D01*
X107286714Y-65153809D01*
X107362904Y-65191904D01*
X107439095Y-65191904D01*
X107515285Y-65153809D01*
X107553380Y-65115714D01*
X107591476Y-65039523D01*
X107629571Y-64887142D01*
X107629571Y-64696666D01*
X107591476Y-64544285D01*
X107553380Y-64468095D01*
X107515285Y-64430000D01*
X107439095Y-64391904D01*
X108391476Y-55031904D02*
X108391476Y-54231904D01*
X108201000Y-54231904D01*
X108086714Y-54270000D01*
X108010523Y-54346190D01*
X107972428Y-54422380D01*
X107934333Y-54574761D01*
X107934333Y-54689047D01*
X107972428Y-54841428D01*
X108010523Y-54917619D01*
X108086714Y-54993809D01*
X108201000Y-55031904D01*
X108391476Y-55031904D01*
X107629571Y-54308095D02*
X107591476Y-54270000D01*
X107515285Y-54231904D01*
X107324809Y-54231904D01*
X107248619Y-54270000D01*
X107210523Y-54308095D01*
X107172428Y-54384285D01*
X107172428Y-54460476D01*
X107210523Y-54574761D01*
X107667666Y-55031904D01*
X107172428Y-55031904D01*
X108102348Y-51691904D02*
X107645205Y-51691904D01*
X107873776Y-52491904D02*
X107873776Y-51691904D01*
X107454729Y-51691904D02*
X106921395Y-52491904D01*
X106921395Y-51691904D02*
X107454729Y-52491904D01*
X106464252Y-51691904D02*
X106388062Y-51691904D01*
X106311872Y-51730000D01*
X106273776Y-51768095D01*
X106235681Y-51844285D01*
X106197586Y-51996666D01*
X106197586Y-52187142D01*
X106235681Y-52339523D01*
X106273776Y-52415714D01*
X106311872Y-52453809D01*
X106388062Y-52491904D01*
X106464252Y-52491904D01*
X106540443Y-52453809D01*
X106578538Y-52415714D01*
X106616633Y-52339523D01*
X106654729Y-52187142D01*
X106654729Y-51996666D01*
X106616633Y-51844285D01*
X106578538Y-51768095D01*
X106540443Y-51730000D01*
X106464252Y-51691904D01*
X105283300Y-51653809D02*
X105969014Y-52682380D01*
X105016633Y-52491904D02*
X105016633Y-51691904D01*
X104826157Y-51691904D01*
X104711872Y-51730000D01*
X104635681Y-51806190D01*
X104597586Y-51882380D01*
X104559491Y-52034761D01*
X104559491Y-52149047D01*
X104597586Y-52301428D01*
X104635681Y-52377619D01*
X104711872Y-52453809D01*
X104826157Y-52491904D01*
X105016633Y-52491904D01*
X104292824Y-51691904D02*
X103797586Y-51691904D01*
X104064252Y-51996666D01*
X103949967Y-51996666D01*
X103873776Y-52034761D01*
X103835681Y-52072857D01*
X103797586Y-52149047D01*
X103797586Y-52339523D01*
X103835681Y-52415714D01*
X103873776Y-52453809D01*
X103949967Y-52491904D01*
X104178538Y-52491904D01*
X104254729Y-52453809D01*
X104292824Y-52415714D01*
M02*
