G04 #@! TF.GenerationSoftware,KiCad,Pcbnew,(5.1.5-0-10_14)*
G04 #@! TF.CreationDate,2021-06-11T17:19:42+03:00*
G04 #@! TF.ProjectId,Wyse-converter,57797365-2d63-46f6-9e76-65727465722e,rev?*
G04 #@! TF.SameCoordinates,Original*
G04 #@! TF.FileFunction,Copper,L2,Bot*
G04 #@! TF.FilePolarity,Positive*
%FSLAX46Y46*%
G04 Gerber Fmt 4.6, Leading zero omitted, Abs format (unit mm)*
G04 Created by KiCad (PCBNEW (5.1.5-0-10_14)) date 2021-06-11 17:19:42*
%MOMM*%
%LPD*%
G04 APERTURE LIST*
%ADD10R,1.752600X1.752600*%
%ADD11C,1.752600*%
%ADD12C,3.200000*%
%ADD13C,1.500000*%
%ADD14C,4.000000*%
%ADD15C,0.250000*%
G04 APERTURE END LIST*
D10*
X112630000Y-58320000D03*
D11*
X112630000Y-60860000D03*
X112630000Y-63400000D03*
X112630000Y-65940000D03*
X112630000Y-68480000D03*
X112630000Y-71020000D03*
X112630000Y-73560000D03*
X112630000Y-76100000D03*
X112630000Y-78640000D03*
X112630000Y-81180000D03*
X112630000Y-83720000D03*
X92390000Y-86260000D03*
X92390000Y-83720000D03*
X92390000Y-81180000D03*
X92390000Y-78640000D03*
X92390000Y-76100000D03*
X92390000Y-73560000D03*
X92390000Y-71020000D03*
X92390000Y-68480000D03*
X92390000Y-65940000D03*
X92390000Y-63400000D03*
X92390000Y-60860000D03*
X112630000Y-86260000D03*
X92390000Y-58320000D03*
D12*
X98680000Y-98330000D03*
X106300000Y-98330000D03*
D13*
X100590000Y-91980000D03*
X101860000Y-89440000D03*
X104400000Y-89440000D03*
X103130000Y-91980000D03*
D10*
X109960000Y-52130000D03*
D11*
X109960000Y-54670000D03*
X109960000Y-57210000D03*
X109960000Y-59750000D03*
X109960000Y-62290000D03*
X109960000Y-64830000D03*
X109960000Y-67370000D03*
X109960000Y-69910000D03*
X109960000Y-72450000D03*
X109960000Y-74990000D03*
X109960000Y-77530000D03*
X94720000Y-80070000D03*
X94720000Y-77530000D03*
X94720000Y-74990000D03*
X94720000Y-72450000D03*
X94720000Y-69910000D03*
X94720000Y-67370000D03*
X94720000Y-64830000D03*
X94720000Y-62290000D03*
X94720000Y-59750000D03*
X94720000Y-57210000D03*
X94720000Y-54670000D03*
X109960000Y-80070000D03*
X94720000Y-52130000D03*
D14*
X93110000Y-99150000D03*
X111880000Y-99120000D03*
D15*
X111161301Y-88468699D02*
X107650000Y-91980000D01*
X111161301Y-69948699D02*
X111161301Y-88468699D01*
X107650000Y-91980000D02*
X103130000Y-91980000D01*
X112630000Y-68480000D02*
X111161301Y-69948699D01*
M02*
