G04 #@! TF.GenerationSoftware,KiCad,Pcbnew,(5.1.5-0-10_14)*
G04 #@! TF.CreationDate,2021-06-11T17:19:42+03:00*
G04 #@! TF.ProjectId,Wyse-converter,57797365-2d63-46f6-9e76-65727465722e,rev?*
G04 #@! TF.SameCoordinates,Original*
G04 #@! TF.FileFunction,Soldermask,Top*
G04 #@! TF.FilePolarity,Negative*
%FSLAX46Y46*%
G04 Gerber Fmt 4.6, Leading zero omitted, Abs format (unit mm)*
G04 Created by KiCad (PCBNEW (5.1.5-0-10_14)) date 2021-06-11 17:19:42*
%MOMM*%
%LPD*%
G04 APERTURE LIST*
%ADD10C,0.100000*%
G04 APERTURE END LIST*
D10*
G36*
X93708254Y-97177818D02*
G01*
X94081511Y-97332426D01*
X94081513Y-97332427D01*
X94417436Y-97556884D01*
X94703116Y-97842564D01*
X94920158Y-98167389D01*
X94927574Y-98178489D01*
X95082182Y-98551746D01*
X95161000Y-98947993D01*
X95161000Y-99352007D01*
X95082182Y-99748254D01*
X94927574Y-100121511D01*
X94927573Y-100121513D01*
X94703116Y-100457436D01*
X94417436Y-100743116D01*
X94081513Y-100967573D01*
X94081512Y-100967574D01*
X94081511Y-100967574D01*
X93708254Y-101122182D01*
X93312007Y-101201000D01*
X92907993Y-101201000D01*
X92511746Y-101122182D01*
X92138489Y-100967574D01*
X92138488Y-100967574D01*
X92138487Y-100967573D01*
X91802564Y-100743116D01*
X91516884Y-100457436D01*
X91292427Y-100121513D01*
X91292426Y-100121511D01*
X91137818Y-99748254D01*
X91059000Y-99352007D01*
X91059000Y-98947993D01*
X91137818Y-98551746D01*
X91292426Y-98178489D01*
X91299843Y-98167389D01*
X91516884Y-97842564D01*
X91802564Y-97556884D01*
X92138487Y-97332427D01*
X92138489Y-97332426D01*
X92511746Y-97177818D01*
X92907993Y-97099000D01*
X93312007Y-97099000D01*
X93708254Y-97177818D01*
G37*
G36*
X112478254Y-97147818D02*
G01*
X112791457Y-97277551D01*
X112851513Y-97302427D01*
X112896411Y-97332427D01*
X113187436Y-97526884D01*
X113473116Y-97812564D01*
X113697574Y-98148489D01*
X113852182Y-98521746D01*
X113931000Y-98917993D01*
X113931000Y-99322007D01*
X113852182Y-99718254D01*
X113743349Y-99981000D01*
X113697573Y-100091513D01*
X113473116Y-100427436D01*
X113187436Y-100713116D01*
X112851513Y-100937573D01*
X112851512Y-100937574D01*
X112851511Y-100937574D01*
X112478254Y-101092182D01*
X112082007Y-101171000D01*
X111677993Y-101171000D01*
X111281746Y-101092182D01*
X110908489Y-100937574D01*
X110908488Y-100937574D01*
X110908487Y-100937573D01*
X110572564Y-100713116D01*
X110286884Y-100427436D01*
X110062427Y-100091513D01*
X110016651Y-99981000D01*
X109907818Y-99718254D01*
X109829000Y-99322007D01*
X109829000Y-98917993D01*
X109907818Y-98521746D01*
X110062426Y-98148489D01*
X110286884Y-97812564D01*
X110572564Y-97526884D01*
X110863589Y-97332427D01*
X110908487Y-97302427D01*
X110968543Y-97277551D01*
X111281746Y-97147818D01*
X111677993Y-97069000D01*
X112082007Y-97069000D01*
X112478254Y-97147818D01*
G37*
G36*
X99055256Y-96721298D02*
G01*
X99161579Y-96742447D01*
X99462042Y-96866903D01*
X99732451Y-97047585D01*
X99962415Y-97277549D01*
X100143097Y-97547958D01*
X100252701Y-97812564D01*
X100267553Y-97848422D01*
X100331000Y-98167389D01*
X100331000Y-98492611D01*
X100319237Y-98551745D01*
X100267553Y-98811579D01*
X100143097Y-99112042D01*
X99962415Y-99382451D01*
X99732451Y-99612415D01*
X99462042Y-99793097D01*
X99161579Y-99917553D01*
X99055256Y-99938702D01*
X98842611Y-99981000D01*
X98517389Y-99981000D01*
X98304744Y-99938702D01*
X98198421Y-99917553D01*
X97897958Y-99793097D01*
X97627549Y-99612415D01*
X97397585Y-99382451D01*
X97216903Y-99112042D01*
X97092447Y-98811579D01*
X97040763Y-98551745D01*
X97029000Y-98492611D01*
X97029000Y-98167389D01*
X97092447Y-97848422D01*
X97107300Y-97812564D01*
X97216903Y-97547958D01*
X97397585Y-97277549D01*
X97627549Y-97047585D01*
X97897958Y-96866903D01*
X98198421Y-96742447D01*
X98304744Y-96721298D01*
X98517389Y-96679000D01*
X98842611Y-96679000D01*
X99055256Y-96721298D01*
G37*
G36*
X106675256Y-96721298D02*
G01*
X106781579Y-96742447D01*
X107082042Y-96866903D01*
X107352451Y-97047585D01*
X107582415Y-97277549D01*
X107763097Y-97547958D01*
X107872701Y-97812564D01*
X107887553Y-97848422D01*
X107951000Y-98167389D01*
X107951000Y-98492611D01*
X107939237Y-98551745D01*
X107887553Y-98811579D01*
X107763097Y-99112042D01*
X107582415Y-99382451D01*
X107352451Y-99612415D01*
X107082042Y-99793097D01*
X106781579Y-99917553D01*
X106675256Y-99938702D01*
X106462611Y-99981000D01*
X106137389Y-99981000D01*
X105924744Y-99938702D01*
X105818421Y-99917553D01*
X105517958Y-99793097D01*
X105247549Y-99612415D01*
X105017585Y-99382451D01*
X104836903Y-99112042D01*
X104712447Y-98811579D01*
X104660763Y-98551745D01*
X104649000Y-98492611D01*
X104649000Y-98167389D01*
X104712447Y-97848422D01*
X104727300Y-97812564D01*
X104836903Y-97547958D01*
X105017585Y-97277549D01*
X105247549Y-97047585D01*
X105517958Y-96866903D01*
X105818421Y-96742447D01*
X105924744Y-96721298D01*
X106137389Y-96679000D01*
X106462611Y-96679000D01*
X106675256Y-96721298D01*
G37*
G36*
X103363642Y-91209781D02*
G01*
X103509414Y-91270162D01*
X103509416Y-91270163D01*
X103640608Y-91357822D01*
X103752178Y-91469392D01*
X103839837Y-91600584D01*
X103839838Y-91600586D01*
X103900219Y-91746358D01*
X103931000Y-91901107D01*
X103931000Y-92058893D01*
X103900219Y-92213642D01*
X103839838Y-92359414D01*
X103839837Y-92359416D01*
X103752178Y-92490608D01*
X103640608Y-92602178D01*
X103509416Y-92689837D01*
X103509415Y-92689838D01*
X103509414Y-92689838D01*
X103363642Y-92750219D01*
X103208893Y-92781000D01*
X103051107Y-92781000D01*
X102896358Y-92750219D01*
X102750586Y-92689838D01*
X102750585Y-92689838D01*
X102750584Y-92689837D01*
X102619392Y-92602178D01*
X102507822Y-92490608D01*
X102420163Y-92359416D01*
X102420162Y-92359414D01*
X102359781Y-92213642D01*
X102329000Y-92058893D01*
X102329000Y-91901107D01*
X102359781Y-91746358D01*
X102420162Y-91600586D01*
X102420163Y-91600584D01*
X102507822Y-91469392D01*
X102619392Y-91357822D01*
X102750584Y-91270163D01*
X102750586Y-91270162D01*
X102896358Y-91209781D01*
X103051107Y-91179000D01*
X103208893Y-91179000D01*
X103363642Y-91209781D01*
G37*
G36*
X100823642Y-91209781D02*
G01*
X100969414Y-91270162D01*
X100969416Y-91270163D01*
X101100608Y-91357822D01*
X101212178Y-91469392D01*
X101299837Y-91600584D01*
X101299838Y-91600586D01*
X101360219Y-91746358D01*
X101391000Y-91901107D01*
X101391000Y-92058893D01*
X101360219Y-92213642D01*
X101299838Y-92359414D01*
X101299837Y-92359416D01*
X101212178Y-92490608D01*
X101100608Y-92602178D01*
X100969416Y-92689837D01*
X100969415Y-92689838D01*
X100969414Y-92689838D01*
X100823642Y-92750219D01*
X100668893Y-92781000D01*
X100511107Y-92781000D01*
X100356358Y-92750219D01*
X100210586Y-92689838D01*
X100210585Y-92689838D01*
X100210584Y-92689837D01*
X100079392Y-92602178D01*
X99967822Y-92490608D01*
X99880163Y-92359416D01*
X99880162Y-92359414D01*
X99819781Y-92213642D01*
X99789000Y-92058893D01*
X99789000Y-91901107D01*
X99819781Y-91746358D01*
X99880162Y-91600586D01*
X99880163Y-91600584D01*
X99967822Y-91469392D01*
X100079392Y-91357822D01*
X100210584Y-91270163D01*
X100210586Y-91270162D01*
X100356358Y-91209781D01*
X100511107Y-91179000D01*
X100668893Y-91179000D01*
X100823642Y-91209781D01*
G37*
G36*
X104633642Y-88669781D02*
G01*
X104779414Y-88730162D01*
X104779416Y-88730163D01*
X104910608Y-88817822D01*
X105022178Y-88929392D01*
X105109837Y-89060584D01*
X105109838Y-89060586D01*
X105170219Y-89206358D01*
X105201000Y-89361107D01*
X105201000Y-89518893D01*
X105170219Y-89673642D01*
X105109838Y-89819414D01*
X105109837Y-89819416D01*
X105022178Y-89950608D01*
X104910608Y-90062178D01*
X104779416Y-90149837D01*
X104779415Y-90149838D01*
X104779414Y-90149838D01*
X104633642Y-90210219D01*
X104478893Y-90241000D01*
X104321107Y-90241000D01*
X104166358Y-90210219D01*
X104020586Y-90149838D01*
X104020585Y-90149838D01*
X104020584Y-90149837D01*
X103889392Y-90062178D01*
X103777822Y-89950608D01*
X103690163Y-89819416D01*
X103690162Y-89819414D01*
X103629781Y-89673642D01*
X103599000Y-89518893D01*
X103599000Y-89361107D01*
X103629781Y-89206358D01*
X103690162Y-89060586D01*
X103690163Y-89060584D01*
X103777822Y-88929392D01*
X103889392Y-88817822D01*
X104020584Y-88730163D01*
X104020586Y-88730162D01*
X104166358Y-88669781D01*
X104321107Y-88639000D01*
X104478893Y-88639000D01*
X104633642Y-88669781D01*
G37*
G36*
X102093642Y-88669781D02*
G01*
X102239414Y-88730162D01*
X102239416Y-88730163D01*
X102370608Y-88817822D01*
X102482178Y-88929392D01*
X102569837Y-89060584D01*
X102569838Y-89060586D01*
X102630219Y-89206358D01*
X102661000Y-89361107D01*
X102661000Y-89518893D01*
X102630219Y-89673642D01*
X102569838Y-89819414D01*
X102569837Y-89819416D01*
X102482178Y-89950608D01*
X102370608Y-90062178D01*
X102239416Y-90149837D01*
X102239415Y-90149838D01*
X102239414Y-90149838D01*
X102093642Y-90210219D01*
X101938893Y-90241000D01*
X101781107Y-90241000D01*
X101626358Y-90210219D01*
X101480586Y-90149838D01*
X101480585Y-90149838D01*
X101480584Y-90149837D01*
X101349392Y-90062178D01*
X101237822Y-89950608D01*
X101150163Y-89819416D01*
X101150162Y-89819414D01*
X101089781Y-89673642D01*
X101059000Y-89518893D01*
X101059000Y-89361107D01*
X101089781Y-89206358D01*
X101150162Y-89060586D01*
X101150163Y-89060584D01*
X101237822Y-88929392D01*
X101349392Y-88817822D01*
X101480584Y-88730163D01*
X101480586Y-88730162D01*
X101626358Y-88669781D01*
X101781107Y-88639000D01*
X101938893Y-88639000D01*
X102093642Y-88669781D01*
G37*
G36*
X112900483Y-85368335D02*
G01*
X113069240Y-85438236D01*
X113221118Y-85539718D01*
X113350282Y-85668882D01*
X113451764Y-85820760D01*
X113521665Y-85989517D01*
X113557300Y-86168668D01*
X113557300Y-86351332D01*
X113521665Y-86530483D01*
X113451764Y-86699240D01*
X113350282Y-86851118D01*
X113221118Y-86980282D01*
X113069240Y-87081764D01*
X112900483Y-87151665D01*
X112721332Y-87187300D01*
X112538668Y-87187300D01*
X112359517Y-87151665D01*
X112190760Y-87081764D01*
X112038882Y-86980282D01*
X111909718Y-86851118D01*
X111808236Y-86699240D01*
X111738335Y-86530483D01*
X111702700Y-86351332D01*
X111702700Y-86168668D01*
X111738335Y-85989517D01*
X111808236Y-85820760D01*
X111909718Y-85668882D01*
X112038882Y-85539718D01*
X112190760Y-85438236D01*
X112359517Y-85368335D01*
X112538668Y-85332700D01*
X112721332Y-85332700D01*
X112900483Y-85368335D01*
G37*
G36*
X92660483Y-85368335D02*
G01*
X92829240Y-85438236D01*
X92981118Y-85539718D01*
X93110282Y-85668882D01*
X93211764Y-85820760D01*
X93281665Y-85989517D01*
X93317300Y-86168668D01*
X93317300Y-86351332D01*
X93281665Y-86530483D01*
X93211764Y-86699240D01*
X93110282Y-86851118D01*
X92981118Y-86980282D01*
X92829240Y-87081764D01*
X92660483Y-87151665D01*
X92481332Y-87187300D01*
X92298668Y-87187300D01*
X92119517Y-87151665D01*
X91950760Y-87081764D01*
X91798882Y-86980282D01*
X91669718Y-86851118D01*
X91568236Y-86699240D01*
X91498335Y-86530483D01*
X91462700Y-86351332D01*
X91462700Y-86168668D01*
X91498335Y-85989517D01*
X91568236Y-85820760D01*
X91669718Y-85668882D01*
X91798882Y-85539718D01*
X91950760Y-85438236D01*
X92119517Y-85368335D01*
X92298668Y-85332700D01*
X92481332Y-85332700D01*
X92660483Y-85368335D01*
G37*
G36*
X112900483Y-82828335D02*
G01*
X113069240Y-82898236D01*
X113221118Y-82999718D01*
X113350282Y-83128882D01*
X113451764Y-83280760D01*
X113521665Y-83449517D01*
X113557300Y-83628668D01*
X113557300Y-83811332D01*
X113521665Y-83990483D01*
X113451764Y-84159240D01*
X113350282Y-84311118D01*
X113221118Y-84440282D01*
X113069240Y-84541764D01*
X112900483Y-84611665D01*
X112721332Y-84647300D01*
X112538668Y-84647300D01*
X112359517Y-84611665D01*
X112190760Y-84541764D01*
X112038882Y-84440282D01*
X111909718Y-84311118D01*
X111808236Y-84159240D01*
X111738335Y-83990483D01*
X111702700Y-83811332D01*
X111702700Y-83628668D01*
X111738335Y-83449517D01*
X111808236Y-83280760D01*
X111909718Y-83128882D01*
X112038882Y-82999718D01*
X112190760Y-82898236D01*
X112359517Y-82828335D01*
X112538668Y-82792700D01*
X112721332Y-82792700D01*
X112900483Y-82828335D01*
G37*
G36*
X92660483Y-82828335D02*
G01*
X92829240Y-82898236D01*
X92981118Y-82999718D01*
X93110282Y-83128882D01*
X93211764Y-83280760D01*
X93281665Y-83449517D01*
X93317300Y-83628668D01*
X93317300Y-83811332D01*
X93281665Y-83990483D01*
X93211764Y-84159240D01*
X93110282Y-84311118D01*
X92981118Y-84440282D01*
X92829240Y-84541764D01*
X92660483Y-84611665D01*
X92481332Y-84647300D01*
X92298668Y-84647300D01*
X92119517Y-84611665D01*
X91950760Y-84541764D01*
X91798882Y-84440282D01*
X91669718Y-84311118D01*
X91568236Y-84159240D01*
X91498335Y-83990483D01*
X91462700Y-83811332D01*
X91462700Y-83628668D01*
X91498335Y-83449517D01*
X91568236Y-83280760D01*
X91669718Y-83128882D01*
X91798882Y-82999718D01*
X91950760Y-82898236D01*
X92119517Y-82828335D01*
X92298668Y-82792700D01*
X92481332Y-82792700D01*
X92660483Y-82828335D01*
G37*
G36*
X112900483Y-80288335D02*
G01*
X113069240Y-80358236D01*
X113221118Y-80459718D01*
X113350282Y-80588882D01*
X113451764Y-80740760D01*
X113521665Y-80909517D01*
X113557300Y-81088668D01*
X113557300Y-81271332D01*
X113521665Y-81450483D01*
X113451764Y-81619240D01*
X113350282Y-81771118D01*
X113221118Y-81900282D01*
X113069240Y-82001764D01*
X112900483Y-82071665D01*
X112721332Y-82107300D01*
X112538668Y-82107300D01*
X112359517Y-82071665D01*
X112190760Y-82001764D01*
X112038882Y-81900282D01*
X111909718Y-81771118D01*
X111808236Y-81619240D01*
X111738335Y-81450483D01*
X111702700Y-81271332D01*
X111702700Y-81088668D01*
X111738335Y-80909517D01*
X111808236Y-80740760D01*
X111909718Y-80588882D01*
X112038882Y-80459718D01*
X112190760Y-80358236D01*
X112359517Y-80288335D01*
X112538668Y-80252700D01*
X112721332Y-80252700D01*
X112900483Y-80288335D01*
G37*
G36*
X92660483Y-80288335D02*
G01*
X92829240Y-80358236D01*
X92981118Y-80459718D01*
X93110282Y-80588882D01*
X93211764Y-80740760D01*
X93281665Y-80909517D01*
X93317300Y-81088668D01*
X93317300Y-81271332D01*
X93281665Y-81450483D01*
X93211764Y-81619240D01*
X93110282Y-81771118D01*
X92981118Y-81900282D01*
X92829240Y-82001764D01*
X92660483Y-82071665D01*
X92481332Y-82107300D01*
X92298668Y-82107300D01*
X92119517Y-82071665D01*
X91950760Y-82001764D01*
X91798882Y-81900282D01*
X91669718Y-81771118D01*
X91568236Y-81619240D01*
X91498335Y-81450483D01*
X91462700Y-81271332D01*
X91462700Y-81088668D01*
X91498335Y-80909517D01*
X91568236Y-80740760D01*
X91669718Y-80588882D01*
X91798882Y-80459718D01*
X91950760Y-80358236D01*
X92119517Y-80288335D01*
X92298668Y-80252700D01*
X92481332Y-80252700D01*
X92660483Y-80288335D01*
G37*
G36*
X110230483Y-79178335D02*
G01*
X110399240Y-79248236D01*
X110551118Y-79349718D01*
X110680282Y-79478882D01*
X110781764Y-79630760D01*
X110851665Y-79799517D01*
X110887300Y-79978668D01*
X110887300Y-80161332D01*
X110851665Y-80340483D01*
X110781764Y-80509240D01*
X110680282Y-80661118D01*
X110551118Y-80790282D01*
X110399240Y-80891764D01*
X110230483Y-80961665D01*
X110051332Y-80997300D01*
X109868668Y-80997300D01*
X109689517Y-80961665D01*
X109520760Y-80891764D01*
X109368882Y-80790282D01*
X109239718Y-80661118D01*
X109138236Y-80509240D01*
X109068335Y-80340483D01*
X109032700Y-80161332D01*
X109032700Y-79978668D01*
X109068335Y-79799517D01*
X109138236Y-79630760D01*
X109239718Y-79478882D01*
X109368882Y-79349718D01*
X109520760Y-79248236D01*
X109689517Y-79178335D01*
X109868668Y-79142700D01*
X110051332Y-79142700D01*
X110230483Y-79178335D01*
G37*
G36*
X94990483Y-79178335D02*
G01*
X95159240Y-79248236D01*
X95311118Y-79349718D01*
X95440282Y-79478882D01*
X95541764Y-79630760D01*
X95611665Y-79799517D01*
X95647300Y-79978668D01*
X95647300Y-80161332D01*
X95611665Y-80340483D01*
X95541764Y-80509240D01*
X95440282Y-80661118D01*
X95311118Y-80790282D01*
X95159240Y-80891764D01*
X94990483Y-80961665D01*
X94811332Y-80997300D01*
X94628668Y-80997300D01*
X94449517Y-80961665D01*
X94280760Y-80891764D01*
X94128882Y-80790282D01*
X93999718Y-80661118D01*
X93898236Y-80509240D01*
X93828335Y-80340483D01*
X93792700Y-80161332D01*
X93792700Y-79978668D01*
X93828335Y-79799517D01*
X93898236Y-79630760D01*
X93999718Y-79478882D01*
X94128882Y-79349718D01*
X94280760Y-79248236D01*
X94449517Y-79178335D01*
X94628668Y-79142700D01*
X94811332Y-79142700D01*
X94990483Y-79178335D01*
G37*
G36*
X92660483Y-77748335D02*
G01*
X92829240Y-77818236D01*
X92981118Y-77919718D01*
X93110282Y-78048882D01*
X93211764Y-78200760D01*
X93281665Y-78369517D01*
X93317300Y-78548668D01*
X93317300Y-78731332D01*
X93281665Y-78910483D01*
X93211764Y-79079240D01*
X93110282Y-79231118D01*
X92981118Y-79360282D01*
X92829240Y-79461764D01*
X92660483Y-79531665D01*
X92481332Y-79567300D01*
X92298668Y-79567300D01*
X92119517Y-79531665D01*
X91950760Y-79461764D01*
X91798882Y-79360282D01*
X91669718Y-79231118D01*
X91568236Y-79079240D01*
X91498335Y-78910483D01*
X91462700Y-78731332D01*
X91462700Y-78548668D01*
X91498335Y-78369517D01*
X91568236Y-78200760D01*
X91669718Y-78048882D01*
X91798882Y-77919718D01*
X91950760Y-77818236D01*
X92119517Y-77748335D01*
X92298668Y-77712700D01*
X92481332Y-77712700D01*
X92660483Y-77748335D01*
G37*
G36*
X112900483Y-77748335D02*
G01*
X113069240Y-77818236D01*
X113221118Y-77919718D01*
X113350282Y-78048882D01*
X113451764Y-78200760D01*
X113521665Y-78369517D01*
X113557300Y-78548668D01*
X113557300Y-78731332D01*
X113521665Y-78910483D01*
X113451764Y-79079240D01*
X113350282Y-79231118D01*
X113221118Y-79360282D01*
X113069240Y-79461764D01*
X112900483Y-79531665D01*
X112721332Y-79567300D01*
X112538668Y-79567300D01*
X112359517Y-79531665D01*
X112190760Y-79461764D01*
X112038882Y-79360282D01*
X111909718Y-79231118D01*
X111808236Y-79079240D01*
X111738335Y-78910483D01*
X111702700Y-78731332D01*
X111702700Y-78548668D01*
X111738335Y-78369517D01*
X111808236Y-78200760D01*
X111909718Y-78048882D01*
X112038882Y-77919718D01*
X112190760Y-77818236D01*
X112359517Y-77748335D01*
X112538668Y-77712700D01*
X112721332Y-77712700D01*
X112900483Y-77748335D01*
G37*
G36*
X110230483Y-76638335D02*
G01*
X110399240Y-76708236D01*
X110551118Y-76809718D01*
X110680282Y-76938882D01*
X110781764Y-77090760D01*
X110851665Y-77259517D01*
X110887300Y-77438668D01*
X110887300Y-77621332D01*
X110851665Y-77800483D01*
X110781764Y-77969240D01*
X110680282Y-78121118D01*
X110551118Y-78250282D01*
X110399240Y-78351764D01*
X110230483Y-78421665D01*
X110051332Y-78457300D01*
X109868668Y-78457300D01*
X109689517Y-78421665D01*
X109520760Y-78351764D01*
X109368882Y-78250282D01*
X109239718Y-78121118D01*
X109138236Y-77969240D01*
X109068335Y-77800483D01*
X109032700Y-77621332D01*
X109032700Y-77438668D01*
X109068335Y-77259517D01*
X109138236Y-77090760D01*
X109239718Y-76938882D01*
X109368882Y-76809718D01*
X109520760Y-76708236D01*
X109689517Y-76638335D01*
X109868668Y-76602700D01*
X110051332Y-76602700D01*
X110230483Y-76638335D01*
G37*
G36*
X94990483Y-76638335D02*
G01*
X95159240Y-76708236D01*
X95311118Y-76809718D01*
X95440282Y-76938882D01*
X95541764Y-77090760D01*
X95611665Y-77259517D01*
X95647300Y-77438668D01*
X95647300Y-77621332D01*
X95611665Y-77800483D01*
X95541764Y-77969240D01*
X95440282Y-78121118D01*
X95311118Y-78250282D01*
X95159240Y-78351764D01*
X94990483Y-78421665D01*
X94811332Y-78457300D01*
X94628668Y-78457300D01*
X94449517Y-78421665D01*
X94280760Y-78351764D01*
X94128882Y-78250282D01*
X93999718Y-78121118D01*
X93898236Y-77969240D01*
X93828335Y-77800483D01*
X93792700Y-77621332D01*
X93792700Y-77438668D01*
X93828335Y-77259517D01*
X93898236Y-77090760D01*
X93999718Y-76938882D01*
X94128882Y-76809718D01*
X94280760Y-76708236D01*
X94449517Y-76638335D01*
X94628668Y-76602700D01*
X94811332Y-76602700D01*
X94990483Y-76638335D01*
G37*
G36*
X112900483Y-75208335D02*
G01*
X113069240Y-75278236D01*
X113221118Y-75379718D01*
X113350282Y-75508882D01*
X113451764Y-75660760D01*
X113521665Y-75829517D01*
X113557300Y-76008668D01*
X113557300Y-76191332D01*
X113521665Y-76370483D01*
X113451764Y-76539240D01*
X113350282Y-76691118D01*
X113221118Y-76820282D01*
X113069240Y-76921764D01*
X112900483Y-76991665D01*
X112721332Y-77027300D01*
X112538668Y-77027300D01*
X112359517Y-76991665D01*
X112190760Y-76921764D01*
X112038882Y-76820282D01*
X111909718Y-76691118D01*
X111808236Y-76539240D01*
X111738335Y-76370483D01*
X111702700Y-76191332D01*
X111702700Y-76008668D01*
X111738335Y-75829517D01*
X111808236Y-75660760D01*
X111909718Y-75508882D01*
X112038882Y-75379718D01*
X112190760Y-75278236D01*
X112359517Y-75208335D01*
X112538668Y-75172700D01*
X112721332Y-75172700D01*
X112900483Y-75208335D01*
G37*
G36*
X92660483Y-75208335D02*
G01*
X92829240Y-75278236D01*
X92981118Y-75379718D01*
X93110282Y-75508882D01*
X93211764Y-75660760D01*
X93281665Y-75829517D01*
X93317300Y-76008668D01*
X93317300Y-76191332D01*
X93281665Y-76370483D01*
X93211764Y-76539240D01*
X93110282Y-76691118D01*
X92981118Y-76820282D01*
X92829240Y-76921764D01*
X92660483Y-76991665D01*
X92481332Y-77027300D01*
X92298668Y-77027300D01*
X92119517Y-76991665D01*
X91950760Y-76921764D01*
X91798882Y-76820282D01*
X91669718Y-76691118D01*
X91568236Y-76539240D01*
X91498335Y-76370483D01*
X91462700Y-76191332D01*
X91462700Y-76008668D01*
X91498335Y-75829517D01*
X91568236Y-75660760D01*
X91669718Y-75508882D01*
X91798882Y-75379718D01*
X91950760Y-75278236D01*
X92119517Y-75208335D01*
X92298668Y-75172700D01*
X92481332Y-75172700D01*
X92660483Y-75208335D01*
G37*
G36*
X110230483Y-74098335D02*
G01*
X110399240Y-74168236D01*
X110551118Y-74269718D01*
X110680282Y-74398882D01*
X110781764Y-74550760D01*
X110851665Y-74719517D01*
X110887300Y-74898668D01*
X110887300Y-75081332D01*
X110851665Y-75260483D01*
X110781764Y-75429240D01*
X110680282Y-75581118D01*
X110551118Y-75710282D01*
X110399240Y-75811764D01*
X110230483Y-75881665D01*
X110051332Y-75917300D01*
X109868668Y-75917300D01*
X109689517Y-75881665D01*
X109520760Y-75811764D01*
X109368882Y-75710282D01*
X109239718Y-75581118D01*
X109138236Y-75429240D01*
X109068335Y-75260483D01*
X109032700Y-75081332D01*
X109032700Y-74898668D01*
X109068335Y-74719517D01*
X109138236Y-74550760D01*
X109239718Y-74398882D01*
X109368882Y-74269718D01*
X109520760Y-74168236D01*
X109689517Y-74098335D01*
X109868668Y-74062700D01*
X110051332Y-74062700D01*
X110230483Y-74098335D01*
G37*
G36*
X94990483Y-74098335D02*
G01*
X95159240Y-74168236D01*
X95311118Y-74269718D01*
X95440282Y-74398882D01*
X95541764Y-74550760D01*
X95611665Y-74719517D01*
X95647300Y-74898668D01*
X95647300Y-75081332D01*
X95611665Y-75260483D01*
X95541764Y-75429240D01*
X95440282Y-75581118D01*
X95311118Y-75710282D01*
X95159240Y-75811764D01*
X94990483Y-75881665D01*
X94811332Y-75917300D01*
X94628668Y-75917300D01*
X94449517Y-75881665D01*
X94280760Y-75811764D01*
X94128882Y-75710282D01*
X93999718Y-75581118D01*
X93898236Y-75429240D01*
X93828335Y-75260483D01*
X93792700Y-75081332D01*
X93792700Y-74898668D01*
X93828335Y-74719517D01*
X93898236Y-74550760D01*
X93999718Y-74398882D01*
X94128882Y-74269718D01*
X94280760Y-74168236D01*
X94449517Y-74098335D01*
X94628668Y-74062700D01*
X94811332Y-74062700D01*
X94990483Y-74098335D01*
G37*
G36*
X92660483Y-72668335D02*
G01*
X92829240Y-72738236D01*
X92981118Y-72839718D01*
X93110282Y-72968882D01*
X93211764Y-73120760D01*
X93281665Y-73289517D01*
X93317300Y-73468668D01*
X93317300Y-73651332D01*
X93281665Y-73830483D01*
X93211764Y-73999240D01*
X93110282Y-74151118D01*
X92981118Y-74280282D01*
X92829240Y-74381764D01*
X92660483Y-74451665D01*
X92481332Y-74487300D01*
X92298668Y-74487300D01*
X92119517Y-74451665D01*
X91950760Y-74381764D01*
X91798882Y-74280282D01*
X91669718Y-74151118D01*
X91568236Y-73999240D01*
X91498335Y-73830483D01*
X91462700Y-73651332D01*
X91462700Y-73468668D01*
X91498335Y-73289517D01*
X91568236Y-73120760D01*
X91669718Y-72968882D01*
X91798882Y-72839718D01*
X91950760Y-72738236D01*
X92119517Y-72668335D01*
X92298668Y-72632700D01*
X92481332Y-72632700D01*
X92660483Y-72668335D01*
G37*
G36*
X112900483Y-72668335D02*
G01*
X113069240Y-72738236D01*
X113221118Y-72839718D01*
X113350282Y-72968882D01*
X113451764Y-73120760D01*
X113521665Y-73289517D01*
X113557300Y-73468668D01*
X113557300Y-73651332D01*
X113521665Y-73830483D01*
X113451764Y-73999240D01*
X113350282Y-74151118D01*
X113221118Y-74280282D01*
X113069240Y-74381764D01*
X112900483Y-74451665D01*
X112721332Y-74487300D01*
X112538668Y-74487300D01*
X112359517Y-74451665D01*
X112190760Y-74381764D01*
X112038882Y-74280282D01*
X111909718Y-74151118D01*
X111808236Y-73999240D01*
X111738335Y-73830483D01*
X111702700Y-73651332D01*
X111702700Y-73468668D01*
X111738335Y-73289517D01*
X111808236Y-73120760D01*
X111909718Y-72968882D01*
X112038882Y-72839718D01*
X112190760Y-72738236D01*
X112359517Y-72668335D01*
X112538668Y-72632700D01*
X112721332Y-72632700D01*
X112900483Y-72668335D01*
G37*
G36*
X94990483Y-71558335D02*
G01*
X95159240Y-71628236D01*
X95311118Y-71729718D01*
X95440282Y-71858882D01*
X95541764Y-72010760D01*
X95611665Y-72179517D01*
X95647300Y-72358668D01*
X95647300Y-72541332D01*
X95611665Y-72720483D01*
X95541764Y-72889240D01*
X95440282Y-73041118D01*
X95311118Y-73170282D01*
X95159240Y-73271764D01*
X94990483Y-73341665D01*
X94811332Y-73377300D01*
X94628668Y-73377300D01*
X94449517Y-73341665D01*
X94280760Y-73271764D01*
X94128882Y-73170282D01*
X93999718Y-73041118D01*
X93898236Y-72889240D01*
X93828335Y-72720483D01*
X93792700Y-72541332D01*
X93792700Y-72358668D01*
X93828335Y-72179517D01*
X93898236Y-72010760D01*
X93999718Y-71858882D01*
X94128882Y-71729718D01*
X94280760Y-71628236D01*
X94449517Y-71558335D01*
X94628668Y-71522700D01*
X94811332Y-71522700D01*
X94990483Y-71558335D01*
G37*
G36*
X110230483Y-71558335D02*
G01*
X110399240Y-71628236D01*
X110551118Y-71729718D01*
X110680282Y-71858882D01*
X110781764Y-72010760D01*
X110851665Y-72179517D01*
X110887300Y-72358668D01*
X110887300Y-72541332D01*
X110851665Y-72720483D01*
X110781764Y-72889240D01*
X110680282Y-73041118D01*
X110551118Y-73170282D01*
X110399240Y-73271764D01*
X110230483Y-73341665D01*
X110051332Y-73377300D01*
X109868668Y-73377300D01*
X109689517Y-73341665D01*
X109520760Y-73271764D01*
X109368882Y-73170282D01*
X109239718Y-73041118D01*
X109138236Y-72889240D01*
X109068335Y-72720483D01*
X109032700Y-72541332D01*
X109032700Y-72358668D01*
X109068335Y-72179517D01*
X109138236Y-72010760D01*
X109239718Y-71858882D01*
X109368882Y-71729718D01*
X109520760Y-71628236D01*
X109689517Y-71558335D01*
X109868668Y-71522700D01*
X110051332Y-71522700D01*
X110230483Y-71558335D01*
G37*
G36*
X92660483Y-70128335D02*
G01*
X92829240Y-70198236D01*
X92981118Y-70299718D01*
X93110282Y-70428882D01*
X93211764Y-70580760D01*
X93281665Y-70749517D01*
X93317300Y-70928668D01*
X93317300Y-71111332D01*
X93281665Y-71290483D01*
X93211764Y-71459240D01*
X93110282Y-71611118D01*
X92981118Y-71740282D01*
X92829240Y-71841764D01*
X92660483Y-71911665D01*
X92481332Y-71947300D01*
X92298668Y-71947300D01*
X92119517Y-71911665D01*
X91950760Y-71841764D01*
X91798882Y-71740282D01*
X91669718Y-71611118D01*
X91568236Y-71459240D01*
X91498335Y-71290483D01*
X91462700Y-71111332D01*
X91462700Y-70928668D01*
X91498335Y-70749517D01*
X91568236Y-70580760D01*
X91669718Y-70428882D01*
X91798882Y-70299718D01*
X91950760Y-70198236D01*
X92119517Y-70128335D01*
X92298668Y-70092700D01*
X92481332Y-70092700D01*
X92660483Y-70128335D01*
G37*
G36*
X112900483Y-70128335D02*
G01*
X113069240Y-70198236D01*
X113221118Y-70299718D01*
X113350282Y-70428882D01*
X113451764Y-70580760D01*
X113521665Y-70749517D01*
X113557300Y-70928668D01*
X113557300Y-71111332D01*
X113521665Y-71290483D01*
X113451764Y-71459240D01*
X113350282Y-71611118D01*
X113221118Y-71740282D01*
X113069240Y-71841764D01*
X112900483Y-71911665D01*
X112721332Y-71947300D01*
X112538668Y-71947300D01*
X112359517Y-71911665D01*
X112190760Y-71841764D01*
X112038882Y-71740282D01*
X111909718Y-71611118D01*
X111808236Y-71459240D01*
X111738335Y-71290483D01*
X111702700Y-71111332D01*
X111702700Y-70928668D01*
X111738335Y-70749517D01*
X111808236Y-70580760D01*
X111909718Y-70428882D01*
X112038882Y-70299718D01*
X112190760Y-70198236D01*
X112359517Y-70128335D01*
X112538668Y-70092700D01*
X112721332Y-70092700D01*
X112900483Y-70128335D01*
G37*
G36*
X94990483Y-69018335D02*
G01*
X95159240Y-69088236D01*
X95311118Y-69189718D01*
X95440282Y-69318882D01*
X95541764Y-69470760D01*
X95611665Y-69639517D01*
X95647300Y-69818668D01*
X95647300Y-70001332D01*
X95611665Y-70180483D01*
X95541764Y-70349240D01*
X95440282Y-70501118D01*
X95311118Y-70630282D01*
X95159240Y-70731764D01*
X94990483Y-70801665D01*
X94811332Y-70837300D01*
X94628668Y-70837300D01*
X94449517Y-70801665D01*
X94280760Y-70731764D01*
X94128882Y-70630282D01*
X93999718Y-70501118D01*
X93898236Y-70349240D01*
X93828335Y-70180483D01*
X93792700Y-70001332D01*
X93792700Y-69818668D01*
X93828335Y-69639517D01*
X93898236Y-69470760D01*
X93999718Y-69318882D01*
X94128882Y-69189718D01*
X94280760Y-69088236D01*
X94449517Y-69018335D01*
X94628668Y-68982700D01*
X94811332Y-68982700D01*
X94990483Y-69018335D01*
G37*
G36*
X110230483Y-69018335D02*
G01*
X110399240Y-69088236D01*
X110551118Y-69189718D01*
X110680282Y-69318882D01*
X110781764Y-69470760D01*
X110851665Y-69639517D01*
X110887300Y-69818668D01*
X110887300Y-70001332D01*
X110851665Y-70180483D01*
X110781764Y-70349240D01*
X110680282Y-70501118D01*
X110551118Y-70630282D01*
X110399240Y-70731764D01*
X110230483Y-70801665D01*
X110051332Y-70837300D01*
X109868668Y-70837300D01*
X109689517Y-70801665D01*
X109520760Y-70731764D01*
X109368882Y-70630282D01*
X109239718Y-70501118D01*
X109138236Y-70349240D01*
X109068335Y-70180483D01*
X109032700Y-70001332D01*
X109032700Y-69818668D01*
X109068335Y-69639517D01*
X109138236Y-69470760D01*
X109239718Y-69318882D01*
X109368882Y-69189718D01*
X109520760Y-69088236D01*
X109689517Y-69018335D01*
X109868668Y-68982700D01*
X110051332Y-68982700D01*
X110230483Y-69018335D01*
G37*
G36*
X112900483Y-67588335D02*
G01*
X113069240Y-67658236D01*
X113221118Y-67759718D01*
X113350282Y-67888882D01*
X113451764Y-68040760D01*
X113521665Y-68209517D01*
X113557300Y-68388668D01*
X113557300Y-68571332D01*
X113521665Y-68750483D01*
X113451764Y-68919240D01*
X113350282Y-69071118D01*
X113221118Y-69200282D01*
X113069240Y-69301764D01*
X112900483Y-69371665D01*
X112721332Y-69407300D01*
X112538668Y-69407300D01*
X112359517Y-69371665D01*
X112190760Y-69301764D01*
X112038882Y-69200282D01*
X111909718Y-69071118D01*
X111808236Y-68919240D01*
X111738335Y-68750483D01*
X111702700Y-68571332D01*
X111702700Y-68388668D01*
X111738335Y-68209517D01*
X111808236Y-68040760D01*
X111909718Y-67888882D01*
X112038882Y-67759718D01*
X112190760Y-67658236D01*
X112359517Y-67588335D01*
X112538668Y-67552700D01*
X112721332Y-67552700D01*
X112900483Y-67588335D01*
G37*
G36*
X92660483Y-67588335D02*
G01*
X92829240Y-67658236D01*
X92981118Y-67759718D01*
X93110282Y-67888882D01*
X93211764Y-68040760D01*
X93281665Y-68209517D01*
X93317300Y-68388668D01*
X93317300Y-68571332D01*
X93281665Y-68750483D01*
X93211764Y-68919240D01*
X93110282Y-69071118D01*
X92981118Y-69200282D01*
X92829240Y-69301764D01*
X92660483Y-69371665D01*
X92481332Y-69407300D01*
X92298668Y-69407300D01*
X92119517Y-69371665D01*
X91950760Y-69301764D01*
X91798882Y-69200282D01*
X91669718Y-69071118D01*
X91568236Y-68919240D01*
X91498335Y-68750483D01*
X91462700Y-68571332D01*
X91462700Y-68388668D01*
X91498335Y-68209517D01*
X91568236Y-68040760D01*
X91669718Y-67888882D01*
X91798882Y-67759718D01*
X91950760Y-67658236D01*
X92119517Y-67588335D01*
X92298668Y-67552700D01*
X92481332Y-67552700D01*
X92660483Y-67588335D01*
G37*
G36*
X94990483Y-66478335D02*
G01*
X95159240Y-66548236D01*
X95311118Y-66649718D01*
X95440282Y-66778882D01*
X95541764Y-66930760D01*
X95611665Y-67099517D01*
X95647300Y-67278668D01*
X95647300Y-67461332D01*
X95611665Y-67640483D01*
X95541764Y-67809240D01*
X95440282Y-67961118D01*
X95311118Y-68090282D01*
X95159240Y-68191764D01*
X94990483Y-68261665D01*
X94811332Y-68297300D01*
X94628668Y-68297300D01*
X94449517Y-68261665D01*
X94280760Y-68191764D01*
X94128882Y-68090282D01*
X93999718Y-67961118D01*
X93898236Y-67809240D01*
X93828335Y-67640483D01*
X93792700Y-67461332D01*
X93792700Y-67278668D01*
X93828335Y-67099517D01*
X93898236Y-66930760D01*
X93999718Y-66778882D01*
X94128882Y-66649718D01*
X94280760Y-66548236D01*
X94449517Y-66478335D01*
X94628668Y-66442700D01*
X94811332Y-66442700D01*
X94990483Y-66478335D01*
G37*
G36*
X110230483Y-66478335D02*
G01*
X110399240Y-66548236D01*
X110551118Y-66649718D01*
X110680282Y-66778882D01*
X110781764Y-66930760D01*
X110851665Y-67099517D01*
X110887300Y-67278668D01*
X110887300Y-67461332D01*
X110851665Y-67640483D01*
X110781764Y-67809240D01*
X110680282Y-67961118D01*
X110551118Y-68090282D01*
X110399240Y-68191764D01*
X110230483Y-68261665D01*
X110051332Y-68297300D01*
X109868668Y-68297300D01*
X109689517Y-68261665D01*
X109520760Y-68191764D01*
X109368882Y-68090282D01*
X109239718Y-67961118D01*
X109138236Y-67809240D01*
X109068335Y-67640483D01*
X109032700Y-67461332D01*
X109032700Y-67278668D01*
X109068335Y-67099517D01*
X109138236Y-66930760D01*
X109239718Y-66778882D01*
X109368882Y-66649718D01*
X109520760Y-66548236D01*
X109689517Y-66478335D01*
X109868668Y-66442700D01*
X110051332Y-66442700D01*
X110230483Y-66478335D01*
G37*
G36*
X112900483Y-65048335D02*
G01*
X113069240Y-65118236D01*
X113221118Y-65219718D01*
X113350282Y-65348882D01*
X113451764Y-65500760D01*
X113521665Y-65669517D01*
X113557300Y-65848668D01*
X113557300Y-66031332D01*
X113521665Y-66210483D01*
X113451764Y-66379240D01*
X113350282Y-66531118D01*
X113221118Y-66660282D01*
X113069240Y-66761764D01*
X112900483Y-66831665D01*
X112721332Y-66867300D01*
X112538668Y-66867300D01*
X112359517Y-66831665D01*
X112190760Y-66761764D01*
X112038882Y-66660282D01*
X111909718Y-66531118D01*
X111808236Y-66379240D01*
X111738335Y-66210483D01*
X111702700Y-66031332D01*
X111702700Y-65848668D01*
X111738335Y-65669517D01*
X111808236Y-65500760D01*
X111909718Y-65348882D01*
X112038882Y-65219718D01*
X112190760Y-65118236D01*
X112359517Y-65048335D01*
X112538668Y-65012700D01*
X112721332Y-65012700D01*
X112900483Y-65048335D01*
G37*
G36*
X92660483Y-65048335D02*
G01*
X92829240Y-65118236D01*
X92981118Y-65219718D01*
X93110282Y-65348882D01*
X93211764Y-65500760D01*
X93281665Y-65669517D01*
X93317300Y-65848668D01*
X93317300Y-66031332D01*
X93281665Y-66210483D01*
X93211764Y-66379240D01*
X93110282Y-66531118D01*
X92981118Y-66660282D01*
X92829240Y-66761764D01*
X92660483Y-66831665D01*
X92481332Y-66867300D01*
X92298668Y-66867300D01*
X92119517Y-66831665D01*
X91950760Y-66761764D01*
X91798882Y-66660282D01*
X91669718Y-66531118D01*
X91568236Y-66379240D01*
X91498335Y-66210483D01*
X91462700Y-66031332D01*
X91462700Y-65848668D01*
X91498335Y-65669517D01*
X91568236Y-65500760D01*
X91669718Y-65348882D01*
X91798882Y-65219718D01*
X91950760Y-65118236D01*
X92119517Y-65048335D01*
X92298668Y-65012700D01*
X92481332Y-65012700D01*
X92660483Y-65048335D01*
G37*
G36*
X94990483Y-63938335D02*
G01*
X95159240Y-64008236D01*
X95311118Y-64109718D01*
X95440282Y-64238882D01*
X95541764Y-64390760D01*
X95611665Y-64559517D01*
X95647300Y-64738668D01*
X95647300Y-64921332D01*
X95611665Y-65100483D01*
X95541764Y-65269240D01*
X95440282Y-65421118D01*
X95311118Y-65550282D01*
X95159240Y-65651764D01*
X94990483Y-65721665D01*
X94811332Y-65757300D01*
X94628668Y-65757300D01*
X94449517Y-65721665D01*
X94280760Y-65651764D01*
X94128882Y-65550282D01*
X93999718Y-65421118D01*
X93898236Y-65269240D01*
X93828335Y-65100483D01*
X93792700Y-64921332D01*
X93792700Y-64738668D01*
X93828335Y-64559517D01*
X93898236Y-64390760D01*
X93999718Y-64238882D01*
X94128882Y-64109718D01*
X94280760Y-64008236D01*
X94449517Y-63938335D01*
X94628668Y-63902700D01*
X94811332Y-63902700D01*
X94990483Y-63938335D01*
G37*
G36*
X110230483Y-63938335D02*
G01*
X110399240Y-64008236D01*
X110551118Y-64109718D01*
X110680282Y-64238882D01*
X110781764Y-64390760D01*
X110851665Y-64559517D01*
X110887300Y-64738668D01*
X110887300Y-64921332D01*
X110851665Y-65100483D01*
X110781764Y-65269240D01*
X110680282Y-65421118D01*
X110551118Y-65550282D01*
X110399240Y-65651764D01*
X110230483Y-65721665D01*
X110051332Y-65757300D01*
X109868668Y-65757300D01*
X109689517Y-65721665D01*
X109520760Y-65651764D01*
X109368882Y-65550282D01*
X109239718Y-65421118D01*
X109138236Y-65269240D01*
X109068335Y-65100483D01*
X109032700Y-64921332D01*
X109032700Y-64738668D01*
X109068335Y-64559517D01*
X109138236Y-64390760D01*
X109239718Y-64238882D01*
X109368882Y-64109718D01*
X109520760Y-64008236D01*
X109689517Y-63938335D01*
X109868668Y-63902700D01*
X110051332Y-63902700D01*
X110230483Y-63938335D01*
G37*
G36*
X92660483Y-62508335D02*
G01*
X92829240Y-62578236D01*
X92981118Y-62679718D01*
X93110282Y-62808882D01*
X93211764Y-62960760D01*
X93281665Y-63129517D01*
X93317300Y-63308668D01*
X93317300Y-63491332D01*
X93281665Y-63670483D01*
X93211764Y-63839240D01*
X93110282Y-63991118D01*
X92981118Y-64120282D01*
X92829240Y-64221764D01*
X92660483Y-64291665D01*
X92481332Y-64327300D01*
X92298668Y-64327300D01*
X92119517Y-64291665D01*
X91950760Y-64221764D01*
X91798882Y-64120282D01*
X91669718Y-63991118D01*
X91568236Y-63839240D01*
X91498335Y-63670483D01*
X91462700Y-63491332D01*
X91462700Y-63308668D01*
X91498335Y-63129517D01*
X91568236Y-62960760D01*
X91669718Y-62808882D01*
X91798882Y-62679718D01*
X91950760Y-62578236D01*
X92119517Y-62508335D01*
X92298668Y-62472700D01*
X92481332Y-62472700D01*
X92660483Y-62508335D01*
G37*
G36*
X112900483Y-62508335D02*
G01*
X113069240Y-62578236D01*
X113221118Y-62679718D01*
X113350282Y-62808882D01*
X113451764Y-62960760D01*
X113521665Y-63129517D01*
X113557300Y-63308668D01*
X113557300Y-63491332D01*
X113521665Y-63670483D01*
X113451764Y-63839240D01*
X113350282Y-63991118D01*
X113221118Y-64120282D01*
X113069240Y-64221764D01*
X112900483Y-64291665D01*
X112721332Y-64327300D01*
X112538668Y-64327300D01*
X112359517Y-64291665D01*
X112190760Y-64221764D01*
X112038882Y-64120282D01*
X111909718Y-63991118D01*
X111808236Y-63839240D01*
X111738335Y-63670483D01*
X111702700Y-63491332D01*
X111702700Y-63308668D01*
X111738335Y-63129517D01*
X111808236Y-62960760D01*
X111909718Y-62808882D01*
X112038882Y-62679718D01*
X112190760Y-62578236D01*
X112359517Y-62508335D01*
X112538668Y-62472700D01*
X112721332Y-62472700D01*
X112900483Y-62508335D01*
G37*
G36*
X94990483Y-61398335D02*
G01*
X95159240Y-61468236D01*
X95311118Y-61569718D01*
X95440282Y-61698882D01*
X95541764Y-61850760D01*
X95611665Y-62019517D01*
X95647300Y-62198668D01*
X95647300Y-62381332D01*
X95611665Y-62560483D01*
X95541764Y-62729240D01*
X95440282Y-62881118D01*
X95311118Y-63010282D01*
X95159240Y-63111764D01*
X94990483Y-63181665D01*
X94811332Y-63217300D01*
X94628668Y-63217300D01*
X94449517Y-63181665D01*
X94280760Y-63111764D01*
X94128882Y-63010282D01*
X93999718Y-62881118D01*
X93898236Y-62729240D01*
X93828335Y-62560483D01*
X93792700Y-62381332D01*
X93792700Y-62198668D01*
X93828335Y-62019517D01*
X93898236Y-61850760D01*
X93999718Y-61698882D01*
X94128882Y-61569718D01*
X94280760Y-61468236D01*
X94449517Y-61398335D01*
X94628668Y-61362700D01*
X94811332Y-61362700D01*
X94990483Y-61398335D01*
G37*
G36*
X110230483Y-61398335D02*
G01*
X110399240Y-61468236D01*
X110551118Y-61569718D01*
X110680282Y-61698882D01*
X110781764Y-61850760D01*
X110851665Y-62019517D01*
X110887300Y-62198668D01*
X110887300Y-62381332D01*
X110851665Y-62560483D01*
X110781764Y-62729240D01*
X110680282Y-62881118D01*
X110551118Y-63010282D01*
X110399240Y-63111764D01*
X110230483Y-63181665D01*
X110051332Y-63217300D01*
X109868668Y-63217300D01*
X109689517Y-63181665D01*
X109520760Y-63111764D01*
X109368882Y-63010282D01*
X109239718Y-62881118D01*
X109138236Y-62729240D01*
X109068335Y-62560483D01*
X109032700Y-62381332D01*
X109032700Y-62198668D01*
X109068335Y-62019517D01*
X109138236Y-61850760D01*
X109239718Y-61698882D01*
X109368882Y-61569718D01*
X109520760Y-61468236D01*
X109689517Y-61398335D01*
X109868668Y-61362700D01*
X110051332Y-61362700D01*
X110230483Y-61398335D01*
G37*
G36*
X112900483Y-59968335D02*
G01*
X113069240Y-60038236D01*
X113221118Y-60139718D01*
X113350282Y-60268882D01*
X113451764Y-60420760D01*
X113521665Y-60589517D01*
X113557300Y-60768668D01*
X113557300Y-60951332D01*
X113521665Y-61130483D01*
X113451764Y-61299240D01*
X113350282Y-61451118D01*
X113221118Y-61580282D01*
X113069240Y-61681764D01*
X112900483Y-61751665D01*
X112721332Y-61787300D01*
X112538668Y-61787300D01*
X112359517Y-61751665D01*
X112190760Y-61681764D01*
X112038882Y-61580282D01*
X111909718Y-61451118D01*
X111808236Y-61299240D01*
X111738335Y-61130483D01*
X111702700Y-60951332D01*
X111702700Y-60768668D01*
X111738335Y-60589517D01*
X111808236Y-60420760D01*
X111909718Y-60268882D01*
X112038882Y-60139718D01*
X112190760Y-60038236D01*
X112359517Y-59968335D01*
X112538668Y-59932700D01*
X112721332Y-59932700D01*
X112900483Y-59968335D01*
G37*
G36*
X92660483Y-59968335D02*
G01*
X92829240Y-60038236D01*
X92981118Y-60139718D01*
X93110282Y-60268882D01*
X93211764Y-60420760D01*
X93281665Y-60589517D01*
X93317300Y-60768668D01*
X93317300Y-60951332D01*
X93281665Y-61130483D01*
X93211764Y-61299240D01*
X93110282Y-61451118D01*
X92981118Y-61580282D01*
X92829240Y-61681764D01*
X92660483Y-61751665D01*
X92481332Y-61787300D01*
X92298668Y-61787300D01*
X92119517Y-61751665D01*
X91950760Y-61681764D01*
X91798882Y-61580282D01*
X91669718Y-61451118D01*
X91568236Y-61299240D01*
X91498335Y-61130483D01*
X91462700Y-60951332D01*
X91462700Y-60768668D01*
X91498335Y-60589517D01*
X91568236Y-60420760D01*
X91669718Y-60268882D01*
X91798882Y-60139718D01*
X91950760Y-60038236D01*
X92119517Y-59968335D01*
X92298668Y-59932700D01*
X92481332Y-59932700D01*
X92660483Y-59968335D01*
G37*
G36*
X110230483Y-58858335D02*
G01*
X110399240Y-58928236D01*
X110551118Y-59029718D01*
X110680282Y-59158882D01*
X110781764Y-59310760D01*
X110851665Y-59479517D01*
X110887300Y-59658668D01*
X110887300Y-59841332D01*
X110851665Y-60020483D01*
X110781764Y-60189240D01*
X110680282Y-60341118D01*
X110551118Y-60470282D01*
X110399240Y-60571764D01*
X110230483Y-60641665D01*
X110051332Y-60677300D01*
X109868668Y-60677300D01*
X109689517Y-60641665D01*
X109520760Y-60571764D01*
X109368882Y-60470282D01*
X109239718Y-60341118D01*
X109138236Y-60189240D01*
X109068335Y-60020483D01*
X109032700Y-59841332D01*
X109032700Y-59658668D01*
X109068335Y-59479517D01*
X109138236Y-59310760D01*
X109239718Y-59158882D01*
X109368882Y-59029718D01*
X109520760Y-58928236D01*
X109689517Y-58858335D01*
X109868668Y-58822700D01*
X110051332Y-58822700D01*
X110230483Y-58858335D01*
G37*
G36*
X94990483Y-58858335D02*
G01*
X95159240Y-58928236D01*
X95311118Y-59029718D01*
X95440282Y-59158882D01*
X95541764Y-59310760D01*
X95611665Y-59479517D01*
X95647300Y-59658668D01*
X95647300Y-59841332D01*
X95611665Y-60020483D01*
X95541764Y-60189240D01*
X95440282Y-60341118D01*
X95311118Y-60470282D01*
X95159240Y-60571764D01*
X94990483Y-60641665D01*
X94811332Y-60677300D01*
X94628668Y-60677300D01*
X94449517Y-60641665D01*
X94280760Y-60571764D01*
X94128882Y-60470282D01*
X93999718Y-60341118D01*
X93898236Y-60189240D01*
X93828335Y-60020483D01*
X93792700Y-59841332D01*
X93792700Y-59658668D01*
X93828335Y-59479517D01*
X93898236Y-59310760D01*
X93999718Y-59158882D01*
X94128882Y-59029718D01*
X94280760Y-58928236D01*
X94449517Y-58858335D01*
X94628668Y-58822700D01*
X94811332Y-58822700D01*
X94990483Y-58858335D01*
G37*
G36*
X92660483Y-57428335D02*
G01*
X92829240Y-57498236D01*
X92981118Y-57599718D01*
X93110282Y-57728882D01*
X93211764Y-57880760D01*
X93281665Y-58049517D01*
X93317300Y-58228668D01*
X93317300Y-58411332D01*
X93281665Y-58590483D01*
X93211764Y-58759240D01*
X93110282Y-58911118D01*
X92981118Y-59040282D01*
X92829240Y-59141764D01*
X92660483Y-59211665D01*
X92481332Y-59247300D01*
X92298668Y-59247300D01*
X92119517Y-59211665D01*
X91950760Y-59141764D01*
X91798882Y-59040282D01*
X91669718Y-58911118D01*
X91568236Y-58759240D01*
X91498335Y-58590483D01*
X91462700Y-58411332D01*
X91462700Y-58228668D01*
X91498335Y-58049517D01*
X91568236Y-57880760D01*
X91669718Y-57728882D01*
X91798882Y-57599718D01*
X91950760Y-57498236D01*
X92119517Y-57428335D01*
X92298668Y-57392700D01*
X92481332Y-57392700D01*
X92660483Y-57428335D01*
G37*
G36*
X113557300Y-59247300D02*
G01*
X111702700Y-59247300D01*
X111702700Y-57392700D01*
X113557300Y-57392700D01*
X113557300Y-59247300D01*
G37*
G36*
X110230483Y-56318335D02*
G01*
X110399240Y-56388236D01*
X110551118Y-56489718D01*
X110680282Y-56618882D01*
X110781764Y-56770760D01*
X110851665Y-56939517D01*
X110887300Y-57118668D01*
X110887300Y-57301332D01*
X110851665Y-57480483D01*
X110781764Y-57649240D01*
X110680282Y-57801118D01*
X110551118Y-57930282D01*
X110399240Y-58031764D01*
X110230483Y-58101665D01*
X110051332Y-58137300D01*
X109868668Y-58137300D01*
X109689517Y-58101665D01*
X109520760Y-58031764D01*
X109368882Y-57930282D01*
X109239718Y-57801118D01*
X109138236Y-57649240D01*
X109068335Y-57480483D01*
X109032700Y-57301332D01*
X109032700Y-57118668D01*
X109068335Y-56939517D01*
X109138236Y-56770760D01*
X109239718Y-56618882D01*
X109368882Y-56489718D01*
X109520760Y-56388236D01*
X109689517Y-56318335D01*
X109868668Y-56282700D01*
X110051332Y-56282700D01*
X110230483Y-56318335D01*
G37*
G36*
X94990483Y-56318335D02*
G01*
X95159240Y-56388236D01*
X95311118Y-56489718D01*
X95440282Y-56618882D01*
X95541764Y-56770760D01*
X95611665Y-56939517D01*
X95647300Y-57118668D01*
X95647300Y-57301332D01*
X95611665Y-57480483D01*
X95541764Y-57649240D01*
X95440282Y-57801118D01*
X95311118Y-57930282D01*
X95159240Y-58031764D01*
X94990483Y-58101665D01*
X94811332Y-58137300D01*
X94628668Y-58137300D01*
X94449517Y-58101665D01*
X94280760Y-58031764D01*
X94128882Y-57930282D01*
X93999718Y-57801118D01*
X93898236Y-57649240D01*
X93828335Y-57480483D01*
X93792700Y-57301332D01*
X93792700Y-57118668D01*
X93828335Y-56939517D01*
X93898236Y-56770760D01*
X93999718Y-56618882D01*
X94128882Y-56489718D01*
X94280760Y-56388236D01*
X94449517Y-56318335D01*
X94628668Y-56282700D01*
X94811332Y-56282700D01*
X94990483Y-56318335D01*
G37*
G36*
X110230483Y-53778335D02*
G01*
X110399240Y-53848236D01*
X110551118Y-53949718D01*
X110680282Y-54078882D01*
X110781764Y-54230760D01*
X110851665Y-54399517D01*
X110887300Y-54578668D01*
X110887300Y-54761332D01*
X110851665Y-54940483D01*
X110781764Y-55109240D01*
X110680282Y-55261118D01*
X110551118Y-55390282D01*
X110399240Y-55491764D01*
X110230483Y-55561665D01*
X110051332Y-55597300D01*
X109868668Y-55597300D01*
X109689517Y-55561665D01*
X109520760Y-55491764D01*
X109368882Y-55390282D01*
X109239718Y-55261118D01*
X109138236Y-55109240D01*
X109068335Y-54940483D01*
X109032700Y-54761332D01*
X109032700Y-54578668D01*
X109068335Y-54399517D01*
X109138236Y-54230760D01*
X109239718Y-54078882D01*
X109368882Y-53949718D01*
X109520760Y-53848236D01*
X109689517Y-53778335D01*
X109868668Y-53742700D01*
X110051332Y-53742700D01*
X110230483Y-53778335D01*
G37*
G36*
X94990483Y-53778335D02*
G01*
X95159240Y-53848236D01*
X95311118Y-53949718D01*
X95440282Y-54078882D01*
X95541764Y-54230760D01*
X95611665Y-54399517D01*
X95647300Y-54578668D01*
X95647300Y-54761332D01*
X95611665Y-54940483D01*
X95541764Y-55109240D01*
X95440282Y-55261118D01*
X95311118Y-55390282D01*
X95159240Y-55491764D01*
X94990483Y-55561665D01*
X94811332Y-55597300D01*
X94628668Y-55597300D01*
X94449517Y-55561665D01*
X94280760Y-55491764D01*
X94128882Y-55390282D01*
X93999718Y-55261118D01*
X93898236Y-55109240D01*
X93828335Y-54940483D01*
X93792700Y-54761332D01*
X93792700Y-54578668D01*
X93828335Y-54399517D01*
X93898236Y-54230760D01*
X93999718Y-54078882D01*
X94128882Y-53949718D01*
X94280760Y-53848236D01*
X94449517Y-53778335D01*
X94628668Y-53742700D01*
X94811332Y-53742700D01*
X94990483Y-53778335D01*
G37*
G36*
X110887300Y-53057300D02*
G01*
X109032700Y-53057300D01*
X109032700Y-51202700D01*
X110887300Y-51202700D01*
X110887300Y-53057300D01*
G37*
G36*
X94990483Y-51238335D02*
G01*
X95159240Y-51308236D01*
X95311118Y-51409718D01*
X95440282Y-51538882D01*
X95541764Y-51690760D01*
X95611665Y-51859517D01*
X95647300Y-52038668D01*
X95647300Y-52221332D01*
X95611665Y-52400483D01*
X95541764Y-52569240D01*
X95440282Y-52721118D01*
X95311118Y-52850282D01*
X95159240Y-52951764D01*
X94990483Y-53021665D01*
X94811332Y-53057300D01*
X94628668Y-53057300D01*
X94449517Y-53021665D01*
X94280760Y-52951764D01*
X94128882Y-52850282D01*
X93999718Y-52721118D01*
X93898236Y-52569240D01*
X93828335Y-52400483D01*
X93792700Y-52221332D01*
X93792700Y-52038668D01*
X93828335Y-51859517D01*
X93898236Y-51690760D01*
X93999718Y-51538882D01*
X94128882Y-51409718D01*
X94280760Y-51308236D01*
X94449517Y-51238335D01*
X94628668Y-51202700D01*
X94811332Y-51202700D01*
X94990483Y-51238335D01*
G37*
M02*
