G04 #@! TF.GenerationSoftware,KiCad,Pcbnew,(5.1.5-0-10_14)*
G04 #@! TF.CreationDate,2020-10-21T17:45:19+03:00*
G04 #@! TF.ProjectId,Wyse-converter,57797365-2d63-46f6-9e76-65727465722e,rev?*
G04 #@! TF.SameCoordinates,Original*
G04 #@! TF.FileFunction,Legend,Top*
G04 #@! TF.FilePolarity,Positive*
%FSLAX46Y46*%
G04 Gerber Fmt 4.6, Leading zero omitted, Abs format (unit mm)*
G04 Created by KiCad (PCBNEW (5.1.5-0-10_14)) date 2020-10-21 17:45:19*
%MOMM*%
%LPD*%
G04 APERTURE LIST*
%ADD10C,0.250000*%
%ADD11C,0.300000*%
%ADD12C,0.150000*%
%ADD13C,0.381000*%
G04 APERTURE END LIST*
D10*
X101592380Y-72183333D02*
X102401904Y-72183333D01*
X102497142Y-72135714D01*
X102544761Y-72088095D01*
X102592380Y-71992857D01*
X102592380Y-71802380D01*
X102544761Y-71707142D01*
X102497142Y-71659523D01*
X102401904Y-71611904D01*
X101592380Y-71611904D01*
X102544761Y-71183333D02*
X102592380Y-71040476D01*
X102592380Y-70802380D01*
X102544761Y-70707142D01*
X102497142Y-70659523D01*
X102401904Y-70611904D01*
X102306666Y-70611904D01*
X102211428Y-70659523D01*
X102163809Y-70707142D01*
X102116190Y-70802380D01*
X102068571Y-70992857D01*
X102020952Y-71088095D01*
X101973333Y-71135714D01*
X101878095Y-71183333D01*
X101782857Y-71183333D01*
X101687619Y-71135714D01*
X101640000Y-71088095D01*
X101592380Y-70992857D01*
X101592380Y-70754761D01*
X101640000Y-70611904D01*
X102068571Y-69850000D02*
X102116190Y-69707142D01*
X102163809Y-69659523D01*
X102259047Y-69611904D01*
X102401904Y-69611904D01*
X102497142Y-69659523D01*
X102544761Y-69707142D01*
X102592380Y-69802380D01*
X102592380Y-70183333D01*
X101592380Y-70183333D01*
X101592380Y-69850000D01*
X101640000Y-69754761D01*
X101687619Y-69707142D01*
X101782857Y-69659523D01*
X101878095Y-69659523D01*
X101973333Y-69707142D01*
X102020952Y-69754761D01*
X102068571Y-69850000D01*
X102068571Y-70183333D01*
X102068571Y-68088095D02*
X102068571Y-68421428D01*
X102592380Y-68421428D02*
X101592380Y-68421428D01*
X101592380Y-67945238D01*
X102306666Y-67611904D02*
X102306666Y-67135714D01*
X102592380Y-67707142D02*
X101592380Y-67373809D01*
X102592380Y-67040476D01*
X102497142Y-66135714D02*
X102544761Y-66183333D01*
X102592380Y-66326190D01*
X102592380Y-66421428D01*
X102544761Y-66564285D01*
X102449523Y-66659523D01*
X102354285Y-66707142D01*
X102163809Y-66754761D01*
X102020952Y-66754761D01*
X101830476Y-66707142D01*
X101735238Y-66659523D01*
X101640000Y-66564285D01*
X101592380Y-66421428D01*
X101592380Y-66326190D01*
X101640000Y-66183333D01*
X101687619Y-66135714D01*
X102592380Y-65707142D02*
X101592380Y-65707142D01*
X102592380Y-65230952D02*
X101592380Y-65230952D01*
X102592380Y-64659523D01*
X101592380Y-64659523D01*
X101640000Y-63659523D02*
X101592380Y-63754761D01*
X101592380Y-63897619D01*
X101640000Y-64040476D01*
X101735238Y-64135714D01*
X101830476Y-64183333D01*
X102020952Y-64230952D01*
X102163809Y-64230952D01*
X102354285Y-64183333D01*
X102449523Y-64135714D01*
X102544761Y-64040476D01*
X102592380Y-63897619D01*
X102592380Y-63802380D01*
X102544761Y-63659523D01*
X102497142Y-63611904D01*
X102163809Y-63611904D01*
X102163809Y-63802380D01*
X101592380Y-62564285D02*
X101592380Y-61992857D01*
X102592380Y-62278571D02*
X101592380Y-62278571D01*
X102592380Y-61659523D02*
X101592380Y-61659523D01*
X102068571Y-61659523D02*
X102068571Y-61088095D01*
X102592380Y-61088095D02*
X101592380Y-61088095D01*
X102592380Y-60611904D02*
X101592380Y-60611904D01*
X102544761Y-60183333D02*
X102592380Y-60040476D01*
X102592380Y-59802380D01*
X102544761Y-59707142D01*
X102497142Y-59659523D01*
X102401904Y-59611904D01*
X102306666Y-59611904D01*
X102211428Y-59659523D01*
X102163809Y-59707142D01*
X102116190Y-59802380D01*
X102068571Y-59992857D01*
X102020952Y-60088095D01*
X101973333Y-60135714D01*
X101878095Y-60183333D01*
X101782857Y-60183333D01*
X101687619Y-60135714D01*
X101640000Y-60088095D01*
X101592380Y-59992857D01*
X101592380Y-59754761D01*
X101640000Y-59611904D01*
X101592380Y-58564285D02*
X101592380Y-57992857D01*
X102592380Y-58278571D02*
X101592380Y-58278571D01*
X102068571Y-57659523D02*
X102068571Y-57326190D01*
X102592380Y-57183333D02*
X102592380Y-57659523D01*
X101592380Y-57659523D01*
X101592380Y-57183333D01*
X101592380Y-56850000D02*
X102592380Y-56183333D01*
X101592380Y-56183333D02*
X102592380Y-56850000D01*
X101592380Y-55945238D02*
X101592380Y-55373809D01*
X102592380Y-55659523D02*
X101592380Y-55659523D01*
D11*
X84631428Y-61608571D02*
X85345714Y-61108571D01*
X84631428Y-60751428D02*
X86131428Y-60751428D01*
X86131428Y-61322857D01*
X86060000Y-61465714D01*
X85988571Y-61537142D01*
X85845714Y-61608571D01*
X85631428Y-61608571D01*
X85488571Y-61537142D01*
X85417142Y-61465714D01*
X85345714Y-61322857D01*
X85345714Y-60751428D01*
X84702857Y-62180000D02*
X84631428Y-62394285D01*
X84631428Y-62751428D01*
X84702857Y-62894285D01*
X84774285Y-62965714D01*
X84917142Y-63037142D01*
X85060000Y-63037142D01*
X85202857Y-62965714D01*
X85274285Y-62894285D01*
X85345714Y-62751428D01*
X85417142Y-62465714D01*
X85488571Y-62322857D01*
X85560000Y-62251428D01*
X85702857Y-62180000D01*
X85845714Y-62180000D01*
X85988571Y-62251428D01*
X86060000Y-62322857D01*
X86131428Y-62465714D01*
X86131428Y-62822857D01*
X86060000Y-63037142D01*
X86131428Y-63465714D02*
X86131428Y-64322857D01*
X84631428Y-63894285D02*
X86131428Y-63894285D01*
D12*
X116627380Y-78481904D02*
X117627380Y-78243809D01*
X116913095Y-78053333D01*
X117627380Y-77862857D01*
X116627380Y-77624761D01*
X116960714Y-77339047D02*
X117627380Y-77100952D01*
X116960714Y-76862857D02*
X117627380Y-77100952D01*
X117865476Y-77196190D01*
X117913095Y-77243809D01*
X117960714Y-77339047D01*
X117579761Y-76529523D02*
X117627380Y-76434285D01*
X117627380Y-76243809D01*
X117579761Y-76148571D01*
X117484523Y-76100952D01*
X117436904Y-76100952D01*
X117341666Y-76148571D01*
X117294047Y-76243809D01*
X117294047Y-76386666D01*
X117246428Y-76481904D01*
X117151190Y-76529523D01*
X117103571Y-76529523D01*
X117008333Y-76481904D01*
X116960714Y-76386666D01*
X116960714Y-76243809D01*
X117008333Y-76148571D01*
X117579761Y-75291428D02*
X117627380Y-75386666D01*
X117627380Y-75577142D01*
X117579761Y-75672380D01*
X117484523Y-75720000D01*
X117103571Y-75720000D01*
X117008333Y-75672380D01*
X116960714Y-75577142D01*
X116960714Y-75386666D01*
X117008333Y-75291428D01*
X117103571Y-75243809D01*
X117198809Y-75243809D01*
X117294047Y-75720000D01*
X117579761Y-73624761D02*
X117627380Y-73720000D01*
X117627380Y-73910476D01*
X117579761Y-74005714D01*
X117532142Y-74053333D01*
X117436904Y-74100952D01*
X117151190Y-74100952D01*
X117055952Y-74053333D01*
X117008333Y-74005714D01*
X116960714Y-73910476D01*
X116960714Y-73720000D01*
X117008333Y-73624761D01*
X117627380Y-73053333D02*
X117579761Y-73148571D01*
X117532142Y-73196190D01*
X117436904Y-73243809D01*
X117151190Y-73243809D01*
X117055952Y-73196190D01*
X117008333Y-73148571D01*
X116960714Y-73053333D01*
X116960714Y-72910476D01*
X117008333Y-72815238D01*
X117055952Y-72767619D01*
X117151190Y-72720000D01*
X117436904Y-72720000D01*
X117532142Y-72767619D01*
X117579761Y-72815238D01*
X117627380Y-72910476D01*
X117627380Y-73053333D01*
X116960714Y-72291428D02*
X117627380Y-72291428D01*
X117055952Y-72291428D02*
X117008333Y-72243809D01*
X116960714Y-72148571D01*
X116960714Y-72005714D01*
X117008333Y-71910476D01*
X117103571Y-71862857D01*
X117627380Y-71862857D01*
X116960714Y-71481904D02*
X117627380Y-71243809D01*
X116960714Y-71005714D01*
X117579761Y-70243809D02*
X117627380Y-70339047D01*
X117627380Y-70529523D01*
X117579761Y-70624761D01*
X117484523Y-70672380D01*
X117103571Y-70672380D01*
X117008333Y-70624761D01*
X116960714Y-70529523D01*
X116960714Y-70339047D01*
X117008333Y-70243809D01*
X117103571Y-70196190D01*
X117198809Y-70196190D01*
X117294047Y-70672380D01*
X117627380Y-69767619D02*
X116960714Y-69767619D01*
X117151190Y-69767619D02*
X117055952Y-69720000D01*
X117008333Y-69672380D01*
X116960714Y-69577142D01*
X116960714Y-69481904D01*
X116960714Y-69291428D02*
X116960714Y-68910476D01*
X116627380Y-69148571D02*
X117484523Y-69148571D01*
X117579761Y-69100952D01*
X117627380Y-69005714D01*
X117627380Y-68910476D01*
X117579761Y-68196190D02*
X117627380Y-68291428D01*
X117627380Y-68481904D01*
X117579761Y-68577142D01*
X117484523Y-68624761D01*
X117103571Y-68624761D01*
X117008333Y-68577142D01*
X116960714Y-68481904D01*
X116960714Y-68291428D01*
X117008333Y-68196190D01*
X117103571Y-68148571D01*
X117198809Y-68148571D01*
X117294047Y-68624761D01*
X117627380Y-67720000D02*
X116960714Y-67720000D01*
X117151190Y-67720000D02*
X117055952Y-67672380D01*
X117008333Y-67624761D01*
X116960714Y-67529523D01*
X116960714Y-67434285D01*
X117627380Y-65767619D02*
X117151190Y-66100952D01*
X117627380Y-66339047D02*
X116627380Y-66339047D01*
X116627380Y-65958095D01*
X116675000Y-65862857D01*
X116722619Y-65815238D01*
X116817857Y-65767619D01*
X116960714Y-65767619D01*
X117055952Y-65815238D01*
X117103571Y-65862857D01*
X117151190Y-65958095D01*
X117151190Y-66339047D01*
X117579761Y-64958095D02*
X117627380Y-65053333D01*
X117627380Y-65243809D01*
X117579761Y-65339047D01*
X117484523Y-65386666D01*
X117103571Y-65386666D01*
X117008333Y-65339047D01*
X116960714Y-65243809D01*
X116960714Y-65053333D01*
X117008333Y-64958095D01*
X117103571Y-64910476D01*
X117198809Y-64910476D01*
X117294047Y-65386666D01*
X116960714Y-64577142D02*
X117627380Y-64339047D01*
X116960714Y-64100952D01*
X117627380Y-62434285D02*
X117627380Y-63005714D01*
X117627380Y-62720000D02*
X116627380Y-62720000D01*
X116770238Y-62815238D01*
X116865476Y-62910476D01*
X116913095Y-63005714D01*
X117532142Y-62005714D02*
X117579761Y-61958095D01*
X117627380Y-62005714D01*
X117579761Y-62053333D01*
X117532142Y-62005714D01*
X117627380Y-62005714D01*
X116627380Y-61339047D02*
X116627380Y-61243809D01*
X116675000Y-61148571D01*
X116722619Y-61100952D01*
X116817857Y-61053333D01*
X117008333Y-61005714D01*
X117246428Y-61005714D01*
X117436904Y-61053333D01*
X117532142Y-61100952D01*
X117579761Y-61148571D01*
X117627380Y-61243809D01*
X117627380Y-61339047D01*
X117579761Y-61434285D01*
X117532142Y-61481904D01*
X117436904Y-61529523D01*
X117246428Y-61577142D01*
X117008333Y-61577142D01*
X116817857Y-61529523D01*
X116722619Y-61481904D01*
X116675000Y-61434285D01*
X116627380Y-61339047D01*
X118610714Y-75743809D02*
X119277380Y-75743809D01*
X118229761Y-75981904D02*
X118944047Y-76220000D01*
X118944047Y-75600952D01*
X119277380Y-75220000D02*
X118277380Y-75220000D01*
X118277380Y-74839047D01*
X118325000Y-74743809D01*
X118372619Y-74696190D01*
X118467857Y-74648571D01*
X118610714Y-74648571D01*
X118705952Y-74696190D01*
X118753571Y-74743809D01*
X118801190Y-74839047D01*
X118801190Y-75220000D01*
X118610714Y-73791428D02*
X119277380Y-73791428D01*
X118229761Y-74029523D02*
X118944047Y-74267619D01*
X118944047Y-73648571D01*
X119182142Y-72696190D02*
X119229761Y-72743809D01*
X119277380Y-72886666D01*
X119277380Y-72981904D01*
X119229761Y-73124761D01*
X119134523Y-73220000D01*
X119039285Y-73267619D01*
X118848809Y-73315238D01*
X118705952Y-73315238D01*
X118515476Y-73267619D01*
X118420238Y-73220000D01*
X118325000Y-73124761D01*
X118277380Y-72981904D01*
X118277380Y-72886666D01*
X118325000Y-72743809D01*
X118372619Y-72696190D01*
X118610714Y-70743809D02*
X118896428Y-71505714D01*
X119182142Y-70743809D01*
X118896428Y-70267619D02*
X118896428Y-69505714D01*
X118896428Y-69029523D02*
X118896428Y-68267619D01*
X118610714Y-67791428D02*
X118896428Y-67029523D01*
X119182142Y-67791428D01*
X118277380Y-65791428D02*
X119086904Y-65791428D01*
X119182142Y-65743809D01*
X119229761Y-65696190D01*
X119277380Y-65600952D01*
X119277380Y-65410476D01*
X119229761Y-65315238D01*
X119182142Y-65267619D01*
X119086904Y-65220000D01*
X118277380Y-65220000D01*
X119229761Y-64791428D02*
X119277380Y-64648571D01*
X119277380Y-64410476D01*
X119229761Y-64315238D01*
X119182142Y-64267619D01*
X119086904Y-64220000D01*
X118991666Y-64220000D01*
X118896428Y-64267619D01*
X118848809Y-64315238D01*
X118801190Y-64410476D01*
X118753571Y-64600952D01*
X118705952Y-64696190D01*
X118658333Y-64743809D01*
X118563095Y-64791428D01*
X118467857Y-64791428D01*
X118372619Y-64743809D01*
X118325000Y-64696190D01*
X118277380Y-64600952D01*
X118277380Y-64362857D01*
X118325000Y-64220000D01*
X118753571Y-63458095D02*
X118801190Y-63315238D01*
X118848809Y-63267619D01*
X118944047Y-63220000D01*
X119086904Y-63220000D01*
X119182142Y-63267619D01*
X119229761Y-63315238D01*
X119277380Y-63410476D01*
X119277380Y-63791428D01*
X118277380Y-63791428D01*
X118277380Y-63458095D01*
X118325000Y-63362857D01*
X118372619Y-63315238D01*
X118467857Y-63267619D01*
X118563095Y-63267619D01*
X118658333Y-63315238D01*
X118705952Y-63362857D01*
X118753571Y-63458095D01*
X118753571Y-63791428D01*
D13*
X111360000Y-59590000D02*
X113900000Y-59590000D01*
X111360000Y-57050000D02*
X111360000Y-59590000D01*
X91120000Y-87530000D02*
X91120000Y-48250000D01*
X113900000Y-87530000D02*
X91120000Y-87530000D01*
X113900000Y-48250000D02*
X113900000Y-87530000D01*
X91120000Y-48250000D02*
X113900000Y-48250000D01*
X111360000Y-57050000D02*
X113900000Y-57050000D01*
D12*
X96450000Y-106130000D02*
X107650000Y-106130000D01*
X107640000Y-106130000D02*
X107640000Y-88130000D01*
X107640000Y-88130000D02*
X96440000Y-88130000D01*
X96440000Y-88130000D02*
X96440000Y-106130000D01*
D13*
X108690000Y-53400000D02*
X111230000Y-53400000D01*
X108690000Y-50860000D02*
X108690000Y-53400000D01*
D12*
G36*
X96295365Y-57149030D02*
G01*
X96295365Y-57249030D01*
X96195365Y-57249030D01*
X96195365Y-57149030D01*
X96295365Y-57149030D01*
G37*
X96295365Y-57149030D02*
X96295365Y-57249030D01*
X96195365Y-57249030D01*
X96195365Y-57149030D01*
X96295365Y-57149030D01*
G36*
X96095365Y-56749030D02*
G01*
X96095365Y-57549030D01*
X95995365Y-57549030D01*
X95995365Y-56749030D01*
X96095365Y-56749030D01*
G37*
X96095365Y-56749030D02*
X96095365Y-57549030D01*
X95995365Y-57549030D01*
X95995365Y-56749030D01*
X96095365Y-56749030D01*
G36*
X96495365Y-57349030D02*
G01*
X96495365Y-57549030D01*
X96395365Y-57549030D01*
X96395365Y-57349030D01*
X96495365Y-57349030D01*
G37*
X96495365Y-57349030D02*
X96495365Y-57549030D01*
X96395365Y-57549030D01*
X96395365Y-57349030D01*
X96495365Y-57349030D01*
G36*
X96495365Y-56749030D02*
G01*
X96495365Y-57049030D01*
X96395365Y-57049030D01*
X96395365Y-56749030D01*
X96495365Y-56749030D01*
G37*
X96495365Y-56749030D02*
X96495365Y-57049030D01*
X96395365Y-57049030D01*
X96395365Y-56749030D01*
X96495365Y-56749030D01*
G36*
X96495365Y-56749030D02*
G01*
X96495365Y-56849030D01*
X95995365Y-56849030D01*
X95995365Y-56749030D01*
X96495365Y-56749030D01*
G37*
X96495365Y-56749030D02*
X96495365Y-56849030D01*
X95995365Y-56849030D01*
X95995365Y-56749030D01*
X96495365Y-56749030D01*
D13*
X93450000Y-81340000D02*
X93450000Y-48320000D01*
X111230000Y-81340000D02*
X93450000Y-81340000D01*
X111230000Y-48320000D02*
X111230000Y-81340000D01*
X93450000Y-48320000D02*
X111230000Y-48320000D01*
X108690000Y-50860000D02*
X111230000Y-50860000D01*
D12*
X101540000Y-101258571D02*
X101540000Y-102330000D01*
X101468571Y-102544285D01*
X101325714Y-102687142D01*
X101111428Y-102758571D01*
X100968571Y-102758571D01*
X103040000Y-102758571D02*
X102182857Y-102758571D01*
X102611428Y-102758571D02*
X102611428Y-101258571D01*
X102468571Y-101472857D01*
X102325714Y-101615714D01*
X102182857Y-101687142D01*
X107210523Y-55031904D02*
X107210523Y-54231904D01*
X107401000Y-54231904D01*
X107515285Y-54270000D01*
X107591476Y-54346190D01*
X107629571Y-54422380D01*
X107667666Y-54574761D01*
X107667666Y-54689047D01*
X107629571Y-54841428D01*
X107591476Y-54917619D01*
X107515285Y-54993809D01*
X107401000Y-55031904D01*
X107210523Y-55031904D01*
X107972428Y-54308095D02*
X108010523Y-54270000D01*
X108086714Y-54231904D01*
X108277190Y-54231904D01*
X108353380Y-54270000D01*
X108391476Y-54308095D01*
X108429571Y-54384285D01*
X108429571Y-54460476D01*
X108391476Y-54574761D01*
X107934333Y-55031904D01*
X108429571Y-55031904D01*
X107210523Y-65191904D02*
X107210523Y-64391904D01*
X107401000Y-64391904D01*
X107515285Y-64430000D01*
X107591476Y-64506190D01*
X107629571Y-64582380D01*
X107667666Y-64734761D01*
X107667666Y-64849047D01*
X107629571Y-65001428D01*
X107591476Y-65077619D01*
X107515285Y-65153809D01*
X107401000Y-65191904D01*
X107210523Y-65191904D01*
X108162904Y-64391904D02*
X108239095Y-64391904D01*
X108315285Y-64430000D01*
X108353380Y-64468095D01*
X108391476Y-64544285D01*
X108429571Y-64696666D01*
X108429571Y-64887142D01*
X108391476Y-65039523D01*
X108353380Y-65115714D01*
X108315285Y-65153809D01*
X108239095Y-65191904D01*
X108162904Y-65191904D01*
X108086714Y-65153809D01*
X108048619Y-65115714D01*
X108010523Y-65039523D01*
X107972428Y-64887142D01*
X107972428Y-64696666D01*
X108010523Y-64544285D01*
X108048619Y-64468095D01*
X108086714Y-64430000D01*
X108162904Y-64391904D01*
X107210523Y-62651904D02*
X107210523Y-61851904D01*
X107401000Y-61851904D01*
X107515285Y-61890000D01*
X107591476Y-61966190D01*
X107629571Y-62042380D01*
X107667666Y-62194761D01*
X107667666Y-62309047D01*
X107629571Y-62461428D01*
X107591476Y-62537619D01*
X107515285Y-62613809D01*
X107401000Y-62651904D01*
X107210523Y-62651904D01*
X108429571Y-62651904D02*
X107972428Y-62651904D01*
X108201000Y-62651904D02*
X108201000Y-61851904D01*
X108124809Y-61966190D01*
X108048619Y-62042380D01*
X107972428Y-62080476D01*
X107191476Y-59350000D02*
X107115285Y-59311904D01*
X107001000Y-59311904D01*
X106886714Y-59350000D01*
X106810523Y-59426190D01*
X106772428Y-59502380D01*
X106734333Y-59654761D01*
X106734333Y-59769047D01*
X106772428Y-59921428D01*
X106810523Y-59997619D01*
X106886714Y-60073809D01*
X107001000Y-60111904D01*
X107077190Y-60111904D01*
X107191476Y-60073809D01*
X107229571Y-60035714D01*
X107229571Y-59769047D01*
X107077190Y-59769047D01*
X107572428Y-60111904D02*
X107572428Y-59311904D01*
X108029571Y-60111904D01*
X108029571Y-59311904D01*
X108410523Y-60111904D02*
X108410523Y-59311904D01*
X108601000Y-59311904D01*
X108715285Y-59350000D01*
X108791476Y-59426190D01*
X108829571Y-59502380D01*
X108867666Y-59654761D01*
X108867666Y-59769047D01*
X108829571Y-59921428D01*
X108791476Y-59997619D01*
X108715285Y-60073809D01*
X108601000Y-60111904D01*
X108410523Y-60111904D01*
X107191476Y-56810000D02*
X107115285Y-56771904D01*
X107001000Y-56771904D01*
X106886714Y-56810000D01*
X106810523Y-56886190D01*
X106772428Y-56962380D01*
X106734333Y-57114761D01*
X106734333Y-57229047D01*
X106772428Y-57381428D01*
X106810523Y-57457619D01*
X106886714Y-57533809D01*
X107001000Y-57571904D01*
X107077190Y-57571904D01*
X107191476Y-57533809D01*
X107229571Y-57495714D01*
X107229571Y-57229047D01*
X107077190Y-57229047D01*
X107572428Y-57571904D02*
X107572428Y-56771904D01*
X108029571Y-57571904D01*
X108029571Y-56771904D01*
X108410523Y-57571904D02*
X108410523Y-56771904D01*
X108601000Y-56771904D01*
X108715285Y-56810000D01*
X108791476Y-56886190D01*
X108829571Y-56962380D01*
X108867666Y-57114761D01*
X108867666Y-57229047D01*
X108829571Y-57381428D01*
X108791476Y-57457619D01*
X108715285Y-57533809D01*
X108601000Y-57571904D01*
X108410523Y-57571904D01*
X107210523Y-67731904D02*
X107210523Y-66931904D01*
X107401000Y-66931904D01*
X107515285Y-66970000D01*
X107591476Y-67046190D01*
X107629571Y-67122380D01*
X107667666Y-67274761D01*
X107667666Y-67389047D01*
X107629571Y-67541428D01*
X107591476Y-67617619D01*
X107515285Y-67693809D01*
X107401000Y-67731904D01*
X107210523Y-67731904D01*
X108353380Y-67198571D02*
X108353380Y-67731904D01*
X108162904Y-66893809D02*
X107972428Y-67465238D01*
X108467666Y-67465238D01*
X107667666Y-70195714D02*
X107629571Y-70233809D01*
X107515285Y-70271904D01*
X107439095Y-70271904D01*
X107324809Y-70233809D01*
X107248619Y-70157619D01*
X107210523Y-70081428D01*
X107172428Y-69929047D01*
X107172428Y-69814761D01*
X107210523Y-69662380D01*
X107248619Y-69586190D01*
X107324809Y-69510000D01*
X107439095Y-69471904D01*
X107515285Y-69471904D01*
X107629571Y-69510000D01*
X107667666Y-69548095D01*
X108353380Y-69471904D02*
X108201000Y-69471904D01*
X108124809Y-69510000D01*
X108086714Y-69548095D01*
X108010523Y-69662380D01*
X107972428Y-69814761D01*
X107972428Y-70119523D01*
X108010523Y-70195714D01*
X108048619Y-70233809D01*
X108124809Y-70271904D01*
X108277190Y-70271904D01*
X108353380Y-70233809D01*
X108391476Y-70195714D01*
X108429571Y-70119523D01*
X108429571Y-69929047D01*
X108391476Y-69852857D01*
X108353380Y-69814761D01*
X108277190Y-69776666D01*
X108124809Y-69776666D01*
X108048619Y-69814761D01*
X108010523Y-69852857D01*
X107972428Y-69929047D01*
X107210523Y-72811904D02*
X107210523Y-72011904D01*
X107401000Y-72011904D01*
X107515285Y-72050000D01*
X107591476Y-72126190D01*
X107629571Y-72202380D01*
X107667666Y-72354761D01*
X107667666Y-72469047D01*
X107629571Y-72621428D01*
X107591476Y-72697619D01*
X107515285Y-72773809D01*
X107401000Y-72811904D01*
X107210523Y-72811904D01*
X107934333Y-72011904D02*
X108467666Y-72011904D01*
X108124809Y-72811904D01*
X107248619Y-74932857D02*
X107515285Y-74932857D01*
X107629571Y-75351904D02*
X107248619Y-75351904D01*
X107248619Y-74551904D01*
X107629571Y-74551904D01*
X108315285Y-74551904D02*
X108162904Y-74551904D01*
X108086714Y-74590000D01*
X108048619Y-74628095D01*
X107972428Y-74742380D01*
X107934333Y-74894761D01*
X107934333Y-75199523D01*
X107972428Y-75275714D01*
X108010523Y-75313809D01*
X108086714Y-75351904D01*
X108239095Y-75351904D01*
X108315285Y-75313809D01*
X108353380Y-75275714D01*
X108391476Y-75199523D01*
X108391476Y-75009047D01*
X108353380Y-74932857D01*
X108315285Y-74894761D01*
X108239095Y-74856666D01*
X108086714Y-74856666D01*
X108010523Y-74894761D01*
X107972428Y-74932857D01*
X107934333Y-75009047D01*
X107477190Y-77472857D02*
X107591476Y-77510952D01*
X107629571Y-77549047D01*
X107667666Y-77625238D01*
X107667666Y-77739523D01*
X107629571Y-77815714D01*
X107591476Y-77853809D01*
X107515285Y-77891904D01*
X107210523Y-77891904D01*
X107210523Y-77091904D01*
X107477190Y-77091904D01*
X107553380Y-77130000D01*
X107591476Y-77168095D01*
X107629571Y-77244285D01*
X107629571Y-77320476D01*
X107591476Y-77396666D01*
X107553380Y-77434761D01*
X107477190Y-77472857D01*
X107210523Y-77472857D01*
X108353380Y-77358571D02*
X108353380Y-77891904D01*
X108162904Y-77053809D02*
X107972428Y-77625238D01*
X108467666Y-77625238D01*
X107477190Y-80012857D02*
X107591476Y-80050952D01*
X107629571Y-80089047D01*
X107667666Y-80165238D01*
X107667666Y-80279523D01*
X107629571Y-80355714D01*
X107591476Y-80393809D01*
X107515285Y-80431904D01*
X107210523Y-80431904D01*
X107210523Y-79631904D01*
X107477190Y-79631904D01*
X107553380Y-79670000D01*
X107591476Y-79708095D01*
X107629571Y-79784285D01*
X107629571Y-79860476D01*
X107591476Y-79936666D01*
X107553380Y-79974761D01*
X107477190Y-80012857D01*
X107210523Y-80012857D01*
X108391476Y-79631904D02*
X108010523Y-79631904D01*
X107972428Y-80012857D01*
X108010523Y-79974761D01*
X108086714Y-79936666D01*
X108277190Y-79936666D01*
X108353380Y-79974761D01*
X108391476Y-80012857D01*
X108429571Y-80089047D01*
X108429571Y-80279523D01*
X108391476Y-80355714D01*
X108353380Y-80393809D01*
X108277190Y-80431904D01*
X108086714Y-80431904D01*
X108010523Y-80393809D01*
X107972428Y-80355714D01*
X96555190Y-80012857D02*
X96669476Y-80050952D01*
X96707571Y-80089047D01*
X96745666Y-80165238D01*
X96745666Y-80279523D01*
X96707571Y-80355714D01*
X96669476Y-80393809D01*
X96593285Y-80431904D01*
X96288523Y-80431904D01*
X96288523Y-79631904D01*
X96555190Y-79631904D01*
X96631380Y-79670000D01*
X96669476Y-79708095D01*
X96707571Y-79784285D01*
X96707571Y-79860476D01*
X96669476Y-79936666D01*
X96631380Y-79974761D01*
X96555190Y-80012857D01*
X96288523Y-80012857D01*
X97431380Y-79631904D02*
X97279000Y-79631904D01*
X97202809Y-79670000D01*
X97164714Y-79708095D01*
X97088523Y-79822380D01*
X97050428Y-79974761D01*
X97050428Y-80279523D01*
X97088523Y-80355714D01*
X97126619Y-80393809D01*
X97202809Y-80431904D01*
X97355190Y-80431904D01*
X97431380Y-80393809D01*
X97469476Y-80355714D01*
X97507571Y-80279523D01*
X97507571Y-80089047D01*
X97469476Y-80012857D01*
X97431380Y-79974761D01*
X97355190Y-79936666D01*
X97202809Y-79936666D01*
X97126619Y-79974761D01*
X97088523Y-80012857D01*
X97050428Y-80089047D01*
X96555190Y-74932857D02*
X96669476Y-74970952D01*
X96707571Y-75009047D01*
X96745666Y-75085238D01*
X96745666Y-75199523D01*
X96707571Y-75275714D01*
X96669476Y-75313809D01*
X96593285Y-75351904D01*
X96288523Y-75351904D01*
X96288523Y-74551904D01*
X96555190Y-74551904D01*
X96631380Y-74590000D01*
X96669476Y-74628095D01*
X96707571Y-74704285D01*
X96707571Y-74780476D01*
X96669476Y-74856666D01*
X96631380Y-74894761D01*
X96555190Y-74932857D01*
X96288523Y-74932857D01*
X97012333Y-74551904D02*
X97507571Y-74551904D01*
X97240904Y-74856666D01*
X97355190Y-74856666D01*
X97431380Y-74894761D01*
X97469476Y-74932857D01*
X97507571Y-75009047D01*
X97507571Y-75199523D01*
X97469476Y-75275714D01*
X97431380Y-75313809D01*
X97355190Y-75351904D01*
X97126619Y-75351904D01*
X97050428Y-75313809D01*
X97012333Y-75275714D01*
X96555190Y-72392857D02*
X96669476Y-72430952D01*
X96707571Y-72469047D01*
X96745666Y-72545238D01*
X96745666Y-72659523D01*
X96707571Y-72735714D01*
X96669476Y-72773809D01*
X96593285Y-72811904D01*
X96288523Y-72811904D01*
X96288523Y-72011904D01*
X96555190Y-72011904D01*
X96631380Y-72050000D01*
X96669476Y-72088095D01*
X96707571Y-72164285D01*
X96707571Y-72240476D01*
X96669476Y-72316666D01*
X96631380Y-72354761D01*
X96555190Y-72392857D01*
X96288523Y-72392857D01*
X97507571Y-72811904D02*
X97050428Y-72811904D01*
X97279000Y-72811904D02*
X97279000Y-72011904D01*
X97202809Y-72126190D01*
X97126619Y-72202380D01*
X97050428Y-72240476D01*
X96612333Y-62232857D02*
X96345666Y-62232857D01*
X96345666Y-62651904D02*
X96345666Y-61851904D01*
X96726619Y-61851904D01*
X97374238Y-62118571D02*
X97374238Y-62651904D01*
X97183761Y-61813809D02*
X96993285Y-62385238D01*
X97488523Y-62385238D01*
X95812333Y-59311904D02*
X96079000Y-60111904D01*
X96345666Y-59311904D01*
X97069476Y-60035714D02*
X97031380Y-60073809D01*
X96917095Y-60111904D01*
X96840904Y-60111904D01*
X96726619Y-60073809D01*
X96650428Y-59997619D01*
X96612333Y-59921428D01*
X96574238Y-59769047D01*
X96574238Y-59654761D01*
X96612333Y-59502380D01*
X96650428Y-59426190D01*
X96726619Y-59350000D01*
X96840904Y-59311904D01*
X96917095Y-59311904D01*
X97031380Y-59350000D01*
X97069476Y-59388095D01*
X97869476Y-60035714D02*
X97831380Y-60073809D01*
X97717095Y-60111904D01*
X97640904Y-60111904D01*
X97526619Y-60073809D01*
X97450428Y-59997619D01*
X97412333Y-59921428D01*
X97374238Y-59769047D01*
X97374238Y-59654761D01*
X97412333Y-59502380D01*
X97450428Y-59426190D01*
X97526619Y-59350000D01*
X97640904Y-59311904D01*
X97717095Y-59311904D01*
X97831380Y-59350000D01*
X97869476Y-59388095D01*
X96269476Y-54270000D02*
X96193285Y-54231904D01*
X96079000Y-54231904D01*
X95964714Y-54270000D01*
X95888523Y-54346190D01*
X95850428Y-54422380D01*
X95812333Y-54574761D01*
X95812333Y-54689047D01*
X95850428Y-54841428D01*
X95888523Y-54917619D01*
X95964714Y-54993809D01*
X96079000Y-55031904D01*
X96155190Y-55031904D01*
X96269476Y-54993809D01*
X96307571Y-54955714D01*
X96307571Y-54689047D01*
X96155190Y-54689047D01*
X96650428Y-55031904D02*
X96650428Y-54231904D01*
X97107571Y-55031904D01*
X97107571Y-54231904D01*
X97488523Y-55031904D02*
X97488523Y-54231904D01*
X97679000Y-54231904D01*
X97793285Y-54270000D01*
X97869476Y-54346190D01*
X97907571Y-54422380D01*
X97945666Y-54574761D01*
X97945666Y-54689047D01*
X97907571Y-54841428D01*
X97869476Y-54917619D01*
X97793285Y-54993809D01*
X97679000Y-55031904D01*
X97488523Y-55031904D01*
X96326619Y-52491904D02*
X96059952Y-52110952D01*
X95869476Y-52491904D02*
X95869476Y-51691904D01*
X96174238Y-51691904D01*
X96250428Y-51730000D01*
X96288523Y-51768095D01*
X96326619Y-51844285D01*
X96326619Y-51958571D01*
X96288523Y-52034761D01*
X96250428Y-52072857D01*
X96174238Y-52110952D01*
X95869476Y-52110952D01*
X96631380Y-52263333D02*
X97012333Y-52263333D01*
X96555190Y-52491904D02*
X96821857Y-51691904D01*
X97088523Y-52491904D01*
X97279000Y-51691904D02*
X97469476Y-52491904D01*
X97621857Y-51920476D01*
X97774238Y-52491904D01*
X97964714Y-51691904D01*
X96612333Y-64772857D02*
X96345666Y-64772857D01*
X96345666Y-65191904D02*
X96345666Y-64391904D01*
X96726619Y-64391904D01*
X97412333Y-64391904D02*
X97031380Y-64391904D01*
X96993285Y-64772857D01*
X97031380Y-64734761D01*
X97107571Y-64696666D01*
X97298047Y-64696666D01*
X97374238Y-64734761D01*
X97412333Y-64772857D01*
X97450428Y-64849047D01*
X97450428Y-65039523D01*
X97412333Y-65115714D01*
X97374238Y-65153809D01*
X97298047Y-65191904D01*
X97107571Y-65191904D01*
X97031380Y-65153809D01*
X96993285Y-65115714D01*
X96612333Y-67312857D02*
X96345666Y-67312857D01*
X96345666Y-67731904D02*
X96345666Y-66931904D01*
X96726619Y-66931904D01*
X97374238Y-66931904D02*
X97221857Y-66931904D01*
X97145666Y-66970000D01*
X97107571Y-67008095D01*
X97031380Y-67122380D01*
X96993285Y-67274761D01*
X96993285Y-67579523D01*
X97031380Y-67655714D01*
X97069476Y-67693809D01*
X97145666Y-67731904D01*
X97298047Y-67731904D01*
X97374238Y-67693809D01*
X97412333Y-67655714D01*
X97450428Y-67579523D01*
X97450428Y-67389047D01*
X97412333Y-67312857D01*
X97374238Y-67274761D01*
X97298047Y-67236666D01*
X97145666Y-67236666D01*
X97069476Y-67274761D01*
X97031380Y-67312857D01*
X96993285Y-67389047D01*
X96612333Y-69852857D02*
X96345666Y-69852857D01*
X96345666Y-70271904D02*
X96345666Y-69471904D01*
X96726619Y-69471904D01*
X96955190Y-69471904D02*
X97488523Y-69471904D01*
X97145666Y-70271904D01*
X96555190Y-77472857D02*
X96669476Y-77510952D01*
X96707571Y-77549047D01*
X96745666Y-77625238D01*
X96745666Y-77739523D01*
X96707571Y-77815714D01*
X96669476Y-77853809D01*
X96593285Y-77891904D01*
X96288523Y-77891904D01*
X96288523Y-77091904D01*
X96555190Y-77091904D01*
X96631380Y-77130000D01*
X96669476Y-77168095D01*
X96707571Y-77244285D01*
X96707571Y-77320476D01*
X96669476Y-77396666D01*
X96631380Y-77434761D01*
X96555190Y-77472857D01*
X96288523Y-77472857D01*
X97050428Y-77168095D02*
X97088523Y-77130000D01*
X97164714Y-77091904D01*
X97355190Y-77091904D01*
X97431380Y-77130000D01*
X97469476Y-77168095D01*
X97507571Y-77244285D01*
X97507571Y-77320476D01*
X97469476Y-77434761D01*
X97012333Y-77891904D01*
X97507571Y-77891904D01*
X103721395Y-51691904D02*
X104178538Y-51691904D01*
X103949967Y-52491904D02*
X103949967Y-51691904D01*
X104369014Y-51691904D02*
X104902348Y-52491904D01*
X104902348Y-51691904D02*
X104369014Y-52491904D01*
X105359491Y-51691904D02*
X105435681Y-51691904D01*
X105511872Y-51730000D01*
X105549967Y-51768095D01*
X105588062Y-51844285D01*
X105626157Y-51996666D01*
X105626157Y-52187142D01*
X105588062Y-52339523D01*
X105549967Y-52415714D01*
X105511872Y-52453809D01*
X105435681Y-52491904D01*
X105359491Y-52491904D01*
X105283300Y-52453809D01*
X105245205Y-52415714D01*
X105207110Y-52339523D01*
X105169014Y-52187142D01*
X105169014Y-51996666D01*
X105207110Y-51844285D01*
X105245205Y-51768095D01*
X105283300Y-51730000D01*
X105359491Y-51691904D01*
X106540443Y-51653809D02*
X105854729Y-52682380D01*
X106807110Y-52491904D02*
X106807110Y-51691904D01*
X106997586Y-51691904D01*
X107111872Y-51730000D01*
X107188062Y-51806190D01*
X107226157Y-51882380D01*
X107264252Y-52034761D01*
X107264252Y-52149047D01*
X107226157Y-52301428D01*
X107188062Y-52377619D01*
X107111872Y-52453809D01*
X106997586Y-52491904D01*
X106807110Y-52491904D01*
X107530919Y-51691904D02*
X108026157Y-51691904D01*
X107759491Y-51996666D01*
X107873776Y-51996666D01*
X107949967Y-52034761D01*
X107988062Y-52072857D01*
X108026157Y-52149047D01*
X108026157Y-52339523D01*
X107988062Y-52415714D01*
X107949967Y-52453809D01*
X107873776Y-52491904D01*
X107645205Y-52491904D01*
X107569014Y-52453809D01*
X107530919Y-52415714D01*
X96766666Y-57513809D02*
X96880952Y-57551904D01*
X97071428Y-57551904D01*
X97147619Y-57513809D01*
X97185714Y-57475714D01*
X97223809Y-57399523D01*
X97223809Y-57323333D01*
X97185714Y-57247142D01*
X97147619Y-57209047D01*
X97071428Y-57170952D01*
X96919047Y-57132857D01*
X96842857Y-57094761D01*
X96804761Y-57056666D01*
X96766666Y-56980476D01*
X96766666Y-56904285D01*
X96804761Y-56828095D01*
X96842857Y-56790000D01*
X96919047Y-56751904D01*
X97109523Y-56751904D01*
X97223809Y-56790000D01*
X97452380Y-56751904D02*
X97909523Y-56751904D01*
X97680952Y-57551904D02*
X97680952Y-56751904D01*
M02*
