G04 #@! TF.GenerationSoftware,KiCad,Pcbnew,(5.1.5-0-10_14)*
G04 #@! TF.CreationDate,2020-10-21T17:45:19+03:00*
G04 #@! TF.ProjectId,Wyse-converter,57797365-2d63-46f6-9e76-65727465722e,rev?*
G04 #@! TF.SameCoordinates,Original*
G04 #@! TF.FileFunction,Copper,L1,Top*
G04 #@! TF.FilePolarity,Positive*
%FSLAX46Y46*%
G04 Gerber Fmt 4.6, Leading zero omitted, Abs format (unit mm)*
G04 Created by KiCad (PCBNEW (5.1.5-0-10_14)) date 2020-10-21 17:45:19*
%MOMM*%
%LPD*%
G04 APERTURE LIST*
%ADD10R,1.752600X1.752600*%
%ADD11C,1.752600*%
%ADD12C,3.200000*%
%ADD13C,1.500000*%
%ADD14C,4.000000*%
%ADD15C,1.700000*%
%ADD16C,0.250000*%
G04 APERTURE END LIST*
D10*
X112630000Y-58320000D03*
D11*
X112630000Y-60860000D03*
X112630000Y-63400000D03*
X112630000Y-65940000D03*
X112630000Y-68480000D03*
X112630000Y-71020000D03*
X112630000Y-73560000D03*
X112630000Y-76100000D03*
X112630000Y-78640000D03*
X112630000Y-81180000D03*
X112630000Y-83720000D03*
X92390000Y-86260000D03*
X92390000Y-83720000D03*
X92390000Y-81180000D03*
X92390000Y-78640000D03*
X92390000Y-76100000D03*
X92390000Y-73560000D03*
X92390000Y-71020000D03*
X92390000Y-68480000D03*
X92390000Y-65940000D03*
X92390000Y-63400000D03*
X92390000Y-60860000D03*
X112630000Y-86260000D03*
X92390000Y-58320000D03*
D12*
X98230000Y-98280000D03*
X105850000Y-98280000D03*
D13*
X100140000Y-91930000D03*
X101410000Y-89390000D03*
X103950000Y-89390000D03*
X102680000Y-91930000D03*
D10*
X109960000Y-52130000D03*
D11*
X109960000Y-54670000D03*
X109960000Y-57210000D03*
X109960000Y-59750000D03*
X109960000Y-62290000D03*
X109960000Y-64830000D03*
X109960000Y-67370000D03*
X109960000Y-69910000D03*
X109960000Y-72450000D03*
X109960000Y-74990000D03*
X109960000Y-77530000D03*
X94720000Y-80070000D03*
X94720000Y-77530000D03*
X94720000Y-74990000D03*
X94720000Y-72450000D03*
X94720000Y-69910000D03*
X94720000Y-67370000D03*
X94720000Y-64830000D03*
X94720000Y-62290000D03*
X94720000Y-59750000D03*
X94720000Y-57210000D03*
X94720000Y-54670000D03*
X109960000Y-80070000D03*
X94720000Y-52130000D03*
D14*
X86950000Y-51870000D03*
X117970000Y-51670000D03*
X92990000Y-98190000D03*
X110900000Y-98050000D03*
D15*
X87840000Y-63880000D03*
X87860000Y-60790000D03*
D16*
X111753701Y-69925775D02*
X111753701Y-70143701D01*
X110536625Y-68708699D02*
X111753701Y-69925775D01*
X111753701Y-70143701D02*
X112630000Y-71020000D01*
X109520773Y-68708699D02*
X110536625Y-68708699D01*
X108758699Y-67946625D02*
X109520773Y-68708699D01*
X108758699Y-66031301D02*
X108758699Y-67946625D01*
X109960000Y-64830000D02*
X108758699Y-66031301D01*
X101420000Y-90650000D02*
X100140000Y-91930000D01*
X108460000Y-91460000D02*
X104070000Y-91460000D01*
X104070000Y-91460000D02*
X103260000Y-90650000D01*
X111428699Y-72221301D02*
X111428699Y-88491301D01*
X111428699Y-88491301D02*
X108460000Y-91460000D01*
X103260000Y-90650000D02*
X101420000Y-90650000D01*
X112630000Y-71020000D02*
X111428699Y-72221301D01*
X93266299Y-64505775D02*
X93266299Y-65063701D01*
X93591301Y-62823375D02*
X93591301Y-64180773D01*
X93518699Y-62750773D02*
X93591301Y-62823375D01*
X93591301Y-64180773D02*
X93266299Y-64505775D01*
X93843701Y-60626299D02*
X93843701Y-61388373D01*
X93266299Y-65063701D02*
X92390000Y-65940000D01*
X93518699Y-61713375D02*
X93518699Y-62750773D01*
X93843701Y-61388373D02*
X93518699Y-61713375D01*
X94720000Y-59750000D02*
X93843701Y-60626299D01*
X101410000Y-88329340D02*
X96350000Y-83269340D01*
X101410000Y-89390000D02*
X101410000Y-88329340D01*
X96350000Y-83269340D02*
X96350000Y-61330000D01*
X96300000Y-61330000D02*
X94720000Y-59750000D01*
X96350000Y-61330000D02*
X96300000Y-61330000D01*
X93266299Y-59425775D02*
X93266299Y-59983701D01*
X93620000Y-57772074D02*
X93620000Y-59072074D01*
X93266299Y-59983701D02*
X92390000Y-60860000D01*
X93480000Y-57632074D02*
X93620000Y-57772074D01*
X93620000Y-59072074D02*
X93266299Y-59425775D01*
X93480000Y-55910000D02*
X93480000Y-57632074D01*
X94720000Y-54670000D02*
X93480000Y-55910000D01*
X87930000Y-60860000D02*
X87860000Y-60790000D01*
X92390000Y-60860000D02*
X87930000Y-60860000D01*
X96200000Y-56150000D02*
X94720000Y-54670000D01*
X96860000Y-81660000D02*
X96860000Y-56170000D01*
X103200001Y-88640001D02*
X102790001Y-88640001D01*
X103950000Y-89390000D02*
X103200001Y-88640001D01*
X96860000Y-82710000D02*
X96860000Y-81660000D01*
X102790001Y-88640001D02*
X96860000Y-82710000D01*
X112630000Y-68470000D02*
X112630000Y-68480000D01*
X111910000Y-67750000D02*
X112630000Y-68470000D01*
X111910000Y-67230000D02*
X111910000Y-67750000D01*
X111428699Y-63758699D02*
X111428699Y-66748699D01*
X111428699Y-66748699D02*
X111910000Y-67230000D01*
X109960000Y-62290000D02*
X111428699Y-63758699D01*
X103740660Y-91930000D02*
X102680000Y-91930000D01*
X113831301Y-69681301D02*
X113831301Y-86836625D01*
X108737926Y-91930000D02*
X103740660Y-91930000D01*
X113831301Y-86836625D02*
X108737926Y-91930000D01*
X112630000Y-68480000D02*
X113831301Y-69681301D01*
X91910000Y-63880000D02*
X92390000Y-63400000D01*
X87840000Y-63880000D02*
X91910000Y-63880000D01*
M02*
