G04 #@! TF.GenerationSoftware,KiCad,Pcbnew,(5.1.5-0-10_14)*
G04 #@! TF.CreationDate,2020-10-21T17:45:19+03:00*
G04 #@! TF.ProjectId,Wyse-converter,57797365-2d63-46f6-9e76-65727465722e,rev?*
G04 #@! TF.SameCoordinates,Original*
G04 #@! TF.FileFunction,Soldermask,Bot*
G04 #@! TF.FilePolarity,Negative*
%FSLAX46Y46*%
G04 Gerber Fmt 4.6, Leading zero omitted, Abs format (unit mm)*
G04 Created by KiCad (PCBNEW (5.1.5-0-10_14)) date 2020-10-21 17:45:19*
%MOMM*%
%LPD*%
G04 APERTURE LIST*
%ADD10C,0.100000*%
G04 APERTURE END LIST*
D10*
G36*
X93588254Y-96217818D02*
G01*
X93961511Y-96372426D01*
X93961513Y-96372427D01*
X94297436Y-96596884D01*
X94583116Y-96882564D01*
X94807574Y-97218489D01*
X94962182Y-97591746D01*
X95041000Y-97987993D01*
X95041000Y-98392007D01*
X94962182Y-98788254D01*
X94865564Y-99021511D01*
X94807573Y-99161513D01*
X94583116Y-99497436D01*
X94297436Y-99783116D01*
X93961513Y-100007573D01*
X93961512Y-100007574D01*
X93961511Y-100007574D01*
X93588254Y-100162182D01*
X93192007Y-100241000D01*
X92787993Y-100241000D01*
X92391746Y-100162182D01*
X92018489Y-100007574D01*
X92018488Y-100007574D01*
X92018487Y-100007573D01*
X91682564Y-99783116D01*
X91396884Y-99497436D01*
X91172427Y-99161513D01*
X91114436Y-99021511D01*
X91017818Y-98788254D01*
X90939000Y-98392007D01*
X90939000Y-97987993D01*
X91017818Y-97591746D01*
X91172426Y-97218489D01*
X91396884Y-96882564D01*
X91682564Y-96596884D01*
X92018487Y-96372427D01*
X92018489Y-96372426D01*
X92391746Y-96217818D01*
X92787993Y-96139000D01*
X93192007Y-96139000D01*
X93588254Y-96217818D01*
G37*
G36*
X111498254Y-96077818D02*
G01*
X111871511Y-96232426D01*
X111871513Y-96232427D01*
X112081036Y-96372426D01*
X112207436Y-96456884D01*
X112493116Y-96742564D01*
X112717574Y-97078489D01*
X112872182Y-97451746D01*
X112951000Y-97847993D01*
X112951000Y-98252007D01*
X112872182Y-98648254D01*
X112717574Y-99021511D01*
X112717573Y-99021513D01*
X112493116Y-99357436D01*
X112207436Y-99643116D01*
X111871513Y-99867573D01*
X111871512Y-99867574D01*
X111871511Y-99867574D01*
X111498254Y-100022182D01*
X111102007Y-100101000D01*
X110697993Y-100101000D01*
X110301746Y-100022182D01*
X109928489Y-99867574D01*
X109928488Y-99867574D01*
X109928487Y-99867573D01*
X109592564Y-99643116D01*
X109306884Y-99357436D01*
X109082427Y-99021513D01*
X109082426Y-99021511D01*
X108927818Y-98648254D01*
X108849000Y-98252007D01*
X108849000Y-97847993D01*
X108927818Y-97451746D01*
X109082426Y-97078489D01*
X109306884Y-96742564D01*
X109592564Y-96456884D01*
X109718964Y-96372426D01*
X109928487Y-96232427D01*
X109928489Y-96232426D01*
X110301746Y-96077818D01*
X110697993Y-95999000D01*
X111102007Y-95999000D01*
X111498254Y-96077818D01*
G37*
G36*
X106225256Y-96671298D02*
G01*
X106331579Y-96692447D01*
X106632042Y-96816903D01*
X106902451Y-96997585D01*
X107132415Y-97227549D01*
X107132416Y-97227551D01*
X107313098Y-97497960D01*
X107437553Y-97798422D01*
X107475262Y-97987994D01*
X107501000Y-98117391D01*
X107501000Y-98442609D01*
X107437553Y-98761579D01*
X107313097Y-99062042D01*
X107132415Y-99332451D01*
X106902451Y-99562415D01*
X106632042Y-99743097D01*
X106331579Y-99867553D01*
X106225256Y-99888702D01*
X106012611Y-99931000D01*
X105687389Y-99931000D01*
X105474744Y-99888702D01*
X105368421Y-99867553D01*
X105067958Y-99743097D01*
X104797549Y-99562415D01*
X104567585Y-99332451D01*
X104386903Y-99062042D01*
X104262447Y-98761579D01*
X104199000Y-98442609D01*
X104199000Y-98117391D01*
X104224739Y-97987994D01*
X104262447Y-97798422D01*
X104386902Y-97497960D01*
X104567584Y-97227551D01*
X104567585Y-97227549D01*
X104797549Y-96997585D01*
X105067958Y-96816903D01*
X105368421Y-96692447D01*
X105474744Y-96671298D01*
X105687389Y-96629000D01*
X106012611Y-96629000D01*
X106225256Y-96671298D01*
G37*
G36*
X98605256Y-96671298D02*
G01*
X98711579Y-96692447D01*
X99012042Y-96816903D01*
X99282451Y-96997585D01*
X99512415Y-97227549D01*
X99512416Y-97227551D01*
X99693098Y-97497960D01*
X99817553Y-97798422D01*
X99855262Y-97987994D01*
X99881000Y-98117391D01*
X99881000Y-98442609D01*
X99817553Y-98761579D01*
X99693097Y-99062042D01*
X99512415Y-99332451D01*
X99282451Y-99562415D01*
X99012042Y-99743097D01*
X98711579Y-99867553D01*
X98605256Y-99888702D01*
X98392611Y-99931000D01*
X98067389Y-99931000D01*
X97854744Y-99888702D01*
X97748421Y-99867553D01*
X97447958Y-99743097D01*
X97177549Y-99562415D01*
X96947585Y-99332451D01*
X96766903Y-99062042D01*
X96642447Y-98761579D01*
X96579000Y-98442609D01*
X96579000Y-98117391D01*
X96604739Y-97987994D01*
X96642447Y-97798422D01*
X96766902Y-97497960D01*
X96947584Y-97227551D01*
X96947585Y-97227549D01*
X97177549Y-96997585D01*
X97447958Y-96816903D01*
X97748421Y-96692447D01*
X97854744Y-96671298D01*
X98067389Y-96629000D01*
X98392611Y-96629000D01*
X98605256Y-96671298D01*
G37*
G36*
X102913642Y-91159781D02*
G01*
X103059414Y-91220162D01*
X103059416Y-91220163D01*
X103190608Y-91307822D01*
X103302178Y-91419392D01*
X103389837Y-91550584D01*
X103389838Y-91550586D01*
X103450219Y-91696358D01*
X103481000Y-91851107D01*
X103481000Y-92008893D01*
X103450219Y-92163642D01*
X103389838Y-92309414D01*
X103389837Y-92309416D01*
X103302178Y-92440608D01*
X103190608Y-92552178D01*
X103059416Y-92639837D01*
X103059415Y-92639838D01*
X103059414Y-92639838D01*
X102913642Y-92700219D01*
X102758893Y-92731000D01*
X102601107Y-92731000D01*
X102446358Y-92700219D01*
X102300586Y-92639838D01*
X102300585Y-92639838D01*
X102300584Y-92639837D01*
X102169392Y-92552178D01*
X102057822Y-92440608D01*
X101970163Y-92309416D01*
X101970162Y-92309414D01*
X101909781Y-92163642D01*
X101879000Y-92008893D01*
X101879000Y-91851107D01*
X101909781Y-91696358D01*
X101970162Y-91550586D01*
X101970163Y-91550584D01*
X102057822Y-91419392D01*
X102169392Y-91307822D01*
X102300584Y-91220163D01*
X102300586Y-91220162D01*
X102446358Y-91159781D01*
X102601107Y-91129000D01*
X102758893Y-91129000D01*
X102913642Y-91159781D01*
G37*
G36*
X100373642Y-91159781D02*
G01*
X100519414Y-91220162D01*
X100519416Y-91220163D01*
X100650608Y-91307822D01*
X100762178Y-91419392D01*
X100849837Y-91550584D01*
X100849838Y-91550586D01*
X100910219Y-91696358D01*
X100941000Y-91851107D01*
X100941000Y-92008893D01*
X100910219Y-92163642D01*
X100849838Y-92309414D01*
X100849837Y-92309416D01*
X100762178Y-92440608D01*
X100650608Y-92552178D01*
X100519416Y-92639837D01*
X100519415Y-92639838D01*
X100519414Y-92639838D01*
X100373642Y-92700219D01*
X100218893Y-92731000D01*
X100061107Y-92731000D01*
X99906358Y-92700219D01*
X99760586Y-92639838D01*
X99760585Y-92639838D01*
X99760584Y-92639837D01*
X99629392Y-92552178D01*
X99517822Y-92440608D01*
X99430163Y-92309416D01*
X99430162Y-92309414D01*
X99369781Y-92163642D01*
X99339000Y-92008893D01*
X99339000Y-91851107D01*
X99369781Y-91696358D01*
X99430162Y-91550586D01*
X99430163Y-91550584D01*
X99517822Y-91419392D01*
X99629392Y-91307822D01*
X99760584Y-91220163D01*
X99760586Y-91220162D01*
X99906358Y-91159781D01*
X100061107Y-91129000D01*
X100218893Y-91129000D01*
X100373642Y-91159781D01*
G37*
G36*
X104183642Y-88619781D02*
G01*
X104329414Y-88680162D01*
X104329416Y-88680163D01*
X104460608Y-88767822D01*
X104572178Y-88879392D01*
X104659837Y-89010584D01*
X104659838Y-89010586D01*
X104720219Y-89156358D01*
X104751000Y-89311107D01*
X104751000Y-89468893D01*
X104720219Y-89623642D01*
X104659838Y-89769414D01*
X104659837Y-89769416D01*
X104572178Y-89900608D01*
X104460608Y-90012178D01*
X104329416Y-90099837D01*
X104329415Y-90099838D01*
X104329414Y-90099838D01*
X104183642Y-90160219D01*
X104028893Y-90191000D01*
X103871107Y-90191000D01*
X103716358Y-90160219D01*
X103570586Y-90099838D01*
X103570585Y-90099838D01*
X103570584Y-90099837D01*
X103439392Y-90012178D01*
X103327822Y-89900608D01*
X103240163Y-89769416D01*
X103240162Y-89769414D01*
X103179781Y-89623642D01*
X103149000Y-89468893D01*
X103149000Y-89311107D01*
X103179781Y-89156358D01*
X103240162Y-89010586D01*
X103240163Y-89010584D01*
X103327822Y-88879392D01*
X103439392Y-88767822D01*
X103570584Y-88680163D01*
X103570586Y-88680162D01*
X103716358Y-88619781D01*
X103871107Y-88589000D01*
X104028893Y-88589000D01*
X104183642Y-88619781D01*
G37*
G36*
X101643642Y-88619781D02*
G01*
X101789414Y-88680162D01*
X101789416Y-88680163D01*
X101920608Y-88767822D01*
X102032178Y-88879392D01*
X102119837Y-89010584D01*
X102119838Y-89010586D01*
X102180219Y-89156358D01*
X102211000Y-89311107D01*
X102211000Y-89468893D01*
X102180219Y-89623642D01*
X102119838Y-89769414D01*
X102119837Y-89769416D01*
X102032178Y-89900608D01*
X101920608Y-90012178D01*
X101789416Y-90099837D01*
X101789415Y-90099838D01*
X101789414Y-90099838D01*
X101643642Y-90160219D01*
X101488893Y-90191000D01*
X101331107Y-90191000D01*
X101176358Y-90160219D01*
X101030586Y-90099838D01*
X101030585Y-90099838D01*
X101030584Y-90099837D01*
X100899392Y-90012178D01*
X100787822Y-89900608D01*
X100700163Y-89769416D01*
X100700162Y-89769414D01*
X100639781Y-89623642D01*
X100609000Y-89468893D01*
X100609000Y-89311107D01*
X100639781Y-89156358D01*
X100700162Y-89010586D01*
X100700163Y-89010584D01*
X100787822Y-88879392D01*
X100899392Y-88767822D01*
X101030584Y-88680163D01*
X101030586Y-88680162D01*
X101176358Y-88619781D01*
X101331107Y-88589000D01*
X101488893Y-88589000D01*
X101643642Y-88619781D01*
G37*
G36*
X92660483Y-85368335D02*
G01*
X92829240Y-85438236D01*
X92981118Y-85539718D01*
X93110282Y-85668882D01*
X93211764Y-85820760D01*
X93281665Y-85989517D01*
X93317300Y-86168668D01*
X93317300Y-86351332D01*
X93281665Y-86530483D01*
X93211764Y-86699240D01*
X93110282Y-86851118D01*
X92981118Y-86980282D01*
X92829240Y-87081764D01*
X92660483Y-87151665D01*
X92481332Y-87187300D01*
X92298668Y-87187300D01*
X92119517Y-87151665D01*
X91950760Y-87081764D01*
X91798882Y-86980282D01*
X91669718Y-86851118D01*
X91568236Y-86699240D01*
X91498335Y-86530483D01*
X91462700Y-86351332D01*
X91462700Y-86168668D01*
X91498335Y-85989517D01*
X91568236Y-85820760D01*
X91669718Y-85668882D01*
X91798882Y-85539718D01*
X91950760Y-85438236D01*
X92119517Y-85368335D01*
X92298668Y-85332700D01*
X92481332Y-85332700D01*
X92660483Y-85368335D01*
G37*
G36*
X112900483Y-85368335D02*
G01*
X113069240Y-85438236D01*
X113221118Y-85539718D01*
X113350282Y-85668882D01*
X113451764Y-85820760D01*
X113521665Y-85989517D01*
X113557300Y-86168668D01*
X113557300Y-86351332D01*
X113521665Y-86530483D01*
X113451764Y-86699240D01*
X113350282Y-86851118D01*
X113221118Y-86980282D01*
X113069240Y-87081764D01*
X112900483Y-87151665D01*
X112721332Y-87187300D01*
X112538668Y-87187300D01*
X112359517Y-87151665D01*
X112190760Y-87081764D01*
X112038882Y-86980282D01*
X111909718Y-86851118D01*
X111808236Y-86699240D01*
X111738335Y-86530483D01*
X111702700Y-86351332D01*
X111702700Y-86168668D01*
X111738335Y-85989517D01*
X111808236Y-85820760D01*
X111909718Y-85668882D01*
X112038882Y-85539718D01*
X112190760Y-85438236D01*
X112359517Y-85368335D01*
X112538668Y-85332700D01*
X112721332Y-85332700D01*
X112900483Y-85368335D01*
G37*
G36*
X112900483Y-82828335D02*
G01*
X113069240Y-82898236D01*
X113221118Y-82999718D01*
X113350282Y-83128882D01*
X113451764Y-83280760D01*
X113521665Y-83449517D01*
X113557300Y-83628668D01*
X113557300Y-83811332D01*
X113521665Y-83990483D01*
X113451764Y-84159240D01*
X113350282Y-84311118D01*
X113221118Y-84440282D01*
X113069240Y-84541764D01*
X112900483Y-84611665D01*
X112721332Y-84647300D01*
X112538668Y-84647300D01*
X112359517Y-84611665D01*
X112190760Y-84541764D01*
X112038882Y-84440282D01*
X111909718Y-84311118D01*
X111808236Y-84159240D01*
X111738335Y-83990483D01*
X111702700Y-83811332D01*
X111702700Y-83628668D01*
X111738335Y-83449517D01*
X111808236Y-83280760D01*
X111909718Y-83128882D01*
X112038882Y-82999718D01*
X112190760Y-82898236D01*
X112359517Y-82828335D01*
X112538668Y-82792700D01*
X112721332Y-82792700D01*
X112900483Y-82828335D01*
G37*
G36*
X92660483Y-82828335D02*
G01*
X92829240Y-82898236D01*
X92981118Y-82999718D01*
X93110282Y-83128882D01*
X93211764Y-83280760D01*
X93281665Y-83449517D01*
X93317300Y-83628668D01*
X93317300Y-83811332D01*
X93281665Y-83990483D01*
X93211764Y-84159240D01*
X93110282Y-84311118D01*
X92981118Y-84440282D01*
X92829240Y-84541764D01*
X92660483Y-84611665D01*
X92481332Y-84647300D01*
X92298668Y-84647300D01*
X92119517Y-84611665D01*
X91950760Y-84541764D01*
X91798882Y-84440282D01*
X91669718Y-84311118D01*
X91568236Y-84159240D01*
X91498335Y-83990483D01*
X91462700Y-83811332D01*
X91462700Y-83628668D01*
X91498335Y-83449517D01*
X91568236Y-83280760D01*
X91669718Y-83128882D01*
X91798882Y-82999718D01*
X91950760Y-82898236D01*
X92119517Y-82828335D01*
X92298668Y-82792700D01*
X92481332Y-82792700D01*
X92660483Y-82828335D01*
G37*
G36*
X112900483Y-80288335D02*
G01*
X113069240Y-80358236D01*
X113221118Y-80459718D01*
X113350282Y-80588882D01*
X113451764Y-80740760D01*
X113521665Y-80909517D01*
X113557300Y-81088668D01*
X113557300Y-81271332D01*
X113521665Y-81450483D01*
X113451764Y-81619240D01*
X113350282Y-81771118D01*
X113221118Y-81900282D01*
X113069240Y-82001764D01*
X112900483Y-82071665D01*
X112721332Y-82107300D01*
X112538668Y-82107300D01*
X112359517Y-82071665D01*
X112190760Y-82001764D01*
X112038882Y-81900282D01*
X111909718Y-81771118D01*
X111808236Y-81619240D01*
X111738335Y-81450483D01*
X111702700Y-81271332D01*
X111702700Y-81088668D01*
X111738335Y-80909517D01*
X111808236Y-80740760D01*
X111909718Y-80588882D01*
X112038882Y-80459718D01*
X112190760Y-80358236D01*
X112359517Y-80288335D01*
X112538668Y-80252700D01*
X112721332Y-80252700D01*
X112900483Y-80288335D01*
G37*
G36*
X92660483Y-80288335D02*
G01*
X92829240Y-80358236D01*
X92981118Y-80459718D01*
X93110282Y-80588882D01*
X93211764Y-80740760D01*
X93281665Y-80909517D01*
X93317300Y-81088668D01*
X93317300Y-81271332D01*
X93281665Y-81450483D01*
X93211764Y-81619240D01*
X93110282Y-81771118D01*
X92981118Y-81900282D01*
X92829240Y-82001764D01*
X92660483Y-82071665D01*
X92481332Y-82107300D01*
X92298668Y-82107300D01*
X92119517Y-82071665D01*
X91950760Y-82001764D01*
X91798882Y-81900282D01*
X91669718Y-81771118D01*
X91568236Y-81619240D01*
X91498335Y-81450483D01*
X91462700Y-81271332D01*
X91462700Y-81088668D01*
X91498335Y-80909517D01*
X91568236Y-80740760D01*
X91669718Y-80588882D01*
X91798882Y-80459718D01*
X91950760Y-80358236D01*
X92119517Y-80288335D01*
X92298668Y-80252700D01*
X92481332Y-80252700D01*
X92660483Y-80288335D01*
G37*
G36*
X110230483Y-79178335D02*
G01*
X110399240Y-79248236D01*
X110551118Y-79349718D01*
X110680282Y-79478882D01*
X110781764Y-79630760D01*
X110851665Y-79799517D01*
X110887300Y-79978668D01*
X110887300Y-80161332D01*
X110851665Y-80340483D01*
X110781764Y-80509240D01*
X110680282Y-80661118D01*
X110551118Y-80790282D01*
X110399240Y-80891764D01*
X110230483Y-80961665D01*
X110051332Y-80997300D01*
X109868668Y-80997300D01*
X109689517Y-80961665D01*
X109520760Y-80891764D01*
X109368882Y-80790282D01*
X109239718Y-80661118D01*
X109138236Y-80509240D01*
X109068335Y-80340483D01*
X109032700Y-80161332D01*
X109032700Y-79978668D01*
X109068335Y-79799517D01*
X109138236Y-79630760D01*
X109239718Y-79478882D01*
X109368882Y-79349718D01*
X109520760Y-79248236D01*
X109689517Y-79178335D01*
X109868668Y-79142700D01*
X110051332Y-79142700D01*
X110230483Y-79178335D01*
G37*
G36*
X94990483Y-79178335D02*
G01*
X95159240Y-79248236D01*
X95311118Y-79349718D01*
X95440282Y-79478882D01*
X95541764Y-79630760D01*
X95611665Y-79799517D01*
X95647300Y-79978668D01*
X95647300Y-80161332D01*
X95611665Y-80340483D01*
X95541764Y-80509240D01*
X95440282Y-80661118D01*
X95311118Y-80790282D01*
X95159240Y-80891764D01*
X94990483Y-80961665D01*
X94811332Y-80997300D01*
X94628668Y-80997300D01*
X94449517Y-80961665D01*
X94280760Y-80891764D01*
X94128882Y-80790282D01*
X93999718Y-80661118D01*
X93898236Y-80509240D01*
X93828335Y-80340483D01*
X93792700Y-80161332D01*
X93792700Y-79978668D01*
X93828335Y-79799517D01*
X93898236Y-79630760D01*
X93999718Y-79478882D01*
X94128882Y-79349718D01*
X94280760Y-79248236D01*
X94449517Y-79178335D01*
X94628668Y-79142700D01*
X94811332Y-79142700D01*
X94990483Y-79178335D01*
G37*
G36*
X92660483Y-77748335D02*
G01*
X92829240Y-77818236D01*
X92981118Y-77919718D01*
X93110282Y-78048882D01*
X93211764Y-78200760D01*
X93281665Y-78369517D01*
X93317300Y-78548668D01*
X93317300Y-78731332D01*
X93281665Y-78910483D01*
X93211764Y-79079240D01*
X93110282Y-79231118D01*
X92981118Y-79360282D01*
X92829240Y-79461764D01*
X92660483Y-79531665D01*
X92481332Y-79567300D01*
X92298668Y-79567300D01*
X92119517Y-79531665D01*
X91950760Y-79461764D01*
X91798882Y-79360282D01*
X91669718Y-79231118D01*
X91568236Y-79079240D01*
X91498335Y-78910483D01*
X91462700Y-78731332D01*
X91462700Y-78548668D01*
X91498335Y-78369517D01*
X91568236Y-78200760D01*
X91669718Y-78048882D01*
X91798882Y-77919718D01*
X91950760Y-77818236D01*
X92119517Y-77748335D01*
X92298668Y-77712700D01*
X92481332Y-77712700D01*
X92660483Y-77748335D01*
G37*
G36*
X112900483Y-77748335D02*
G01*
X113069240Y-77818236D01*
X113221118Y-77919718D01*
X113350282Y-78048882D01*
X113451764Y-78200760D01*
X113521665Y-78369517D01*
X113557300Y-78548668D01*
X113557300Y-78731332D01*
X113521665Y-78910483D01*
X113451764Y-79079240D01*
X113350282Y-79231118D01*
X113221118Y-79360282D01*
X113069240Y-79461764D01*
X112900483Y-79531665D01*
X112721332Y-79567300D01*
X112538668Y-79567300D01*
X112359517Y-79531665D01*
X112190760Y-79461764D01*
X112038882Y-79360282D01*
X111909718Y-79231118D01*
X111808236Y-79079240D01*
X111738335Y-78910483D01*
X111702700Y-78731332D01*
X111702700Y-78548668D01*
X111738335Y-78369517D01*
X111808236Y-78200760D01*
X111909718Y-78048882D01*
X112038882Y-77919718D01*
X112190760Y-77818236D01*
X112359517Y-77748335D01*
X112538668Y-77712700D01*
X112721332Y-77712700D01*
X112900483Y-77748335D01*
G37*
G36*
X110230483Y-76638335D02*
G01*
X110399240Y-76708236D01*
X110551118Y-76809718D01*
X110680282Y-76938882D01*
X110781764Y-77090760D01*
X110851665Y-77259517D01*
X110887300Y-77438668D01*
X110887300Y-77621332D01*
X110851665Y-77800483D01*
X110781764Y-77969240D01*
X110680282Y-78121118D01*
X110551118Y-78250282D01*
X110399240Y-78351764D01*
X110230483Y-78421665D01*
X110051332Y-78457300D01*
X109868668Y-78457300D01*
X109689517Y-78421665D01*
X109520760Y-78351764D01*
X109368882Y-78250282D01*
X109239718Y-78121118D01*
X109138236Y-77969240D01*
X109068335Y-77800483D01*
X109032700Y-77621332D01*
X109032700Y-77438668D01*
X109068335Y-77259517D01*
X109138236Y-77090760D01*
X109239718Y-76938882D01*
X109368882Y-76809718D01*
X109520760Y-76708236D01*
X109689517Y-76638335D01*
X109868668Y-76602700D01*
X110051332Y-76602700D01*
X110230483Y-76638335D01*
G37*
G36*
X94990483Y-76638335D02*
G01*
X95159240Y-76708236D01*
X95311118Y-76809718D01*
X95440282Y-76938882D01*
X95541764Y-77090760D01*
X95611665Y-77259517D01*
X95647300Y-77438668D01*
X95647300Y-77621332D01*
X95611665Y-77800483D01*
X95541764Y-77969240D01*
X95440282Y-78121118D01*
X95311118Y-78250282D01*
X95159240Y-78351764D01*
X94990483Y-78421665D01*
X94811332Y-78457300D01*
X94628668Y-78457300D01*
X94449517Y-78421665D01*
X94280760Y-78351764D01*
X94128882Y-78250282D01*
X93999718Y-78121118D01*
X93898236Y-77969240D01*
X93828335Y-77800483D01*
X93792700Y-77621332D01*
X93792700Y-77438668D01*
X93828335Y-77259517D01*
X93898236Y-77090760D01*
X93999718Y-76938882D01*
X94128882Y-76809718D01*
X94280760Y-76708236D01*
X94449517Y-76638335D01*
X94628668Y-76602700D01*
X94811332Y-76602700D01*
X94990483Y-76638335D01*
G37*
G36*
X112900483Y-75208335D02*
G01*
X113069240Y-75278236D01*
X113221118Y-75379718D01*
X113350282Y-75508882D01*
X113451764Y-75660760D01*
X113521665Y-75829517D01*
X113557300Y-76008668D01*
X113557300Y-76191332D01*
X113521665Y-76370483D01*
X113451764Y-76539240D01*
X113350282Y-76691118D01*
X113221118Y-76820282D01*
X113069240Y-76921764D01*
X112900483Y-76991665D01*
X112721332Y-77027300D01*
X112538668Y-77027300D01*
X112359517Y-76991665D01*
X112190760Y-76921764D01*
X112038882Y-76820282D01*
X111909718Y-76691118D01*
X111808236Y-76539240D01*
X111738335Y-76370483D01*
X111702700Y-76191332D01*
X111702700Y-76008668D01*
X111738335Y-75829517D01*
X111808236Y-75660760D01*
X111909718Y-75508882D01*
X112038882Y-75379718D01*
X112190760Y-75278236D01*
X112359517Y-75208335D01*
X112538668Y-75172700D01*
X112721332Y-75172700D01*
X112900483Y-75208335D01*
G37*
G36*
X92660483Y-75208335D02*
G01*
X92829240Y-75278236D01*
X92981118Y-75379718D01*
X93110282Y-75508882D01*
X93211764Y-75660760D01*
X93281665Y-75829517D01*
X93317300Y-76008668D01*
X93317300Y-76191332D01*
X93281665Y-76370483D01*
X93211764Y-76539240D01*
X93110282Y-76691118D01*
X92981118Y-76820282D01*
X92829240Y-76921764D01*
X92660483Y-76991665D01*
X92481332Y-77027300D01*
X92298668Y-77027300D01*
X92119517Y-76991665D01*
X91950760Y-76921764D01*
X91798882Y-76820282D01*
X91669718Y-76691118D01*
X91568236Y-76539240D01*
X91498335Y-76370483D01*
X91462700Y-76191332D01*
X91462700Y-76008668D01*
X91498335Y-75829517D01*
X91568236Y-75660760D01*
X91669718Y-75508882D01*
X91798882Y-75379718D01*
X91950760Y-75278236D01*
X92119517Y-75208335D01*
X92298668Y-75172700D01*
X92481332Y-75172700D01*
X92660483Y-75208335D01*
G37*
G36*
X94990483Y-74098335D02*
G01*
X95159240Y-74168236D01*
X95311118Y-74269718D01*
X95440282Y-74398882D01*
X95541764Y-74550760D01*
X95611665Y-74719517D01*
X95647300Y-74898668D01*
X95647300Y-75081332D01*
X95611665Y-75260483D01*
X95541764Y-75429240D01*
X95440282Y-75581118D01*
X95311118Y-75710282D01*
X95159240Y-75811764D01*
X94990483Y-75881665D01*
X94811332Y-75917300D01*
X94628668Y-75917300D01*
X94449517Y-75881665D01*
X94280760Y-75811764D01*
X94128882Y-75710282D01*
X93999718Y-75581118D01*
X93898236Y-75429240D01*
X93828335Y-75260483D01*
X93792700Y-75081332D01*
X93792700Y-74898668D01*
X93828335Y-74719517D01*
X93898236Y-74550760D01*
X93999718Y-74398882D01*
X94128882Y-74269718D01*
X94280760Y-74168236D01*
X94449517Y-74098335D01*
X94628668Y-74062700D01*
X94811332Y-74062700D01*
X94990483Y-74098335D01*
G37*
G36*
X110230483Y-74098335D02*
G01*
X110399240Y-74168236D01*
X110551118Y-74269718D01*
X110680282Y-74398882D01*
X110781764Y-74550760D01*
X110851665Y-74719517D01*
X110887300Y-74898668D01*
X110887300Y-75081332D01*
X110851665Y-75260483D01*
X110781764Y-75429240D01*
X110680282Y-75581118D01*
X110551118Y-75710282D01*
X110399240Y-75811764D01*
X110230483Y-75881665D01*
X110051332Y-75917300D01*
X109868668Y-75917300D01*
X109689517Y-75881665D01*
X109520760Y-75811764D01*
X109368882Y-75710282D01*
X109239718Y-75581118D01*
X109138236Y-75429240D01*
X109068335Y-75260483D01*
X109032700Y-75081332D01*
X109032700Y-74898668D01*
X109068335Y-74719517D01*
X109138236Y-74550760D01*
X109239718Y-74398882D01*
X109368882Y-74269718D01*
X109520760Y-74168236D01*
X109689517Y-74098335D01*
X109868668Y-74062700D01*
X110051332Y-74062700D01*
X110230483Y-74098335D01*
G37*
G36*
X92660483Y-72668335D02*
G01*
X92829240Y-72738236D01*
X92981118Y-72839718D01*
X93110282Y-72968882D01*
X93211764Y-73120760D01*
X93281665Y-73289517D01*
X93317300Y-73468668D01*
X93317300Y-73651332D01*
X93281665Y-73830483D01*
X93211764Y-73999240D01*
X93110282Y-74151118D01*
X92981118Y-74280282D01*
X92829240Y-74381764D01*
X92660483Y-74451665D01*
X92481332Y-74487300D01*
X92298668Y-74487300D01*
X92119517Y-74451665D01*
X91950760Y-74381764D01*
X91798882Y-74280282D01*
X91669718Y-74151118D01*
X91568236Y-73999240D01*
X91498335Y-73830483D01*
X91462700Y-73651332D01*
X91462700Y-73468668D01*
X91498335Y-73289517D01*
X91568236Y-73120760D01*
X91669718Y-72968882D01*
X91798882Y-72839718D01*
X91950760Y-72738236D01*
X92119517Y-72668335D01*
X92298668Y-72632700D01*
X92481332Y-72632700D01*
X92660483Y-72668335D01*
G37*
G36*
X112900483Y-72668335D02*
G01*
X113069240Y-72738236D01*
X113221118Y-72839718D01*
X113350282Y-72968882D01*
X113451764Y-73120760D01*
X113521665Y-73289517D01*
X113557300Y-73468668D01*
X113557300Y-73651332D01*
X113521665Y-73830483D01*
X113451764Y-73999240D01*
X113350282Y-74151118D01*
X113221118Y-74280282D01*
X113069240Y-74381764D01*
X112900483Y-74451665D01*
X112721332Y-74487300D01*
X112538668Y-74487300D01*
X112359517Y-74451665D01*
X112190760Y-74381764D01*
X112038882Y-74280282D01*
X111909718Y-74151118D01*
X111808236Y-73999240D01*
X111738335Y-73830483D01*
X111702700Y-73651332D01*
X111702700Y-73468668D01*
X111738335Y-73289517D01*
X111808236Y-73120760D01*
X111909718Y-72968882D01*
X112038882Y-72839718D01*
X112190760Y-72738236D01*
X112359517Y-72668335D01*
X112538668Y-72632700D01*
X112721332Y-72632700D01*
X112900483Y-72668335D01*
G37*
G36*
X110230483Y-71558335D02*
G01*
X110399240Y-71628236D01*
X110551118Y-71729718D01*
X110680282Y-71858882D01*
X110781764Y-72010760D01*
X110851665Y-72179517D01*
X110887300Y-72358668D01*
X110887300Y-72541332D01*
X110851665Y-72720483D01*
X110781764Y-72889240D01*
X110680282Y-73041118D01*
X110551118Y-73170282D01*
X110399240Y-73271764D01*
X110230483Y-73341665D01*
X110051332Y-73377300D01*
X109868668Y-73377300D01*
X109689517Y-73341665D01*
X109520760Y-73271764D01*
X109368882Y-73170282D01*
X109239718Y-73041118D01*
X109138236Y-72889240D01*
X109068335Y-72720483D01*
X109032700Y-72541332D01*
X109032700Y-72358668D01*
X109068335Y-72179517D01*
X109138236Y-72010760D01*
X109239718Y-71858882D01*
X109368882Y-71729718D01*
X109520760Y-71628236D01*
X109689517Y-71558335D01*
X109868668Y-71522700D01*
X110051332Y-71522700D01*
X110230483Y-71558335D01*
G37*
G36*
X94990483Y-71558335D02*
G01*
X95159240Y-71628236D01*
X95311118Y-71729718D01*
X95440282Y-71858882D01*
X95541764Y-72010760D01*
X95611665Y-72179517D01*
X95647300Y-72358668D01*
X95647300Y-72541332D01*
X95611665Y-72720483D01*
X95541764Y-72889240D01*
X95440282Y-73041118D01*
X95311118Y-73170282D01*
X95159240Y-73271764D01*
X94990483Y-73341665D01*
X94811332Y-73377300D01*
X94628668Y-73377300D01*
X94449517Y-73341665D01*
X94280760Y-73271764D01*
X94128882Y-73170282D01*
X93999718Y-73041118D01*
X93898236Y-72889240D01*
X93828335Y-72720483D01*
X93792700Y-72541332D01*
X93792700Y-72358668D01*
X93828335Y-72179517D01*
X93898236Y-72010760D01*
X93999718Y-71858882D01*
X94128882Y-71729718D01*
X94280760Y-71628236D01*
X94449517Y-71558335D01*
X94628668Y-71522700D01*
X94811332Y-71522700D01*
X94990483Y-71558335D01*
G37*
G36*
X92660483Y-70128335D02*
G01*
X92829240Y-70198236D01*
X92981118Y-70299718D01*
X93110282Y-70428882D01*
X93211764Y-70580760D01*
X93281665Y-70749517D01*
X93317300Y-70928668D01*
X93317300Y-71111332D01*
X93281665Y-71290483D01*
X93211764Y-71459240D01*
X93110282Y-71611118D01*
X92981118Y-71740282D01*
X92829240Y-71841764D01*
X92660483Y-71911665D01*
X92481332Y-71947300D01*
X92298668Y-71947300D01*
X92119517Y-71911665D01*
X91950760Y-71841764D01*
X91798882Y-71740282D01*
X91669718Y-71611118D01*
X91568236Y-71459240D01*
X91498335Y-71290483D01*
X91462700Y-71111332D01*
X91462700Y-70928668D01*
X91498335Y-70749517D01*
X91568236Y-70580760D01*
X91669718Y-70428882D01*
X91798882Y-70299718D01*
X91950760Y-70198236D01*
X92119517Y-70128335D01*
X92298668Y-70092700D01*
X92481332Y-70092700D01*
X92660483Y-70128335D01*
G37*
G36*
X112900483Y-70128335D02*
G01*
X113069240Y-70198236D01*
X113221118Y-70299718D01*
X113350282Y-70428882D01*
X113451764Y-70580760D01*
X113521665Y-70749517D01*
X113557300Y-70928668D01*
X113557300Y-71111332D01*
X113521665Y-71290483D01*
X113451764Y-71459240D01*
X113350282Y-71611118D01*
X113221118Y-71740282D01*
X113069240Y-71841764D01*
X112900483Y-71911665D01*
X112721332Y-71947300D01*
X112538668Y-71947300D01*
X112359517Y-71911665D01*
X112190760Y-71841764D01*
X112038882Y-71740282D01*
X111909718Y-71611118D01*
X111808236Y-71459240D01*
X111738335Y-71290483D01*
X111702700Y-71111332D01*
X111702700Y-70928668D01*
X111738335Y-70749517D01*
X111808236Y-70580760D01*
X111909718Y-70428882D01*
X112038882Y-70299718D01*
X112190760Y-70198236D01*
X112359517Y-70128335D01*
X112538668Y-70092700D01*
X112721332Y-70092700D01*
X112900483Y-70128335D01*
G37*
G36*
X110230483Y-69018335D02*
G01*
X110399240Y-69088236D01*
X110551118Y-69189718D01*
X110680282Y-69318882D01*
X110781764Y-69470760D01*
X110851665Y-69639517D01*
X110887300Y-69818668D01*
X110887300Y-70001332D01*
X110851665Y-70180483D01*
X110781764Y-70349240D01*
X110680282Y-70501118D01*
X110551118Y-70630282D01*
X110399240Y-70731764D01*
X110230483Y-70801665D01*
X110051332Y-70837300D01*
X109868668Y-70837300D01*
X109689517Y-70801665D01*
X109520760Y-70731764D01*
X109368882Y-70630282D01*
X109239718Y-70501118D01*
X109138236Y-70349240D01*
X109068335Y-70180483D01*
X109032700Y-70001332D01*
X109032700Y-69818668D01*
X109068335Y-69639517D01*
X109138236Y-69470760D01*
X109239718Y-69318882D01*
X109368882Y-69189718D01*
X109520760Y-69088236D01*
X109689517Y-69018335D01*
X109868668Y-68982700D01*
X110051332Y-68982700D01*
X110230483Y-69018335D01*
G37*
G36*
X94990483Y-69018335D02*
G01*
X95159240Y-69088236D01*
X95311118Y-69189718D01*
X95440282Y-69318882D01*
X95541764Y-69470760D01*
X95611665Y-69639517D01*
X95647300Y-69818668D01*
X95647300Y-70001332D01*
X95611665Y-70180483D01*
X95541764Y-70349240D01*
X95440282Y-70501118D01*
X95311118Y-70630282D01*
X95159240Y-70731764D01*
X94990483Y-70801665D01*
X94811332Y-70837300D01*
X94628668Y-70837300D01*
X94449517Y-70801665D01*
X94280760Y-70731764D01*
X94128882Y-70630282D01*
X93999718Y-70501118D01*
X93898236Y-70349240D01*
X93828335Y-70180483D01*
X93792700Y-70001332D01*
X93792700Y-69818668D01*
X93828335Y-69639517D01*
X93898236Y-69470760D01*
X93999718Y-69318882D01*
X94128882Y-69189718D01*
X94280760Y-69088236D01*
X94449517Y-69018335D01*
X94628668Y-68982700D01*
X94811332Y-68982700D01*
X94990483Y-69018335D01*
G37*
G36*
X112900483Y-67588335D02*
G01*
X113069240Y-67658236D01*
X113221118Y-67759718D01*
X113350282Y-67888882D01*
X113451764Y-68040760D01*
X113521665Y-68209517D01*
X113557300Y-68388668D01*
X113557300Y-68571332D01*
X113521665Y-68750483D01*
X113451764Y-68919240D01*
X113350282Y-69071118D01*
X113221118Y-69200282D01*
X113069240Y-69301764D01*
X112900483Y-69371665D01*
X112721332Y-69407300D01*
X112538668Y-69407300D01*
X112359517Y-69371665D01*
X112190760Y-69301764D01*
X112038882Y-69200282D01*
X111909718Y-69071118D01*
X111808236Y-68919240D01*
X111738335Y-68750483D01*
X111702700Y-68571332D01*
X111702700Y-68388668D01*
X111738335Y-68209517D01*
X111808236Y-68040760D01*
X111909718Y-67888882D01*
X112038882Y-67759718D01*
X112190760Y-67658236D01*
X112359517Y-67588335D01*
X112538668Y-67552700D01*
X112721332Y-67552700D01*
X112900483Y-67588335D01*
G37*
G36*
X92660483Y-67588335D02*
G01*
X92829240Y-67658236D01*
X92981118Y-67759718D01*
X93110282Y-67888882D01*
X93211764Y-68040760D01*
X93281665Y-68209517D01*
X93317300Y-68388668D01*
X93317300Y-68571332D01*
X93281665Y-68750483D01*
X93211764Y-68919240D01*
X93110282Y-69071118D01*
X92981118Y-69200282D01*
X92829240Y-69301764D01*
X92660483Y-69371665D01*
X92481332Y-69407300D01*
X92298668Y-69407300D01*
X92119517Y-69371665D01*
X91950760Y-69301764D01*
X91798882Y-69200282D01*
X91669718Y-69071118D01*
X91568236Y-68919240D01*
X91498335Y-68750483D01*
X91462700Y-68571332D01*
X91462700Y-68388668D01*
X91498335Y-68209517D01*
X91568236Y-68040760D01*
X91669718Y-67888882D01*
X91798882Y-67759718D01*
X91950760Y-67658236D01*
X92119517Y-67588335D01*
X92298668Y-67552700D01*
X92481332Y-67552700D01*
X92660483Y-67588335D01*
G37*
G36*
X94990483Y-66478335D02*
G01*
X95159240Y-66548236D01*
X95311118Y-66649718D01*
X95440282Y-66778882D01*
X95541764Y-66930760D01*
X95611665Y-67099517D01*
X95647300Y-67278668D01*
X95647300Y-67461332D01*
X95611665Y-67640483D01*
X95541764Y-67809240D01*
X95440282Y-67961118D01*
X95311118Y-68090282D01*
X95159240Y-68191764D01*
X94990483Y-68261665D01*
X94811332Y-68297300D01*
X94628668Y-68297300D01*
X94449517Y-68261665D01*
X94280760Y-68191764D01*
X94128882Y-68090282D01*
X93999718Y-67961118D01*
X93898236Y-67809240D01*
X93828335Y-67640483D01*
X93792700Y-67461332D01*
X93792700Y-67278668D01*
X93828335Y-67099517D01*
X93898236Y-66930760D01*
X93999718Y-66778882D01*
X94128882Y-66649718D01*
X94280760Y-66548236D01*
X94449517Y-66478335D01*
X94628668Y-66442700D01*
X94811332Y-66442700D01*
X94990483Y-66478335D01*
G37*
G36*
X110230483Y-66478335D02*
G01*
X110399240Y-66548236D01*
X110551118Y-66649718D01*
X110680282Y-66778882D01*
X110781764Y-66930760D01*
X110851665Y-67099517D01*
X110887300Y-67278668D01*
X110887300Y-67461332D01*
X110851665Y-67640483D01*
X110781764Y-67809240D01*
X110680282Y-67961118D01*
X110551118Y-68090282D01*
X110399240Y-68191764D01*
X110230483Y-68261665D01*
X110051332Y-68297300D01*
X109868668Y-68297300D01*
X109689517Y-68261665D01*
X109520760Y-68191764D01*
X109368882Y-68090282D01*
X109239718Y-67961118D01*
X109138236Y-67809240D01*
X109068335Y-67640483D01*
X109032700Y-67461332D01*
X109032700Y-67278668D01*
X109068335Y-67099517D01*
X109138236Y-66930760D01*
X109239718Y-66778882D01*
X109368882Y-66649718D01*
X109520760Y-66548236D01*
X109689517Y-66478335D01*
X109868668Y-66442700D01*
X110051332Y-66442700D01*
X110230483Y-66478335D01*
G37*
G36*
X112900483Y-65048335D02*
G01*
X113069240Y-65118236D01*
X113221118Y-65219718D01*
X113350282Y-65348882D01*
X113451764Y-65500760D01*
X113521665Y-65669517D01*
X113557300Y-65848668D01*
X113557300Y-66031332D01*
X113521665Y-66210483D01*
X113451764Y-66379240D01*
X113350282Y-66531118D01*
X113221118Y-66660282D01*
X113069240Y-66761764D01*
X112900483Y-66831665D01*
X112721332Y-66867300D01*
X112538668Y-66867300D01*
X112359517Y-66831665D01*
X112190760Y-66761764D01*
X112038882Y-66660282D01*
X111909718Y-66531118D01*
X111808236Y-66379240D01*
X111738335Y-66210483D01*
X111702700Y-66031332D01*
X111702700Y-65848668D01*
X111738335Y-65669517D01*
X111808236Y-65500760D01*
X111909718Y-65348882D01*
X112038882Y-65219718D01*
X112190760Y-65118236D01*
X112359517Y-65048335D01*
X112538668Y-65012700D01*
X112721332Y-65012700D01*
X112900483Y-65048335D01*
G37*
G36*
X92660483Y-65048335D02*
G01*
X92829240Y-65118236D01*
X92981118Y-65219718D01*
X93110282Y-65348882D01*
X93211764Y-65500760D01*
X93281665Y-65669517D01*
X93317300Y-65848668D01*
X93317300Y-66031332D01*
X93281665Y-66210483D01*
X93211764Y-66379240D01*
X93110282Y-66531118D01*
X92981118Y-66660282D01*
X92829240Y-66761764D01*
X92660483Y-66831665D01*
X92481332Y-66867300D01*
X92298668Y-66867300D01*
X92119517Y-66831665D01*
X91950760Y-66761764D01*
X91798882Y-66660282D01*
X91669718Y-66531118D01*
X91568236Y-66379240D01*
X91498335Y-66210483D01*
X91462700Y-66031332D01*
X91462700Y-65848668D01*
X91498335Y-65669517D01*
X91568236Y-65500760D01*
X91669718Y-65348882D01*
X91798882Y-65219718D01*
X91950760Y-65118236D01*
X92119517Y-65048335D01*
X92298668Y-65012700D01*
X92481332Y-65012700D01*
X92660483Y-65048335D01*
G37*
G36*
X94990483Y-63938335D02*
G01*
X95159240Y-64008236D01*
X95311118Y-64109718D01*
X95440282Y-64238882D01*
X95541764Y-64390760D01*
X95611665Y-64559517D01*
X95647300Y-64738668D01*
X95647300Y-64921332D01*
X95611665Y-65100483D01*
X95541764Y-65269240D01*
X95440282Y-65421118D01*
X95311118Y-65550282D01*
X95159240Y-65651764D01*
X94990483Y-65721665D01*
X94811332Y-65757300D01*
X94628668Y-65757300D01*
X94449517Y-65721665D01*
X94280760Y-65651764D01*
X94128882Y-65550282D01*
X93999718Y-65421118D01*
X93898236Y-65269240D01*
X93828335Y-65100483D01*
X93792700Y-64921332D01*
X93792700Y-64738668D01*
X93828335Y-64559517D01*
X93898236Y-64390760D01*
X93999718Y-64238882D01*
X94128882Y-64109718D01*
X94280760Y-64008236D01*
X94449517Y-63938335D01*
X94628668Y-63902700D01*
X94811332Y-63902700D01*
X94990483Y-63938335D01*
G37*
G36*
X110230483Y-63938335D02*
G01*
X110399240Y-64008236D01*
X110551118Y-64109718D01*
X110680282Y-64238882D01*
X110781764Y-64390760D01*
X110851665Y-64559517D01*
X110887300Y-64738668D01*
X110887300Y-64921332D01*
X110851665Y-65100483D01*
X110781764Y-65269240D01*
X110680282Y-65421118D01*
X110551118Y-65550282D01*
X110399240Y-65651764D01*
X110230483Y-65721665D01*
X110051332Y-65757300D01*
X109868668Y-65757300D01*
X109689517Y-65721665D01*
X109520760Y-65651764D01*
X109368882Y-65550282D01*
X109239718Y-65421118D01*
X109138236Y-65269240D01*
X109068335Y-65100483D01*
X109032700Y-64921332D01*
X109032700Y-64738668D01*
X109068335Y-64559517D01*
X109138236Y-64390760D01*
X109239718Y-64238882D01*
X109368882Y-64109718D01*
X109520760Y-64008236D01*
X109689517Y-63938335D01*
X109868668Y-63902700D01*
X110051332Y-63902700D01*
X110230483Y-63938335D01*
G37*
G36*
X87953512Y-62983927D02*
G01*
X88102812Y-63013624D01*
X88266784Y-63081544D01*
X88414354Y-63180147D01*
X88539853Y-63305646D01*
X88638456Y-63453216D01*
X88706376Y-63617188D01*
X88741000Y-63791259D01*
X88741000Y-63968741D01*
X88706376Y-64142812D01*
X88638456Y-64306784D01*
X88539853Y-64454354D01*
X88414354Y-64579853D01*
X88266784Y-64678456D01*
X88102812Y-64746376D01*
X87953512Y-64776073D01*
X87928742Y-64781000D01*
X87751258Y-64781000D01*
X87726488Y-64776073D01*
X87577188Y-64746376D01*
X87413216Y-64678456D01*
X87265646Y-64579853D01*
X87140147Y-64454354D01*
X87041544Y-64306784D01*
X86973624Y-64142812D01*
X86939000Y-63968741D01*
X86939000Y-63791259D01*
X86973624Y-63617188D01*
X87041544Y-63453216D01*
X87140147Y-63305646D01*
X87265646Y-63180147D01*
X87413216Y-63081544D01*
X87577188Y-63013624D01*
X87726488Y-62983927D01*
X87751258Y-62979000D01*
X87928742Y-62979000D01*
X87953512Y-62983927D01*
G37*
G36*
X112900483Y-62508335D02*
G01*
X113069240Y-62578236D01*
X113221118Y-62679718D01*
X113350282Y-62808882D01*
X113451764Y-62960760D01*
X113521665Y-63129517D01*
X113557300Y-63308668D01*
X113557300Y-63491332D01*
X113521665Y-63670483D01*
X113451764Y-63839240D01*
X113350282Y-63991118D01*
X113221118Y-64120282D01*
X113069240Y-64221764D01*
X112900483Y-64291665D01*
X112721332Y-64327300D01*
X112538668Y-64327300D01*
X112359517Y-64291665D01*
X112190760Y-64221764D01*
X112038882Y-64120282D01*
X111909718Y-63991118D01*
X111808236Y-63839240D01*
X111738335Y-63670483D01*
X111702700Y-63491332D01*
X111702700Y-63308668D01*
X111738335Y-63129517D01*
X111808236Y-62960760D01*
X111909718Y-62808882D01*
X112038882Y-62679718D01*
X112190760Y-62578236D01*
X112359517Y-62508335D01*
X112538668Y-62472700D01*
X112721332Y-62472700D01*
X112900483Y-62508335D01*
G37*
G36*
X92660483Y-62508335D02*
G01*
X92829240Y-62578236D01*
X92981118Y-62679718D01*
X93110282Y-62808882D01*
X93211764Y-62960760D01*
X93281665Y-63129517D01*
X93317300Y-63308668D01*
X93317300Y-63491332D01*
X93281665Y-63670483D01*
X93211764Y-63839240D01*
X93110282Y-63991118D01*
X92981118Y-64120282D01*
X92829240Y-64221764D01*
X92660483Y-64291665D01*
X92481332Y-64327300D01*
X92298668Y-64327300D01*
X92119517Y-64291665D01*
X91950760Y-64221764D01*
X91798882Y-64120282D01*
X91669718Y-63991118D01*
X91568236Y-63839240D01*
X91498335Y-63670483D01*
X91462700Y-63491332D01*
X91462700Y-63308668D01*
X91498335Y-63129517D01*
X91568236Y-62960760D01*
X91669718Y-62808882D01*
X91798882Y-62679718D01*
X91950760Y-62578236D01*
X92119517Y-62508335D01*
X92298668Y-62472700D01*
X92481332Y-62472700D01*
X92660483Y-62508335D01*
G37*
G36*
X94990483Y-61398335D02*
G01*
X95159240Y-61468236D01*
X95311118Y-61569718D01*
X95440282Y-61698882D01*
X95541764Y-61850760D01*
X95611665Y-62019517D01*
X95647300Y-62198668D01*
X95647300Y-62381332D01*
X95611665Y-62560483D01*
X95541764Y-62729240D01*
X95440282Y-62881118D01*
X95311118Y-63010282D01*
X95159240Y-63111764D01*
X94990483Y-63181665D01*
X94811332Y-63217300D01*
X94628668Y-63217300D01*
X94449517Y-63181665D01*
X94280760Y-63111764D01*
X94128882Y-63010282D01*
X93999718Y-62881118D01*
X93898236Y-62729240D01*
X93828335Y-62560483D01*
X93792700Y-62381332D01*
X93792700Y-62198668D01*
X93828335Y-62019517D01*
X93898236Y-61850760D01*
X93999718Y-61698882D01*
X94128882Y-61569718D01*
X94280760Y-61468236D01*
X94449517Y-61398335D01*
X94628668Y-61362700D01*
X94811332Y-61362700D01*
X94990483Y-61398335D01*
G37*
G36*
X110230483Y-61398335D02*
G01*
X110399240Y-61468236D01*
X110551118Y-61569718D01*
X110680282Y-61698882D01*
X110781764Y-61850760D01*
X110851665Y-62019517D01*
X110887300Y-62198668D01*
X110887300Y-62381332D01*
X110851665Y-62560483D01*
X110781764Y-62729240D01*
X110680282Y-62881118D01*
X110551118Y-63010282D01*
X110399240Y-63111764D01*
X110230483Y-63181665D01*
X110051332Y-63217300D01*
X109868668Y-63217300D01*
X109689517Y-63181665D01*
X109520760Y-63111764D01*
X109368882Y-63010282D01*
X109239718Y-62881118D01*
X109138236Y-62729240D01*
X109068335Y-62560483D01*
X109032700Y-62381332D01*
X109032700Y-62198668D01*
X109068335Y-62019517D01*
X109138236Y-61850760D01*
X109239718Y-61698882D01*
X109368882Y-61569718D01*
X109520760Y-61468236D01*
X109689517Y-61398335D01*
X109868668Y-61362700D01*
X110051332Y-61362700D01*
X110230483Y-61398335D01*
G37*
G36*
X92660483Y-59968335D02*
G01*
X92829240Y-60038236D01*
X92981118Y-60139718D01*
X93110282Y-60268882D01*
X93211764Y-60420760D01*
X93281665Y-60589517D01*
X93317300Y-60768668D01*
X93317300Y-60951332D01*
X93281665Y-61130483D01*
X93211764Y-61299240D01*
X93110282Y-61451118D01*
X92981118Y-61580282D01*
X92829240Y-61681764D01*
X92660483Y-61751665D01*
X92481332Y-61787300D01*
X92298668Y-61787300D01*
X92119517Y-61751665D01*
X91950760Y-61681764D01*
X91798882Y-61580282D01*
X91669718Y-61451118D01*
X91568236Y-61299240D01*
X91498335Y-61130483D01*
X91462700Y-60951332D01*
X91462700Y-60768668D01*
X91498335Y-60589517D01*
X91568236Y-60420760D01*
X91669718Y-60268882D01*
X91798882Y-60139718D01*
X91950760Y-60038236D01*
X92119517Y-59968335D01*
X92298668Y-59932700D01*
X92481332Y-59932700D01*
X92660483Y-59968335D01*
G37*
G36*
X112900483Y-59968335D02*
G01*
X113069240Y-60038236D01*
X113221118Y-60139718D01*
X113350282Y-60268882D01*
X113451764Y-60420760D01*
X113521665Y-60589517D01*
X113557300Y-60768668D01*
X113557300Y-60951332D01*
X113521665Y-61130483D01*
X113451764Y-61299240D01*
X113350282Y-61451118D01*
X113221118Y-61580282D01*
X113069240Y-61681764D01*
X112900483Y-61751665D01*
X112721332Y-61787300D01*
X112538668Y-61787300D01*
X112359517Y-61751665D01*
X112190760Y-61681764D01*
X112038882Y-61580282D01*
X111909718Y-61451118D01*
X111808236Y-61299240D01*
X111738335Y-61130483D01*
X111702700Y-60951332D01*
X111702700Y-60768668D01*
X111738335Y-60589517D01*
X111808236Y-60420760D01*
X111909718Y-60268882D01*
X112038882Y-60139718D01*
X112190760Y-60038236D01*
X112359517Y-59968335D01*
X112538668Y-59932700D01*
X112721332Y-59932700D01*
X112900483Y-59968335D01*
G37*
G36*
X87973512Y-59893927D02*
G01*
X88122812Y-59923624D01*
X88286784Y-59991544D01*
X88434354Y-60090147D01*
X88559853Y-60215646D01*
X88658456Y-60363216D01*
X88726376Y-60527188D01*
X88761000Y-60701259D01*
X88761000Y-60878741D01*
X88726376Y-61052812D01*
X88658456Y-61216784D01*
X88559853Y-61364354D01*
X88434354Y-61489853D01*
X88286784Y-61588456D01*
X88122812Y-61656376D01*
X87973512Y-61686073D01*
X87948742Y-61691000D01*
X87771258Y-61691000D01*
X87746488Y-61686073D01*
X87597188Y-61656376D01*
X87433216Y-61588456D01*
X87285646Y-61489853D01*
X87160147Y-61364354D01*
X87061544Y-61216784D01*
X86993624Y-61052812D01*
X86959000Y-60878741D01*
X86959000Y-60701259D01*
X86993624Y-60527188D01*
X87061544Y-60363216D01*
X87160147Y-60215646D01*
X87285646Y-60090147D01*
X87433216Y-59991544D01*
X87597188Y-59923624D01*
X87746488Y-59893927D01*
X87771258Y-59889000D01*
X87948742Y-59889000D01*
X87973512Y-59893927D01*
G37*
G36*
X110230483Y-58858335D02*
G01*
X110399240Y-58928236D01*
X110551118Y-59029718D01*
X110680282Y-59158882D01*
X110781764Y-59310760D01*
X110851665Y-59479517D01*
X110887300Y-59658668D01*
X110887300Y-59841332D01*
X110851665Y-60020483D01*
X110781764Y-60189240D01*
X110680282Y-60341118D01*
X110551118Y-60470282D01*
X110399240Y-60571764D01*
X110230483Y-60641665D01*
X110051332Y-60677300D01*
X109868668Y-60677300D01*
X109689517Y-60641665D01*
X109520760Y-60571764D01*
X109368882Y-60470282D01*
X109239718Y-60341118D01*
X109138236Y-60189240D01*
X109068335Y-60020483D01*
X109032700Y-59841332D01*
X109032700Y-59658668D01*
X109068335Y-59479517D01*
X109138236Y-59310760D01*
X109239718Y-59158882D01*
X109368882Y-59029718D01*
X109520760Y-58928236D01*
X109689517Y-58858335D01*
X109868668Y-58822700D01*
X110051332Y-58822700D01*
X110230483Y-58858335D01*
G37*
G36*
X94990483Y-58858335D02*
G01*
X95159240Y-58928236D01*
X95311118Y-59029718D01*
X95440282Y-59158882D01*
X95541764Y-59310760D01*
X95611665Y-59479517D01*
X95647300Y-59658668D01*
X95647300Y-59841332D01*
X95611665Y-60020483D01*
X95541764Y-60189240D01*
X95440282Y-60341118D01*
X95311118Y-60470282D01*
X95159240Y-60571764D01*
X94990483Y-60641665D01*
X94811332Y-60677300D01*
X94628668Y-60677300D01*
X94449517Y-60641665D01*
X94280760Y-60571764D01*
X94128882Y-60470282D01*
X93999718Y-60341118D01*
X93898236Y-60189240D01*
X93828335Y-60020483D01*
X93792700Y-59841332D01*
X93792700Y-59658668D01*
X93828335Y-59479517D01*
X93898236Y-59310760D01*
X93999718Y-59158882D01*
X94128882Y-59029718D01*
X94280760Y-58928236D01*
X94449517Y-58858335D01*
X94628668Y-58822700D01*
X94811332Y-58822700D01*
X94990483Y-58858335D01*
G37*
G36*
X92660483Y-57428335D02*
G01*
X92829240Y-57498236D01*
X92981118Y-57599718D01*
X93110282Y-57728882D01*
X93211764Y-57880760D01*
X93281665Y-58049517D01*
X93317300Y-58228668D01*
X93317300Y-58411332D01*
X93281665Y-58590483D01*
X93211764Y-58759240D01*
X93110282Y-58911118D01*
X92981118Y-59040282D01*
X92829240Y-59141764D01*
X92660483Y-59211665D01*
X92481332Y-59247300D01*
X92298668Y-59247300D01*
X92119517Y-59211665D01*
X91950760Y-59141764D01*
X91798882Y-59040282D01*
X91669718Y-58911118D01*
X91568236Y-58759240D01*
X91498335Y-58590483D01*
X91462700Y-58411332D01*
X91462700Y-58228668D01*
X91498335Y-58049517D01*
X91568236Y-57880760D01*
X91669718Y-57728882D01*
X91798882Y-57599718D01*
X91950760Y-57498236D01*
X92119517Y-57428335D01*
X92298668Y-57392700D01*
X92481332Y-57392700D01*
X92660483Y-57428335D01*
G37*
G36*
X113557300Y-59247300D02*
G01*
X111702700Y-59247300D01*
X111702700Y-57392700D01*
X113557300Y-57392700D01*
X113557300Y-59247300D01*
G37*
G36*
X110230483Y-56318335D02*
G01*
X110399240Y-56388236D01*
X110551118Y-56489718D01*
X110680282Y-56618882D01*
X110781764Y-56770760D01*
X110851665Y-56939517D01*
X110887300Y-57118668D01*
X110887300Y-57301332D01*
X110851665Y-57480483D01*
X110781764Y-57649240D01*
X110680282Y-57801118D01*
X110551118Y-57930282D01*
X110399240Y-58031764D01*
X110230483Y-58101665D01*
X110051332Y-58137300D01*
X109868668Y-58137300D01*
X109689517Y-58101665D01*
X109520760Y-58031764D01*
X109368882Y-57930282D01*
X109239718Y-57801118D01*
X109138236Y-57649240D01*
X109068335Y-57480483D01*
X109032700Y-57301332D01*
X109032700Y-57118668D01*
X109068335Y-56939517D01*
X109138236Y-56770760D01*
X109239718Y-56618882D01*
X109368882Y-56489718D01*
X109520760Y-56388236D01*
X109689517Y-56318335D01*
X109868668Y-56282700D01*
X110051332Y-56282700D01*
X110230483Y-56318335D01*
G37*
G36*
X94990483Y-56318335D02*
G01*
X95159240Y-56388236D01*
X95311118Y-56489718D01*
X95440282Y-56618882D01*
X95541764Y-56770760D01*
X95611665Y-56939517D01*
X95647300Y-57118668D01*
X95647300Y-57301332D01*
X95611665Y-57480483D01*
X95541764Y-57649240D01*
X95440282Y-57801118D01*
X95311118Y-57930282D01*
X95159240Y-58031764D01*
X94990483Y-58101665D01*
X94811332Y-58137300D01*
X94628668Y-58137300D01*
X94449517Y-58101665D01*
X94280760Y-58031764D01*
X94128882Y-57930282D01*
X93999718Y-57801118D01*
X93898236Y-57649240D01*
X93828335Y-57480483D01*
X93792700Y-57301332D01*
X93792700Y-57118668D01*
X93828335Y-56939517D01*
X93898236Y-56770760D01*
X93999718Y-56618882D01*
X94128882Y-56489718D01*
X94280760Y-56388236D01*
X94449517Y-56318335D01*
X94628668Y-56282700D01*
X94811332Y-56282700D01*
X94990483Y-56318335D01*
G37*
G36*
X110230483Y-53778335D02*
G01*
X110399240Y-53848236D01*
X110551118Y-53949718D01*
X110680282Y-54078882D01*
X110781764Y-54230760D01*
X110851665Y-54399517D01*
X110887300Y-54578668D01*
X110887300Y-54761332D01*
X110851665Y-54940483D01*
X110781764Y-55109240D01*
X110680282Y-55261118D01*
X110551118Y-55390282D01*
X110399240Y-55491764D01*
X110230483Y-55561665D01*
X110051332Y-55597300D01*
X109868668Y-55597300D01*
X109689517Y-55561665D01*
X109520760Y-55491764D01*
X109368882Y-55390282D01*
X109239718Y-55261118D01*
X109138236Y-55109240D01*
X109068335Y-54940483D01*
X109032700Y-54761332D01*
X109032700Y-54578668D01*
X109068335Y-54399517D01*
X109138236Y-54230760D01*
X109239718Y-54078882D01*
X109368882Y-53949718D01*
X109520760Y-53848236D01*
X109689517Y-53778335D01*
X109868668Y-53742700D01*
X110051332Y-53742700D01*
X110230483Y-53778335D01*
G37*
G36*
X94990483Y-53778335D02*
G01*
X95159240Y-53848236D01*
X95311118Y-53949718D01*
X95440282Y-54078882D01*
X95541764Y-54230760D01*
X95611665Y-54399517D01*
X95647300Y-54578668D01*
X95647300Y-54761332D01*
X95611665Y-54940483D01*
X95541764Y-55109240D01*
X95440282Y-55261118D01*
X95311118Y-55390282D01*
X95159240Y-55491764D01*
X94990483Y-55561665D01*
X94811332Y-55597300D01*
X94628668Y-55597300D01*
X94449517Y-55561665D01*
X94280760Y-55491764D01*
X94128882Y-55390282D01*
X93999718Y-55261118D01*
X93898236Y-55109240D01*
X93828335Y-54940483D01*
X93792700Y-54761332D01*
X93792700Y-54578668D01*
X93828335Y-54399517D01*
X93898236Y-54230760D01*
X93999718Y-54078882D01*
X94128882Y-53949718D01*
X94280760Y-53848236D01*
X94449517Y-53778335D01*
X94628668Y-53742700D01*
X94811332Y-53742700D01*
X94990483Y-53778335D01*
G37*
G36*
X87548254Y-49897818D02*
G01*
X87921511Y-50052426D01*
X87921513Y-50052427D01*
X87958115Y-50076884D01*
X88257436Y-50276884D01*
X88543116Y-50562564D01*
X88767574Y-50898489D01*
X88922182Y-51271746D01*
X89001000Y-51667993D01*
X89001000Y-52072007D01*
X88922182Y-52468254D01*
X88817442Y-52721118D01*
X88767573Y-52841513D01*
X88543116Y-53177436D01*
X88257436Y-53463116D01*
X87921513Y-53687573D01*
X87921512Y-53687574D01*
X87921511Y-53687574D01*
X87548254Y-53842182D01*
X87152007Y-53921000D01*
X86747993Y-53921000D01*
X86351746Y-53842182D01*
X85978489Y-53687574D01*
X85978488Y-53687574D01*
X85978487Y-53687573D01*
X85642564Y-53463116D01*
X85356884Y-53177436D01*
X85132427Y-52841513D01*
X85082558Y-52721118D01*
X84977818Y-52468254D01*
X84899000Y-52072007D01*
X84899000Y-51667993D01*
X84977818Y-51271746D01*
X85132426Y-50898489D01*
X85356884Y-50562564D01*
X85642564Y-50276884D01*
X85941885Y-50076884D01*
X85978487Y-50052427D01*
X85978489Y-50052426D01*
X86351746Y-49897818D01*
X86747993Y-49819000D01*
X87152007Y-49819000D01*
X87548254Y-49897818D01*
G37*
G36*
X118568254Y-49697818D02*
G01*
X118860813Y-49819000D01*
X118941513Y-49852427D01*
X119240832Y-50052426D01*
X119277436Y-50076884D01*
X119563116Y-50362564D01*
X119787574Y-50698489D01*
X119942182Y-51071746D01*
X120021000Y-51467993D01*
X120021000Y-51872007D01*
X119942182Y-52268254D01*
X119817509Y-52569241D01*
X119787573Y-52641513D01*
X119563116Y-52977436D01*
X119277436Y-53263116D01*
X118941513Y-53487573D01*
X118941512Y-53487574D01*
X118941511Y-53487574D01*
X118568254Y-53642182D01*
X118172007Y-53721000D01*
X117767993Y-53721000D01*
X117371746Y-53642182D01*
X116998489Y-53487574D01*
X116998488Y-53487574D01*
X116998487Y-53487573D01*
X116662564Y-53263116D01*
X116376884Y-52977436D01*
X116152427Y-52641513D01*
X116122491Y-52569241D01*
X115997818Y-52268254D01*
X115919000Y-51872007D01*
X115919000Y-51467993D01*
X115997818Y-51071746D01*
X116152426Y-50698489D01*
X116376884Y-50362564D01*
X116662564Y-50076884D01*
X116699168Y-50052426D01*
X116998487Y-49852427D01*
X117079187Y-49819000D01*
X117371746Y-49697818D01*
X117767993Y-49619000D01*
X118172007Y-49619000D01*
X118568254Y-49697818D01*
G37*
G36*
X110887300Y-53057300D02*
G01*
X109032700Y-53057300D01*
X109032700Y-51202700D01*
X110887300Y-51202700D01*
X110887300Y-53057300D01*
G37*
G36*
X94990483Y-51238335D02*
G01*
X95159240Y-51308236D01*
X95311118Y-51409718D01*
X95440282Y-51538882D01*
X95541764Y-51690760D01*
X95611665Y-51859517D01*
X95647300Y-52038668D01*
X95647300Y-52221332D01*
X95611665Y-52400483D01*
X95541764Y-52569240D01*
X95440282Y-52721118D01*
X95311118Y-52850282D01*
X95159240Y-52951764D01*
X94990483Y-53021665D01*
X94811332Y-53057300D01*
X94628668Y-53057300D01*
X94449517Y-53021665D01*
X94280760Y-52951764D01*
X94128882Y-52850282D01*
X93999718Y-52721118D01*
X93898236Y-52569240D01*
X93828335Y-52400483D01*
X93792700Y-52221332D01*
X93792700Y-52038668D01*
X93828335Y-51859517D01*
X93898236Y-51690760D01*
X93999718Y-51538882D01*
X94128882Y-51409718D01*
X94280760Y-51308236D01*
X94449517Y-51238335D01*
X94628668Y-51202700D01*
X94811332Y-51202700D01*
X94990483Y-51238335D01*
G37*
M02*
