G04 #@! TF.GenerationSoftware,KiCad,Pcbnew,(5.1.5-0-10_14)*
G04 #@! TF.CreationDate,2021-06-11T17:19:42+03:00*
G04 #@! TF.ProjectId,Wyse-converter,57797365-2d63-46f6-9e76-65727465722e,rev?*
G04 #@! TF.SameCoordinates,Original*
G04 #@! TF.FileFunction,Legend,Top*
G04 #@! TF.FilePolarity,Positive*
%FSLAX46Y46*%
G04 Gerber Fmt 4.6, Leading zero omitted, Abs format (unit mm)*
G04 Created by KiCad (PCBNEW (5.1.5-0-10_14)) date 2021-06-11 17:19:42*
%MOMM*%
%LPD*%
G04 APERTURE LIST*
%ADD10C,0.250000*%
%ADD11C,0.150000*%
%ADD12C,0.381000*%
G04 APERTURE END LIST*
D10*
X101592380Y-72183333D02*
X102401904Y-72183333D01*
X102497142Y-72135714D01*
X102544761Y-72088095D01*
X102592380Y-71992857D01*
X102592380Y-71802380D01*
X102544761Y-71707142D01*
X102497142Y-71659523D01*
X102401904Y-71611904D01*
X101592380Y-71611904D01*
X102544761Y-71183333D02*
X102592380Y-71040476D01*
X102592380Y-70802380D01*
X102544761Y-70707142D01*
X102497142Y-70659523D01*
X102401904Y-70611904D01*
X102306666Y-70611904D01*
X102211428Y-70659523D01*
X102163809Y-70707142D01*
X102116190Y-70802380D01*
X102068571Y-70992857D01*
X102020952Y-71088095D01*
X101973333Y-71135714D01*
X101878095Y-71183333D01*
X101782857Y-71183333D01*
X101687619Y-71135714D01*
X101640000Y-71088095D01*
X101592380Y-70992857D01*
X101592380Y-70754761D01*
X101640000Y-70611904D01*
X102068571Y-69850000D02*
X102116190Y-69707142D01*
X102163809Y-69659523D01*
X102259047Y-69611904D01*
X102401904Y-69611904D01*
X102497142Y-69659523D01*
X102544761Y-69707142D01*
X102592380Y-69802380D01*
X102592380Y-70183333D01*
X101592380Y-70183333D01*
X101592380Y-69850000D01*
X101640000Y-69754761D01*
X101687619Y-69707142D01*
X101782857Y-69659523D01*
X101878095Y-69659523D01*
X101973333Y-69707142D01*
X102020952Y-69754761D01*
X102068571Y-69850000D01*
X102068571Y-70183333D01*
X102068571Y-68088095D02*
X102068571Y-68421428D01*
X102592380Y-68421428D02*
X101592380Y-68421428D01*
X101592380Y-67945238D01*
X102306666Y-67611904D02*
X102306666Y-67135714D01*
X102592380Y-67707142D02*
X101592380Y-67373809D01*
X102592380Y-67040476D01*
X102497142Y-66135714D02*
X102544761Y-66183333D01*
X102592380Y-66326190D01*
X102592380Y-66421428D01*
X102544761Y-66564285D01*
X102449523Y-66659523D01*
X102354285Y-66707142D01*
X102163809Y-66754761D01*
X102020952Y-66754761D01*
X101830476Y-66707142D01*
X101735238Y-66659523D01*
X101640000Y-66564285D01*
X101592380Y-66421428D01*
X101592380Y-66326190D01*
X101640000Y-66183333D01*
X101687619Y-66135714D01*
X102592380Y-65707142D02*
X101592380Y-65707142D01*
X102592380Y-65230952D02*
X101592380Y-65230952D01*
X102592380Y-64659523D01*
X101592380Y-64659523D01*
X101640000Y-63659523D02*
X101592380Y-63754761D01*
X101592380Y-63897619D01*
X101640000Y-64040476D01*
X101735238Y-64135714D01*
X101830476Y-64183333D01*
X102020952Y-64230952D01*
X102163809Y-64230952D01*
X102354285Y-64183333D01*
X102449523Y-64135714D01*
X102544761Y-64040476D01*
X102592380Y-63897619D01*
X102592380Y-63802380D01*
X102544761Y-63659523D01*
X102497142Y-63611904D01*
X102163809Y-63611904D01*
X102163809Y-63802380D01*
X101592380Y-62564285D02*
X101592380Y-61992857D01*
X102592380Y-62278571D02*
X101592380Y-62278571D01*
X102592380Y-61659523D02*
X101592380Y-61659523D01*
X102068571Y-61659523D02*
X102068571Y-61088095D01*
X102592380Y-61088095D02*
X101592380Y-61088095D01*
X102592380Y-60611904D02*
X101592380Y-60611904D01*
X102544761Y-60183333D02*
X102592380Y-60040476D01*
X102592380Y-59802380D01*
X102544761Y-59707142D01*
X102497142Y-59659523D01*
X102401904Y-59611904D01*
X102306666Y-59611904D01*
X102211428Y-59659523D01*
X102163809Y-59707142D01*
X102116190Y-59802380D01*
X102068571Y-59992857D01*
X102020952Y-60088095D01*
X101973333Y-60135714D01*
X101878095Y-60183333D01*
X101782857Y-60183333D01*
X101687619Y-60135714D01*
X101640000Y-60088095D01*
X101592380Y-59992857D01*
X101592380Y-59754761D01*
X101640000Y-59611904D01*
X101592380Y-58564285D02*
X101592380Y-57992857D01*
X102592380Y-58278571D02*
X101592380Y-58278571D01*
X102068571Y-57659523D02*
X102068571Y-57326190D01*
X102592380Y-57183333D02*
X102592380Y-57659523D01*
X101592380Y-57659523D01*
X101592380Y-57183333D01*
X101592380Y-56850000D02*
X102592380Y-56183333D01*
X101592380Y-56183333D02*
X102592380Y-56850000D01*
X101592380Y-55945238D02*
X101592380Y-55373809D01*
X102592380Y-55659523D02*
X101592380Y-55659523D01*
D11*
X98267380Y-73181904D02*
X99267380Y-72943809D01*
X98553095Y-72753333D01*
X99267380Y-72562857D01*
X98267380Y-72324761D01*
X98600714Y-72039047D02*
X99267380Y-71800952D01*
X98600714Y-71562857D02*
X99267380Y-71800952D01*
X99505476Y-71896190D01*
X99553095Y-71943809D01*
X99600714Y-72039047D01*
X99219761Y-71229523D02*
X99267380Y-71134285D01*
X99267380Y-70943809D01*
X99219761Y-70848571D01*
X99124523Y-70800952D01*
X99076904Y-70800952D01*
X98981666Y-70848571D01*
X98934047Y-70943809D01*
X98934047Y-71086666D01*
X98886428Y-71181904D01*
X98791190Y-71229523D01*
X98743571Y-71229523D01*
X98648333Y-71181904D01*
X98600714Y-71086666D01*
X98600714Y-70943809D01*
X98648333Y-70848571D01*
X99219761Y-69991428D02*
X99267380Y-70086666D01*
X99267380Y-70277142D01*
X99219761Y-70372380D01*
X99124523Y-70420000D01*
X98743571Y-70420000D01*
X98648333Y-70372380D01*
X98600714Y-70277142D01*
X98600714Y-70086666D01*
X98648333Y-69991428D01*
X98743571Y-69943809D01*
X98838809Y-69943809D01*
X98934047Y-70420000D01*
X99219761Y-68324761D02*
X99267380Y-68420000D01*
X99267380Y-68610476D01*
X99219761Y-68705714D01*
X99172142Y-68753333D01*
X99076904Y-68800952D01*
X98791190Y-68800952D01*
X98695952Y-68753333D01*
X98648333Y-68705714D01*
X98600714Y-68610476D01*
X98600714Y-68420000D01*
X98648333Y-68324761D01*
X99267380Y-67753333D02*
X99219761Y-67848571D01*
X99172142Y-67896190D01*
X99076904Y-67943809D01*
X98791190Y-67943809D01*
X98695952Y-67896190D01*
X98648333Y-67848571D01*
X98600714Y-67753333D01*
X98600714Y-67610476D01*
X98648333Y-67515238D01*
X98695952Y-67467619D01*
X98791190Y-67420000D01*
X99076904Y-67420000D01*
X99172142Y-67467619D01*
X99219761Y-67515238D01*
X99267380Y-67610476D01*
X99267380Y-67753333D01*
X98600714Y-66991428D02*
X99267380Y-66991428D01*
X98695952Y-66991428D02*
X98648333Y-66943809D01*
X98600714Y-66848571D01*
X98600714Y-66705714D01*
X98648333Y-66610476D01*
X98743571Y-66562857D01*
X99267380Y-66562857D01*
X98600714Y-66181904D02*
X99267380Y-65943809D01*
X98600714Y-65705714D01*
X99219761Y-64943809D02*
X99267380Y-65039047D01*
X99267380Y-65229523D01*
X99219761Y-65324761D01*
X99124523Y-65372380D01*
X98743571Y-65372380D01*
X98648333Y-65324761D01*
X98600714Y-65229523D01*
X98600714Y-65039047D01*
X98648333Y-64943809D01*
X98743571Y-64896190D01*
X98838809Y-64896190D01*
X98934047Y-65372380D01*
X99267380Y-64467619D02*
X98600714Y-64467619D01*
X98791190Y-64467619D02*
X98695952Y-64420000D01*
X98648333Y-64372380D01*
X98600714Y-64277142D01*
X98600714Y-64181904D01*
X98600714Y-63991428D02*
X98600714Y-63610476D01*
X98267380Y-63848571D02*
X99124523Y-63848571D01*
X99219761Y-63800952D01*
X99267380Y-63705714D01*
X99267380Y-63610476D01*
X99219761Y-62896190D02*
X99267380Y-62991428D01*
X99267380Y-63181904D01*
X99219761Y-63277142D01*
X99124523Y-63324761D01*
X98743571Y-63324761D01*
X98648333Y-63277142D01*
X98600714Y-63181904D01*
X98600714Y-62991428D01*
X98648333Y-62896190D01*
X98743571Y-62848571D01*
X98838809Y-62848571D01*
X98934047Y-63324761D01*
X99267380Y-62420000D02*
X98600714Y-62420000D01*
X98791190Y-62420000D02*
X98695952Y-62372380D01*
X98648333Y-62324761D01*
X98600714Y-62229523D01*
X98600714Y-62134285D01*
X99267380Y-60467619D02*
X98791190Y-60800952D01*
X99267380Y-61039047D02*
X98267380Y-61039047D01*
X98267380Y-60658095D01*
X98315000Y-60562857D01*
X98362619Y-60515238D01*
X98457857Y-60467619D01*
X98600714Y-60467619D01*
X98695952Y-60515238D01*
X98743571Y-60562857D01*
X98791190Y-60658095D01*
X98791190Y-61039047D01*
X99219761Y-59658095D02*
X99267380Y-59753333D01*
X99267380Y-59943809D01*
X99219761Y-60039047D01*
X99124523Y-60086666D01*
X98743571Y-60086666D01*
X98648333Y-60039047D01*
X98600714Y-59943809D01*
X98600714Y-59753333D01*
X98648333Y-59658095D01*
X98743571Y-59610476D01*
X98838809Y-59610476D01*
X98934047Y-60086666D01*
X98600714Y-59277142D02*
X99267380Y-59039047D01*
X98600714Y-58800952D01*
X99267380Y-57134285D02*
X99267380Y-57705714D01*
X99267380Y-57420000D02*
X98267380Y-57420000D01*
X98410238Y-57515238D01*
X98505476Y-57610476D01*
X98553095Y-57705714D01*
X99172142Y-56705714D02*
X99219761Y-56658095D01*
X99267380Y-56705714D01*
X99219761Y-56753333D01*
X99172142Y-56705714D01*
X99267380Y-56705714D01*
X98267380Y-56039047D02*
X98267380Y-55943809D01*
X98315000Y-55848571D01*
X98362619Y-55800952D01*
X98457857Y-55753333D01*
X98648333Y-55705714D01*
X98886428Y-55705714D01*
X99076904Y-55753333D01*
X99172142Y-55800952D01*
X99219761Y-55848571D01*
X99267380Y-55943809D01*
X99267380Y-56039047D01*
X99219761Y-56134285D01*
X99172142Y-56181904D01*
X99076904Y-56229523D01*
X98886428Y-56277142D01*
X98648333Y-56277142D01*
X98457857Y-56229523D01*
X98362619Y-56181904D01*
X98315000Y-56134285D01*
X98267380Y-56039047D01*
X100250714Y-70443809D02*
X100917380Y-70443809D01*
X99869761Y-70681904D02*
X100584047Y-70920000D01*
X100584047Y-70300952D01*
X100917380Y-69920000D02*
X99917380Y-69920000D01*
X99917380Y-69539047D01*
X99965000Y-69443809D01*
X100012619Y-69396190D01*
X100107857Y-69348571D01*
X100250714Y-69348571D01*
X100345952Y-69396190D01*
X100393571Y-69443809D01*
X100441190Y-69539047D01*
X100441190Y-69920000D01*
X100250714Y-68491428D02*
X100917380Y-68491428D01*
X99869761Y-68729523D02*
X100584047Y-68967619D01*
X100584047Y-68348571D01*
X100822142Y-67396190D02*
X100869761Y-67443809D01*
X100917380Y-67586666D01*
X100917380Y-67681904D01*
X100869761Y-67824761D01*
X100774523Y-67920000D01*
X100679285Y-67967619D01*
X100488809Y-68015238D01*
X100345952Y-68015238D01*
X100155476Y-67967619D01*
X100060238Y-67920000D01*
X99965000Y-67824761D01*
X99917380Y-67681904D01*
X99917380Y-67586666D01*
X99965000Y-67443809D01*
X100012619Y-67396190D01*
X100250714Y-65443809D02*
X100536428Y-66205714D01*
X100822142Y-65443809D01*
X100536428Y-64967619D02*
X100536428Y-64205714D01*
X100536428Y-63729523D02*
X100536428Y-62967619D01*
X100250714Y-62491428D02*
X100536428Y-61729523D01*
X100822142Y-62491428D01*
X99917380Y-60491428D02*
X100726904Y-60491428D01*
X100822142Y-60443809D01*
X100869761Y-60396190D01*
X100917380Y-60300952D01*
X100917380Y-60110476D01*
X100869761Y-60015238D01*
X100822142Y-59967619D01*
X100726904Y-59920000D01*
X99917380Y-59920000D01*
X100869761Y-59491428D02*
X100917380Y-59348571D01*
X100917380Y-59110476D01*
X100869761Y-59015238D01*
X100822142Y-58967619D01*
X100726904Y-58920000D01*
X100631666Y-58920000D01*
X100536428Y-58967619D01*
X100488809Y-59015238D01*
X100441190Y-59110476D01*
X100393571Y-59300952D01*
X100345952Y-59396190D01*
X100298333Y-59443809D01*
X100203095Y-59491428D01*
X100107857Y-59491428D01*
X100012619Y-59443809D01*
X99965000Y-59396190D01*
X99917380Y-59300952D01*
X99917380Y-59062857D01*
X99965000Y-58920000D01*
X100393571Y-58158095D02*
X100441190Y-58015238D01*
X100488809Y-57967619D01*
X100584047Y-57920000D01*
X100726904Y-57920000D01*
X100822142Y-57967619D01*
X100869761Y-58015238D01*
X100917380Y-58110476D01*
X100917380Y-58491428D01*
X99917380Y-58491428D01*
X99917380Y-58158095D01*
X99965000Y-58062857D01*
X100012619Y-58015238D01*
X100107857Y-57967619D01*
X100203095Y-57967619D01*
X100298333Y-58015238D01*
X100345952Y-58062857D01*
X100393571Y-58158095D01*
X100393571Y-58491428D01*
D12*
X111360000Y-59590000D02*
X113900000Y-59590000D01*
X111360000Y-57050000D02*
X111360000Y-59590000D01*
X91120000Y-87530000D02*
X91120000Y-48250000D01*
X113900000Y-87530000D02*
X91120000Y-87530000D01*
X113900000Y-48250000D02*
X113900000Y-87530000D01*
X91120000Y-48250000D02*
X113900000Y-48250000D01*
X111360000Y-57050000D02*
X113900000Y-57050000D01*
D11*
X96900000Y-106180000D02*
X108100000Y-106180000D01*
X108090000Y-106180000D02*
X108090000Y-88180000D01*
X108090000Y-88180000D02*
X96890000Y-88180000D01*
X96890000Y-88180000D02*
X96890000Y-106180000D01*
D12*
X108690000Y-53400000D02*
X111230000Y-53400000D01*
X108690000Y-50860000D02*
X108690000Y-53400000D01*
D11*
G36*
X96295365Y-57149030D02*
G01*
X96295365Y-57249030D01*
X96195365Y-57249030D01*
X96195365Y-57149030D01*
X96295365Y-57149030D01*
G37*
X96295365Y-57149030D02*
X96295365Y-57249030D01*
X96195365Y-57249030D01*
X96195365Y-57149030D01*
X96295365Y-57149030D01*
G36*
X96095365Y-56749030D02*
G01*
X96095365Y-57549030D01*
X95995365Y-57549030D01*
X95995365Y-56749030D01*
X96095365Y-56749030D01*
G37*
X96095365Y-56749030D02*
X96095365Y-57549030D01*
X95995365Y-57549030D01*
X95995365Y-56749030D01*
X96095365Y-56749030D01*
G36*
X96495365Y-57349030D02*
G01*
X96495365Y-57549030D01*
X96395365Y-57549030D01*
X96395365Y-57349030D01*
X96495365Y-57349030D01*
G37*
X96495365Y-57349030D02*
X96495365Y-57549030D01*
X96395365Y-57549030D01*
X96395365Y-57349030D01*
X96495365Y-57349030D01*
G36*
X96495365Y-56749030D02*
G01*
X96495365Y-57049030D01*
X96395365Y-57049030D01*
X96395365Y-56749030D01*
X96495365Y-56749030D01*
G37*
X96495365Y-56749030D02*
X96495365Y-57049030D01*
X96395365Y-57049030D01*
X96395365Y-56749030D01*
X96495365Y-56749030D01*
G36*
X96495365Y-56749030D02*
G01*
X96495365Y-56849030D01*
X95995365Y-56849030D01*
X95995365Y-56749030D01*
X96495365Y-56749030D01*
G37*
X96495365Y-56749030D02*
X96495365Y-56849030D01*
X95995365Y-56849030D01*
X95995365Y-56749030D01*
X96495365Y-56749030D01*
D12*
X93450000Y-81340000D02*
X93450000Y-48320000D01*
X111230000Y-81340000D02*
X93450000Y-81340000D01*
X111230000Y-48320000D02*
X111230000Y-81340000D01*
X93450000Y-48320000D02*
X111230000Y-48320000D01*
X108690000Y-50860000D02*
X111230000Y-50860000D01*
D11*
X101990000Y-101308571D02*
X101990000Y-102380000D01*
X101918571Y-102594285D01*
X101775714Y-102737142D01*
X101561428Y-102808571D01*
X101418571Y-102808571D01*
X103490000Y-102808571D02*
X102632857Y-102808571D01*
X103061428Y-102808571D02*
X103061428Y-101308571D01*
X102918571Y-101522857D01*
X102775714Y-101665714D01*
X102632857Y-101737142D01*
X107210523Y-55031904D02*
X107210523Y-54231904D01*
X107401000Y-54231904D01*
X107515285Y-54270000D01*
X107591476Y-54346190D01*
X107629571Y-54422380D01*
X107667666Y-54574761D01*
X107667666Y-54689047D01*
X107629571Y-54841428D01*
X107591476Y-54917619D01*
X107515285Y-54993809D01*
X107401000Y-55031904D01*
X107210523Y-55031904D01*
X107972428Y-54308095D02*
X108010523Y-54270000D01*
X108086714Y-54231904D01*
X108277190Y-54231904D01*
X108353380Y-54270000D01*
X108391476Y-54308095D01*
X108429571Y-54384285D01*
X108429571Y-54460476D01*
X108391476Y-54574761D01*
X107934333Y-55031904D01*
X108429571Y-55031904D01*
X107210523Y-65191904D02*
X107210523Y-64391904D01*
X107401000Y-64391904D01*
X107515285Y-64430000D01*
X107591476Y-64506190D01*
X107629571Y-64582380D01*
X107667666Y-64734761D01*
X107667666Y-64849047D01*
X107629571Y-65001428D01*
X107591476Y-65077619D01*
X107515285Y-65153809D01*
X107401000Y-65191904D01*
X107210523Y-65191904D01*
X108162904Y-64391904D02*
X108239095Y-64391904D01*
X108315285Y-64430000D01*
X108353380Y-64468095D01*
X108391476Y-64544285D01*
X108429571Y-64696666D01*
X108429571Y-64887142D01*
X108391476Y-65039523D01*
X108353380Y-65115714D01*
X108315285Y-65153809D01*
X108239095Y-65191904D01*
X108162904Y-65191904D01*
X108086714Y-65153809D01*
X108048619Y-65115714D01*
X108010523Y-65039523D01*
X107972428Y-64887142D01*
X107972428Y-64696666D01*
X108010523Y-64544285D01*
X108048619Y-64468095D01*
X108086714Y-64430000D01*
X108162904Y-64391904D01*
X107210523Y-62651904D02*
X107210523Y-61851904D01*
X107401000Y-61851904D01*
X107515285Y-61890000D01*
X107591476Y-61966190D01*
X107629571Y-62042380D01*
X107667666Y-62194761D01*
X107667666Y-62309047D01*
X107629571Y-62461428D01*
X107591476Y-62537619D01*
X107515285Y-62613809D01*
X107401000Y-62651904D01*
X107210523Y-62651904D01*
X108429571Y-62651904D02*
X107972428Y-62651904D01*
X108201000Y-62651904D02*
X108201000Y-61851904D01*
X108124809Y-61966190D01*
X108048619Y-62042380D01*
X107972428Y-62080476D01*
X107191476Y-59350000D02*
X107115285Y-59311904D01*
X107001000Y-59311904D01*
X106886714Y-59350000D01*
X106810523Y-59426190D01*
X106772428Y-59502380D01*
X106734333Y-59654761D01*
X106734333Y-59769047D01*
X106772428Y-59921428D01*
X106810523Y-59997619D01*
X106886714Y-60073809D01*
X107001000Y-60111904D01*
X107077190Y-60111904D01*
X107191476Y-60073809D01*
X107229571Y-60035714D01*
X107229571Y-59769047D01*
X107077190Y-59769047D01*
X107572428Y-60111904D02*
X107572428Y-59311904D01*
X108029571Y-60111904D01*
X108029571Y-59311904D01*
X108410523Y-60111904D02*
X108410523Y-59311904D01*
X108601000Y-59311904D01*
X108715285Y-59350000D01*
X108791476Y-59426190D01*
X108829571Y-59502380D01*
X108867666Y-59654761D01*
X108867666Y-59769047D01*
X108829571Y-59921428D01*
X108791476Y-59997619D01*
X108715285Y-60073809D01*
X108601000Y-60111904D01*
X108410523Y-60111904D01*
X107191476Y-56810000D02*
X107115285Y-56771904D01*
X107001000Y-56771904D01*
X106886714Y-56810000D01*
X106810523Y-56886190D01*
X106772428Y-56962380D01*
X106734333Y-57114761D01*
X106734333Y-57229047D01*
X106772428Y-57381428D01*
X106810523Y-57457619D01*
X106886714Y-57533809D01*
X107001000Y-57571904D01*
X107077190Y-57571904D01*
X107191476Y-57533809D01*
X107229571Y-57495714D01*
X107229571Y-57229047D01*
X107077190Y-57229047D01*
X107572428Y-57571904D02*
X107572428Y-56771904D01*
X108029571Y-57571904D01*
X108029571Y-56771904D01*
X108410523Y-57571904D02*
X108410523Y-56771904D01*
X108601000Y-56771904D01*
X108715285Y-56810000D01*
X108791476Y-56886190D01*
X108829571Y-56962380D01*
X108867666Y-57114761D01*
X108867666Y-57229047D01*
X108829571Y-57381428D01*
X108791476Y-57457619D01*
X108715285Y-57533809D01*
X108601000Y-57571904D01*
X108410523Y-57571904D01*
X107210523Y-67731904D02*
X107210523Y-66931904D01*
X107401000Y-66931904D01*
X107515285Y-66970000D01*
X107591476Y-67046190D01*
X107629571Y-67122380D01*
X107667666Y-67274761D01*
X107667666Y-67389047D01*
X107629571Y-67541428D01*
X107591476Y-67617619D01*
X107515285Y-67693809D01*
X107401000Y-67731904D01*
X107210523Y-67731904D01*
X108353380Y-67198571D02*
X108353380Y-67731904D01*
X108162904Y-66893809D02*
X107972428Y-67465238D01*
X108467666Y-67465238D01*
X107667666Y-70195714D02*
X107629571Y-70233809D01*
X107515285Y-70271904D01*
X107439095Y-70271904D01*
X107324809Y-70233809D01*
X107248619Y-70157619D01*
X107210523Y-70081428D01*
X107172428Y-69929047D01*
X107172428Y-69814761D01*
X107210523Y-69662380D01*
X107248619Y-69586190D01*
X107324809Y-69510000D01*
X107439095Y-69471904D01*
X107515285Y-69471904D01*
X107629571Y-69510000D01*
X107667666Y-69548095D01*
X108353380Y-69471904D02*
X108201000Y-69471904D01*
X108124809Y-69510000D01*
X108086714Y-69548095D01*
X108010523Y-69662380D01*
X107972428Y-69814761D01*
X107972428Y-70119523D01*
X108010523Y-70195714D01*
X108048619Y-70233809D01*
X108124809Y-70271904D01*
X108277190Y-70271904D01*
X108353380Y-70233809D01*
X108391476Y-70195714D01*
X108429571Y-70119523D01*
X108429571Y-69929047D01*
X108391476Y-69852857D01*
X108353380Y-69814761D01*
X108277190Y-69776666D01*
X108124809Y-69776666D01*
X108048619Y-69814761D01*
X108010523Y-69852857D01*
X107972428Y-69929047D01*
X107210523Y-72811904D02*
X107210523Y-72011904D01*
X107401000Y-72011904D01*
X107515285Y-72050000D01*
X107591476Y-72126190D01*
X107629571Y-72202380D01*
X107667666Y-72354761D01*
X107667666Y-72469047D01*
X107629571Y-72621428D01*
X107591476Y-72697619D01*
X107515285Y-72773809D01*
X107401000Y-72811904D01*
X107210523Y-72811904D01*
X107934333Y-72011904D02*
X108467666Y-72011904D01*
X108124809Y-72811904D01*
X107248619Y-74932857D02*
X107515285Y-74932857D01*
X107629571Y-75351904D02*
X107248619Y-75351904D01*
X107248619Y-74551904D01*
X107629571Y-74551904D01*
X108315285Y-74551904D02*
X108162904Y-74551904D01*
X108086714Y-74590000D01*
X108048619Y-74628095D01*
X107972428Y-74742380D01*
X107934333Y-74894761D01*
X107934333Y-75199523D01*
X107972428Y-75275714D01*
X108010523Y-75313809D01*
X108086714Y-75351904D01*
X108239095Y-75351904D01*
X108315285Y-75313809D01*
X108353380Y-75275714D01*
X108391476Y-75199523D01*
X108391476Y-75009047D01*
X108353380Y-74932857D01*
X108315285Y-74894761D01*
X108239095Y-74856666D01*
X108086714Y-74856666D01*
X108010523Y-74894761D01*
X107972428Y-74932857D01*
X107934333Y-75009047D01*
X107477190Y-77472857D02*
X107591476Y-77510952D01*
X107629571Y-77549047D01*
X107667666Y-77625238D01*
X107667666Y-77739523D01*
X107629571Y-77815714D01*
X107591476Y-77853809D01*
X107515285Y-77891904D01*
X107210523Y-77891904D01*
X107210523Y-77091904D01*
X107477190Y-77091904D01*
X107553380Y-77130000D01*
X107591476Y-77168095D01*
X107629571Y-77244285D01*
X107629571Y-77320476D01*
X107591476Y-77396666D01*
X107553380Y-77434761D01*
X107477190Y-77472857D01*
X107210523Y-77472857D01*
X108353380Y-77358571D02*
X108353380Y-77891904D01*
X108162904Y-77053809D02*
X107972428Y-77625238D01*
X108467666Y-77625238D01*
X107477190Y-80012857D02*
X107591476Y-80050952D01*
X107629571Y-80089047D01*
X107667666Y-80165238D01*
X107667666Y-80279523D01*
X107629571Y-80355714D01*
X107591476Y-80393809D01*
X107515285Y-80431904D01*
X107210523Y-80431904D01*
X107210523Y-79631904D01*
X107477190Y-79631904D01*
X107553380Y-79670000D01*
X107591476Y-79708095D01*
X107629571Y-79784285D01*
X107629571Y-79860476D01*
X107591476Y-79936666D01*
X107553380Y-79974761D01*
X107477190Y-80012857D01*
X107210523Y-80012857D01*
X108391476Y-79631904D02*
X108010523Y-79631904D01*
X107972428Y-80012857D01*
X108010523Y-79974761D01*
X108086714Y-79936666D01*
X108277190Y-79936666D01*
X108353380Y-79974761D01*
X108391476Y-80012857D01*
X108429571Y-80089047D01*
X108429571Y-80279523D01*
X108391476Y-80355714D01*
X108353380Y-80393809D01*
X108277190Y-80431904D01*
X108086714Y-80431904D01*
X108010523Y-80393809D01*
X107972428Y-80355714D01*
X96555190Y-80012857D02*
X96669476Y-80050952D01*
X96707571Y-80089047D01*
X96745666Y-80165238D01*
X96745666Y-80279523D01*
X96707571Y-80355714D01*
X96669476Y-80393809D01*
X96593285Y-80431904D01*
X96288523Y-80431904D01*
X96288523Y-79631904D01*
X96555190Y-79631904D01*
X96631380Y-79670000D01*
X96669476Y-79708095D01*
X96707571Y-79784285D01*
X96707571Y-79860476D01*
X96669476Y-79936666D01*
X96631380Y-79974761D01*
X96555190Y-80012857D01*
X96288523Y-80012857D01*
X97431380Y-79631904D02*
X97279000Y-79631904D01*
X97202809Y-79670000D01*
X97164714Y-79708095D01*
X97088523Y-79822380D01*
X97050428Y-79974761D01*
X97050428Y-80279523D01*
X97088523Y-80355714D01*
X97126619Y-80393809D01*
X97202809Y-80431904D01*
X97355190Y-80431904D01*
X97431380Y-80393809D01*
X97469476Y-80355714D01*
X97507571Y-80279523D01*
X97507571Y-80089047D01*
X97469476Y-80012857D01*
X97431380Y-79974761D01*
X97355190Y-79936666D01*
X97202809Y-79936666D01*
X97126619Y-79974761D01*
X97088523Y-80012857D01*
X97050428Y-80089047D01*
X96555190Y-74932857D02*
X96669476Y-74970952D01*
X96707571Y-75009047D01*
X96745666Y-75085238D01*
X96745666Y-75199523D01*
X96707571Y-75275714D01*
X96669476Y-75313809D01*
X96593285Y-75351904D01*
X96288523Y-75351904D01*
X96288523Y-74551904D01*
X96555190Y-74551904D01*
X96631380Y-74590000D01*
X96669476Y-74628095D01*
X96707571Y-74704285D01*
X96707571Y-74780476D01*
X96669476Y-74856666D01*
X96631380Y-74894761D01*
X96555190Y-74932857D01*
X96288523Y-74932857D01*
X97012333Y-74551904D02*
X97507571Y-74551904D01*
X97240904Y-74856666D01*
X97355190Y-74856666D01*
X97431380Y-74894761D01*
X97469476Y-74932857D01*
X97507571Y-75009047D01*
X97507571Y-75199523D01*
X97469476Y-75275714D01*
X97431380Y-75313809D01*
X97355190Y-75351904D01*
X97126619Y-75351904D01*
X97050428Y-75313809D01*
X97012333Y-75275714D01*
X96555190Y-72392857D02*
X96669476Y-72430952D01*
X96707571Y-72469047D01*
X96745666Y-72545238D01*
X96745666Y-72659523D01*
X96707571Y-72735714D01*
X96669476Y-72773809D01*
X96593285Y-72811904D01*
X96288523Y-72811904D01*
X96288523Y-72011904D01*
X96555190Y-72011904D01*
X96631380Y-72050000D01*
X96669476Y-72088095D01*
X96707571Y-72164285D01*
X96707571Y-72240476D01*
X96669476Y-72316666D01*
X96631380Y-72354761D01*
X96555190Y-72392857D01*
X96288523Y-72392857D01*
X97507571Y-72811904D02*
X97050428Y-72811904D01*
X97279000Y-72811904D02*
X97279000Y-72011904D01*
X97202809Y-72126190D01*
X97126619Y-72202380D01*
X97050428Y-72240476D01*
X96612333Y-62232857D02*
X96345666Y-62232857D01*
X96345666Y-62651904D02*
X96345666Y-61851904D01*
X96726619Y-61851904D01*
X97374238Y-62118571D02*
X97374238Y-62651904D01*
X97183761Y-61813809D02*
X96993285Y-62385238D01*
X97488523Y-62385238D01*
X95812333Y-59311904D02*
X96079000Y-60111904D01*
X96345666Y-59311904D01*
X97069476Y-60035714D02*
X97031380Y-60073809D01*
X96917095Y-60111904D01*
X96840904Y-60111904D01*
X96726619Y-60073809D01*
X96650428Y-59997619D01*
X96612333Y-59921428D01*
X96574238Y-59769047D01*
X96574238Y-59654761D01*
X96612333Y-59502380D01*
X96650428Y-59426190D01*
X96726619Y-59350000D01*
X96840904Y-59311904D01*
X96917095Y-59311904D01*
X97031380Y-59350000D01*
X97069476Y-59388095D01*
X97869476Y-60035714D02*
X97831380Y-60073809D01*
X97717095Y-60111904D01*
X97640904Y-60111904D01*
X97526619Y-60073809D01*
X97450428Y-59997619D01*
X97412333Y-59921428D01*
X97374238Y-59769047D01*
X97374238Y-59654761D01*
X97412333Y-59502380D01*
X97450428Y-59426190D01*
X97526619Y-59350000D01*
X97640904Y-59311904D01*
X97717095Y-59311904D01*
X97831380Y-59350000D01*
X97869476Y-59388095D01*
X96269476Y-54270000D02*
X96193285Y-54231904D01*
X96079000Y-54231904D01*
X95964714Y-54270000D01*
X95888523Y-54346190D01*
X95850428Y-54422380D01*
X95812333Y-54574761D01*
X95812333Y-54689047D01*
X95850428Y-54841428D01*
X95888523Y-54917619D01*
X95964714Y-54993809D01*
X96079000Y-55031904D01*
X96155190Y-55031904D01*
X96269476Y-54993809D01*
X96307571Y-54955714D01*
X96307571Y-54689047D01*
X96155190Y-54689047D01*
X96650428Y-55031904D02*
X96650428Y-54231904D01*
X97107571Y-55031904D01*
X97107571Y-54231904D01*
X97488523Y-55031904D02*
X97488523Y-54231904D01*
X97679000Y-54231904D01*
X97793285Y-54270000D01*
X97869476Y-54346190D01*
X97907571Y-54422380D01*
X97945666Y-54574761D01*
X97945666Y-54689047D01*
X97907571Y-54841428D01*
X97869476Y-54917619D01*
X97793285Y-54993809D01*
X97679000Y-55031904D01*
X97488523Y-55031904D01*
X96326619Y-52491904D02*
X96059952Y-52110952D01*
X95869476Y-52491904D02*
X95869476Y-51691904D01*
X96174238Y-51691904D01*
X96250428Y-51730000D01*
X96288523Y-51768095D01*
X96326619Y-51844285D01*
X96326619Y-51958571D01*
X96288523Y-52034761D01*
X96250428Y-52072857D01*
X96174238Y-52110952D01*
X95869476Y-52110952D01*
X96631380Y-52263333D02*
X97012333Y-52263333D01*
X96555190Y-52491904D02*
X96821857Y-51691904D01*
X97088523Y-52491904D01*
X97279000Y-51691904D02*
X97469476Y-52491904D01*
X97621857Y-51920476D01*
X97774238Y-52491904D01*
X97964714Y-51691904D01*
X96612333Y-64772857D02*
X96345666Y-64772857D01*
X96345666Y-65191904D02*
X96345666Y-64391904D01*
X96726619Y-64391904D01*
X97412333Y-64391904D02*
X97031380Y-64391904D01*
X96993285Y-64772857D01*
X97031380Y-64734761D01*
X97107571Y-64696666D01*
X97298047Y-64696666D01*
X97374238Y-64734761D01*
X97412333Y-64772857D01*
X97450428Y-64849047D01*
X97450428Y-65039523D01*
X97412333Y-65115714D01*
X97374238Y-65153809D01*
X97298047Y-65191904D01*
X97107571Y-65191904D01*
X97031380Y-65153809D01*
X96993285Y-65115714D01*
X96612333Y-67312857D02*
X96345666Y-67312857D01*
X96345666Y-67731904D02*
X96345666Y-66931904D01*
X96726619Y-66931904D01*
X97374238Y-66931904D02*
X97221857Y-66931904D01*
X97145666Y-66970000D01*
X97107571Y-67008095D01*
X97031380Y-67122380D01*
X96993285Y-67274761D01*
X96993285Y-67579523D01*
X97031380Y-67655714D01*
X97069476Y-67693809D01*
X97145666Y-67731904D01*
X97298047Y-67731904D01*
X97374238Y-67693809D01*
X97412333Y-67655714D01*
X97450428Y-67579523D01*
X97450428Y-67389047D01*
X97412333Y-67312857D01*
X97374238Y-67274761D01*
X97298047Y-67236666D01*
X97145666Y-67236666D01*
X97069476Y-67274761D01*
X97031380Y-67312857D01*
X96993285Y-67389047D01*
X96612333Y-69852857D02*
X96345666Y-69852857D01*
X96345666Y-70271904D02*
X96345666Y-69471904D01*
X96726619Y-69471904D01*
X96955190Y-69471904D02*
X97488523Y-69471904D01*
X97145666Y-70271904D01*
X96555190Y-77472857D02*
X96669476Y-77510952D01*
X96707571Y-77549047D01*
X96745666Y-77625238D01*
X96745666Y-77739523D01*
X96707571Y-77815714D01*
X96669476Y-77853809D01*
X96593285Y-77891904D01*
X96288523Y-77891904D01*
X96288523Y-77091904D01*
X96555190Y-77091904D01*
X96631380Y-77130000D01*
X96669476Y-77168095D01*
X96707571Y-77244285D01*
X96707571Y-77320476D01*
X96669476Y-77396666D01*
X96631380Y-77434761D01*
X96555190Y-77472857D01*
X96288523Y-77472857D01*
X97050428Y-77168095D02*
X97088523Y-77130000D01*
X97164714Y-77091904D01*
X97355190Y-77091904D01*
X97431380Y-77130000D01*
X97469476Y-77168095D01*
X97507571Y-77244285D01*
X97507571Y-77320476D01*
X97469476Y-77434761D01*
X97012333Y-77891904D01*
X97507571Y-77891904D01*
X103721395Y-51691904D02*
X104178538Y-51691904D01*
X103949967Y-52491904D02*
X103949967Y-51691904D01*
X104369014Y-51691904D02*
X104902348Y-52491904D01*
X104902348Y-51691904D02*
X104369014Y-52491904D01*
X105359491Y-51691904D02*
X105435681Y-51691904D01*
X105511872Y-51730000D01*
X105549967Y-51768095D01*
X105588062Y-51844285D01*
X105626157Y-51996666D01*
X105626157Y-52187142D01*
X105588062Y-52339523D01*
X105549967Y-52415714D01*
X105511872Y-52453809D01*
X105435681Y-52491904D01*
X105359491Y-52491904D01*
X105283300Y-52453809D01*
X105245205Y-52415714D01*
X105207110Y-52339523D01*
X105169014Y-52187142D01*
X105169014Y-51996666D01*
X105207110Y-51844285D01*
X105245205Y-51768095D01*
X105283300Y-51730000D01*
X105359491Y-51691904D01*
X106540443Y-51653809D02*
X105854729Y-52682380D01*
X106807110Y-52491904D02*
X106807110Y-51691904D01*
X106997586Y-51691904D01*
X107111872Y-51730000D01*
X107188062Y-51806190D01*
X107226157Y-51882380D01*
X107264252Y-52034761D01*
X107264252Y-52149047D01*
X107226157Y-52301428D01*
X107188062Y-52377619D01*
X107111872Y-52453809D01*
X106997586Y-52491904D01*
X106807110Y-52491904D01*
X107530919Y-51691904D02*
X108026157Y-51691904D01*
X107759491Y-51996666D01*
X107873776Y-51996666D01*
X107949967Y-52034761D01*
X107988062Y-52072857D01*
X108026157Y-52149047D01*
X108026157Y-52339523D01*
X107988062Y-52415714D01*
X107949967Y-52453809D01*
X107873776Y-52491904D01*
X107645205Y-52491904D01*
X107569014Y-52453809D01*
X107530919Y-52415714D01*
X96766666Y-57513809D02*
X96880952Y-57551904D01*
X97071428Y-57551904D01*
X97147619Y-57513809D01*
X97185714Y-57475714D01*
X97223809Y-57399523D01*
X97223809Y-57323333D01*
X97185714Y-57247142D01*
X97147619Y-57209047D01*
X97071428Y-57170952D01*
X96919047Y-57132857D01*
X96842857Y-57094761D01*
X96804761Y-57056666D01*
X96766666Y-56980476D01*
X96766666Y-56904285D01*
X96804761Y-56828095D01*
X96842857Y-56790000D01*
X96919047Y-56751904D01*
X97109523Y-56751904D01*
X97223809Y-56790000D01*
X97452380Y-56751904D02*
X97909523Y-56751904D01*
X97680952Y-57551904D02*
X97680952Y-56751904D01*
M02*
